<?xml version="1.0" encoding="UTF-8" standalone="no"?>
<!-- Created with Inkscape (http://www.inkscape.org/) -->

<svg
   xmlns:dc="http://purl.org/dc/elements/1.1/"
   xmlns:cc="http://creativecommons.org/ns#"
   xmlns:rdf="http://www.w3.org/1999/02/22-rdf-syntax-ns#"
   xmlns:svg="http://www.w3.org/2000/svg"
   xmlns="http://www.w3.org/2000/svg"
   xmlns:sodipodi="http://sodipodi.sourceforge.net/DTD/sodipodi-0.dtd"
   xmlns:inkscape="http://www.inkscape.org/namespaces/inkscape"
   width="45"
   height="36"
   id="svg2"
   version="1.1"
   inkscape:version="0.48.3.1 r9886"
   sodipodi:docname="New document 1">
  <defs
     id="defs4" />
  <sodipodi:namedview
     id="base"
     pagecolor="#ffffff"
     bordercolor="#666666"
     borderopacity="1.0"
     inkscape:pageopacity="0.0"
     inkscape:pageshadow="2"
     inkscape:zoom="1.979899"
     inkscape:cx="96.792911"
     inkscape:cy="12.092276"
     inkscape:document-units="px"
     inkscape:current-layer="layer1"
     showgrid="false"
     units="in"
     inkscape:window-width="681"
     inkscape:window-height="749"
     inkscape:window-x="0"
     inkscape:window-y="17"
     inkscape:window-maximized="0" />
  <metadata
     id="metadata7">
    <rdf:RDF>
      <cc:Work
         rdf:about="">
        <dc:format>image/svg+xml</dc:format>
        <dc:type
           rdf:resource="http://purl.org/dc/dcmitype/StillImage" />
        <dc:title></dc:title>
      </cc:Work>
    </rdf:RDF>
  </metadata>
  <g
     inkscape:label="Layer 1"
     inkscape:groupmode="layer"
     id="layer1"
     transform="translate(0,-1016.3597)">
    <path
       style="fill:#000000"
       d="m 33.420096,1052.8926 c -0.186111,-0.2168 -0.413255,-0.5461 -0.504753,-0.7318 -0.0915,-0.1858 0.04282,-0.085 0.298483,0.2252 0.551548,0.6678 0.620988,0.2602 0.120524,-0.7076 -0.194888,-0.377 -0.313392,-0.7262 -0.263343,-0.7763 0.05005,-0.05 0.328148,0.4154 0.617991,1.0341 0.608435,1.2991 1.08599,1.545 0.545167,0.2809 -0.627573,-1.4671 -0.592279,-1.5599 0.106939,-0.2815 0.372515,0.6811 0.682082,1.0551 0.687924,0.8311 0.0058,-0.224 0.111637,-0.3449 0.235102,-0.2686 0.25239,0.156 0.003,-0.5952 -0.557228,-1.6786 -0.378524,-0.732 -0.46192,-1.218 -0.117573,-0.6852 0.194016,0.3002 0.219535,0.3002 0.229692,0 0.0069,-0.2038 0.138221,-0.1146 0.331326,0.2252 0.175943,0.3096 0.266846,0.7402 0.202008,0.9569 -0.06484,0.2167 -0.0097,0.394 0.122439,0.394 0.389031,0 0.275175,0.7994 -0.171424,1.2036 -0.537116,0.486 -1.456425,0.4756 -1.883274,-0.021 z m 1.64704,-2.2348 c -0.265428,-0.4564 -0.329525,-0.3104 -0.112249,0.2559 0.07722,0.2012 0.187824,0.3184 0.245799,0.2605 0.05797,-0.058 -0.002,-0.2904 -0.13355,-0.5164 z m -0.550031,0.9296 c -0.528938,-1.1092 -0.454528,-1.2979 0.09846,-0.2498 0.251155,0.4761 0.416817,0.9055 0.368142,0.9542 -0.04868,0.049 -0.258648,-0.2683 -0.466601,-0.7044 z m -3.08006,-1.5093 c -0.936782,-1.1939 -1.178975,-1.6121 -0.495094,-0.855 0.651022,0.7207 1.455746,1.8119 1.336217,1.8119 -0.04962,0 -0.42813,-0.4307 -0.841123,-0.9569 z m 1.125848,0.056 c -0.132551,-0.2477 -0.190342,-0.4503 -0.128425,-0.4503 0.06192,0 0.221032,0.2026 0.353583,0.4503 0.132551,0.2477 0.190344,0.4503 0.128426,0.4503 -0.06192,0 -0.221032,-0.2026 -0.353584,-0.4503 z m 0.632914,-0.752 c -0.332114,-0.2675 -0.997549,-0.7512 -1.47874,-1.0748 -0.481194,-0.3236 -1.054159,-0.9661 -1.273255,-1.4278 -0.389439,-0.8207 -0.387823,-0.8493 0.0723,-1.278 0.258864,-0.2412 0.47066,-0.5925 0.47066,-0.7807 0,-0.2014 0.107006,-0.2762 0.259949,-0.1816 0.157412,0.097 0.198974,0.062 0.10537,-0.09 -0.201676,-0.3263 -0.815638,-0.087 -0.815638,0.3172 0,0.3891 -0.260394,0.4013 -0.680762,0.032 -0.17628,-0.1548 -0.139282,-0.063 0.08221,0.2028 0.262288,0.3153 0.319425,0.5357 0.163853,0.6318 -0.133014,0.082 -0.347009,-0.1324 -0.482891,-0.4842 -0.582843,-1.5093 -1.4357,-3.0434 -1.891006,-3.4015 -0.270726,-0.213 -0.450355,-0.5128 -0.399171,-0.6663 0.170057,-0.5102 -0.223248,-0.289 -0.904753,0.5088 -0.370232,0.4335 -0.763588,0.7881 -0.874127,0.7881 -0.110539,0 -0.602243,0.2533 -1.09267,0.5629 -0.49043,0.3096 -0.969698,0.5598 -1.065036,0.5561 -0.09534,0 0.01614,-0.117 0.247699,-0.2515 0.339966,-0.1976 0.361645,-0.2822 0.112582,-0.44 -0.226079,-0.1432 -0.169199,-0.1964 0.212944,-0.1989 0.772158,-0.01 1.356845,-0.3732 2.855986,-1.7982 0.74303,-0.7062 1.502944,-1.3365 1.688699,-1.4007 0.267378,-0.092 0.222326,-0.2116 -0.216265,-0.5725 l -0.554007,-0.4559 -0.796951,0.4954 c -1.234322,0.7672 -1.359853,0.8348 -1.359853,0.732 0,-0.053 0.405287,-0.3641 0.900638,-0.692 0.495354,-0.3278 0.90064,-0.6918 0.90064,-0.8089 0,-0.1172 -0.405942,-0.3345 -0.902092,-0.4832 -0.496148,-0.1486 -0.855947,-0.3164 -0.799553,-0.3728 0.0564,-0.056 0.399484,0 0.76242,0.1275 0.526985,0.1837 0.742211,0.1549 1.068672,-0.1428 0.383434,-0.3498 0.390172,-0.3482 0.108597,0.026 -0.256061,0.3396 -0.237771,0.4671 0.12438,0.8673 1.194479,1.3199 2.951965,1.4446 5.341409,0.3787 1.590304,-0.7093 1.66726,-0.7202 5.272706,-0.7436 l 3.658844,-0.023 0,1.76 c 0,1.699 -0.02539,1.783 -0.731771,2.4257 -0.782855,0.7121 -1.103823,0.8423 -1.01322,0.4109 0.09436,-0.4495 -0.615735,-0.4521 -1.933599,-0.01 -0.689656,0.2328 -1.202008,0.3393 -1.138554,0.2367 0.06345,-0.1027 -0.002,-0.1867 -0.145597,-0.1867 -0.338801,0 -1.892131,1.5511 -1.722851,1.7204 0.07108,0.071 0.682975,-0.1877 1.359759,-0.5748 0.933559,-0.5342 2.971386,-1.3411 3.455335,-1.3683 0.02385,0 0.0044,0.2002 -0.04336,0.4478 -0.130313,0.6767 0.4371,0.5523 1.105785,-0.2424 0.320603,-0.381 0.581363,-0.5583 0.579466,-0.394 -0.0078,0.673 -1.284596,1.4894 -2.321328,1.484 -0.349837,0 -0.755127,0.1231 -0.900634,0.2774 -0.353577,0.375 1.253665,0.1005 2.162141,-0.3692 l 0.640988,-0.3315 -0.320662,0.612 c -0.315891,0.6029 -0.356136,0.6126 -2.703652,0.6508 -1.50478,0.024 -2.506322,0.141 -2.717652,0.3165 -0.239461,0.1987 -0.55255,0.2176 -1.100559,0.066 -0.54206,-0.1496 -0.76589,-0.1375 -0.76589,0.041 0,0.1392 0.211087,0.2718 0.469083,0.2947 0.257996,0.023 1.000497,0.1118 1.650008,0.1974 0.768509,0.1013 1.28831,0.066 1.488415,-0.1 0.169119,-0.1404 0.701584,-0.2824 1.183254,-0.3157 0.48167,-0.033 1.002409,-0.1399 1.157209,-0.2369 0.545727,-0.3423 0.27386,0.07 -0.28977,0.4391 -0.33909,0.2222 -1.322679,0.4398 -2.420463,0.5357 l -1.849251,0.1615 2.13056,0.032 c 2.064271,0.032 2.146953,0.013 2.657529,-0.5868 0.342364,-0.4023 0.45123,-0.4606 0.31076,-0.1664 -0.472018,0.9887 -2.939942,2.4702 -3.996234,2.3991 -0.384684,-0.026 -0.942129,0.059 -1.238763,0.1873 -0.449237,0.1954 -0.360669,0.2196 0.53018,0.1452 0.588229,-0.049 1.069507,0 1.069507,0.1049 0,0.1069 -0.405287,0.4625 -0.900638,0.7903 -0.495354,0.3278 -0.90064,0.6807 -0.90064,0.7842 0,0.1035 -0.16221,0.1259 -0.360464,0.05 -0.198255,-0.076 -0.426593,-0.032 -0.507418,0.099 -0.09343,0.1511 -0.366902,0.061 -0.750802,-0.2487 z m 1.246182,-0.386 c -0.130575,-0.1306 -0.581459,-0.2784 -1.001961,-0.3284 -0.712586,-0.085 -0.734848,-0.069 -0.327492,0.2374 0.512585,0.3851 1.705188,0.4667 1.329453,0.091 z m -2.082264,-1.5006 c -0.208286,-0.3578 -0.234198,-0.3606 -0.240306,-0.026 -0.0038,0.2066 0.06615,0.5612 0.155372,0.788 0.148145,0.3767 0.16899,0.3789 0.240306,0.026 0.04295,-0.2128 -0.02698,-0.5674 -0.155372,-0.7881 z m 2.886322,0.7571 c -0.0516,-0.044 -0.448445,-0.1454 -0.881876,-0.2248 -0.554439,-0.1018 -0.687936,-0.079 -0.450318,0.077 0.305234,0.2001 1.555499,0.3391 1.332194,0.1481 z m 0.858423,-0.056 c -0.07482,-0.075 -0.269022,-0.083 -0.431557,-0.018 -0.179616,0.072 -0.126267,0.1253 0.136035,0.1361 0.237355,0.01 0.370338,-0.044 0.295522,-0.1182 z m -4.530591,-1.5334 c -0.05568,-0.1345 -0.115656,-0.041 -0.133283,0.2058 -0.02971,0.4176 -0.04685,0.4135 -0.235678,-0.056 -0.207597,-0.5165 -0.668463,-0.7009 -0.668463,-0.2675 0,0.1315 0.177314,0.4756 0.394028,0.7648 0.389655,0.5198 0.39598,0.5204 0.569331,0.062 0.09642,-0.2552 0.129747,-0.5741 0.07406,-0.7085 z m 3.403655,0.2621 c -0.0548,-0.1548 -0.392543,-0.2593 -0.750532,-0.2322 -0.512884,0.039 -0.57928,0 -0.313149,-0.1884 0.274129,-0.1929 0.24867,-0.2184 -0.135163,-0.1354 -0.260096,0.056 -0.716044,-0.085 -1.013219,-0.3132 -0.297173,-0.2285 -0.607345,-0.4177 -0.689264,-0.4205 -0.293929,-0.01 -0.03184,0.747 0.280244,0.8094 0.175461,0.035 0.724308,0.2164 1.219662,0.4029 1.115065,0.4199 1.530788,0.4428 1.401421,0.077 z m 1.413076,-0.1689 c 0.502364,-0.1608 0.472094,-0.1826 -0.281452,-0.2027 -0.464392,-0.012 -0.844349,0.079 -0.844349,0.2027 0,0.2578 0.320954,0.2578 1.125801,0 z m -0.05367,-0.605 c -0.215273,-0.056 -0.62056,-0.059 -0.900641,-0.01 -0.280077,0.054 -0.103945,0.1 0.391406,0.1025 0.495351,0 0.724508,-0.041 0.509235,-0.098 z m -1.747615,-0.2955 c 0,-0.1239 -0.107302,-0.2252 -0.238446,-0.2252 -0.131147,0 -0.166155,-0.117 -0.07779,-0.26 0.09591,-0.1552 0.06213,-0.199 -0.08383,-0.1088 -0.134468,0.083 -0.604799,-0.02 -1.04518,-0.2307 -1.029512,-0.491 -1.328082,-0.1961 -0.512345,0.5061 0.628428,0.5408 1.957591,0.7571 1.957591,0.3186 z m -1.733991,-1.8241 c -0.103196,-0.1032 -0.422424,-0.1263 -0.709392,-0.051 -0.34346,0.09 -0.429798,0.1933 -0.252643,0.3028 0.350798,0.2167 1.206616,-0.01 0.962035,-0.2516 z m -3.301603,-0.5252 c -0.412975,-0.6303 -0.472371,-0.8939 -0.157551,-0.6994 0.130508,0.081 0.131703,-0.1451 0.003,-0.5934 -0.133037,-0.464 -0.122529,-1.0395 0.02928,-1.6032 0.262914,-0.9765 0.18272,-1.1844 -0.374248,-0.9707 -0.301791,0.1158 -0.353377,0.3539 -0.262135,1.2099 0.06249,0.5862 0.18353,1.2684 0.268999,1.5161 0.103469,0.2998 0.04001,0.2622 -0.18992,-0.1126 -0.189921,-0.3096 -0.351984,-1.0189 -0.360138,-1.5762 -0.01191,-0.8144 -0.06084,-0.9341 -0.249429,-0.61 -0.33041,0.5678 0.03423,2.0831 0.788551,3.277 0.339929,0.538 0.675123,0.9211 0.744879,0.8513 0.06975,-0.07 -0.03888,-0.3797 -0.241414,-0.6888 z m 4.362317,0.1406 c 0.003,-0.5476 0.999405,-2.5018 1.733963,-3.4014 0.49424,-0.6051 0.532093,-0.717 0.177694,-0.5249 -0.74458,0.4034 -1.49438,1.2031 -1.792168,1.9113 -0.233898,0.5563 -0.306016,0.602 -0.432049,0.2735 -0.109239,-0.2847 0.132987,-0.6666 0.871548,-1.3743 0.562561,-0.5391 0.902367,-0.98 0.755127,-0.98 -0.147241,0 -0.706292,0.4577 -1.242333,1.0171 -1.179667,1.2311 -1.299263,1.1447 -0.160362,-0.1158 0.916247,-1.0142 0.786364,-1.2248 -0.182751,-0.2964 -0.613576,0.588 -0.914345,0.4653 -0.350061,-0.1427 0.225162,-0.2425 0.225162,-0.2714 0,-0.1442 -0.39596,0.2235 -0.351583,-0.2047 0.05629,-0.5432 0.185754,-0.1542 0.335011,-0.3946 0.331681,-0.5341 -0.0068,-0.2867 -1.32944,1.2136 -1.338846,1.5185 -0.0033,0.1081 0.162516,0.057 0.368549,-0.1125 0.341646,-0.2819 0.349421,-0.2618 0.08838,0.228 -0.22571,0.4235 -0.327985,0.4711 -0.483736,0.2252 -0.10863,-0.1715 -0.197509,-0.2106 -0.197509,-0.087 0,0.1238 0.08567,0.3602 0.190379,0.5254 0.150891,0.2381 0.221325,0.2197 0.33959,-0.089 0.08207,-0.2138 0.199302,-0.3387 0.260521,-0.2775 0.06122,0.061 -0.04186,0.405 -0.22907,0.764 -0.370312,0.71 -0.465361,2.1162 -0.143055,2.1162 0.110056,0 0.265964,-0.3511 0.34646,-0.7802 0.0805,-0.429 0.260976,-0.8509 0.401061,-0.9375 0.176069,-0.1088 0.199196,-0.024 0.07491,0.2735 -0.353953,0.8484 -0.395608,1.4522 -0.122873,1.7808 0.327373,0.3944 0.675556,0.2438 0.678663,-0.2936 z m 1.002735,-0.8361 c 0.46965,-1.4931 1.137777,-2.3457 2.432993,-3.1048 0.52428,-0.3072 1.155755,-0.7889 1.403281,-1.0704 0.492549,-0.5602 0.514978,-0.5591 -0.768981,-0.038 -0.2041,0.083 -0.259949,0.035 -0.155581,-0.1342 0.269408,-0.4359 0.0097,-0.2971 -0.448063,0.2393 -0.424347,0.4974 -0.424121,0.4994 0.02139,0.1915 0.247676,-0.1712 -0.147457,0.2322 -0.878069,0.8964 -1.313191,1.194 -2.386747,3.0193 -2.386747,4.0581 0,0.7698 0.363285,0.2862 0.779778,-1.038 z m 2.270172,-0.4499 c 1.086784,-0.082 2.772157,-0.5861 3.040044,-0.9088 0.386792,-0.4662 -0.615482,-0.2926 -1.746697,0.3023 -1.464802,0.7704 -1.428779,0.5896 0.06057,-0.3041 1.371298,-0.8227 2.879213,-2.1215 2.686674,-2.314 -0.0593,-0.06 -0.332856,0.086 -0.60789,0.3223 -0.377538,0.3248 -0.350293,0.2467 0.111202,-0.3189 0.969561,-1.1881 0.706278,-1.3916 -0.292661,-0.2262 -0.495554,0.5782 -1.541579,1.4094 -2.324497,1.8472 -1.508986,0.8439 -3.30121,2.5838 -3.30121,3.2049 0,0.2417 0.299015,0.035 0.85464,-0.5914 0.595725,-0.6713 1.056155,-0.9782 1.519829,-1.0133 z m 0.807182,1.2273 c 0.24757,-0.1325 0.664091,-0.2821 0.925598,-0.3325 0.261509,-0.05 0.584227,-0.2077 0.717155,-0.3496 0.180318,-0.1924 0.127344,-0.2015 -0.208633,-0.035 -0.247672,0.1222 -0.570097,0.1791 -0.716502,0.1264 -0.26145,-0.094 -1.647669,0.5162 -1.647669,0.7254 0,0.1835 0.460609,0.1172 0.930051,-0.1341 z m -7.88252,-0.5865 c -0.265429,-0.4565 -0.329525,-0.3104 -0.112249,0.2558 0.07721,0.2012 0.187824,0.3184 0.245796,0.2604 0.05798,-0.058 -0.002,-0.2903 -0.133547,-0.5162 z m 2.085315,-1.709 c -0.142392,-0.4762 -0.538114,-0.2968 -0.533236,0.2418 0.003,0.329 0.03403,0.3348 0.228358,0.043 0.15987,-0.24 0.192672,-0.044 0.113437,0.6755 -0.105455,0.9585 -0.100095,0.9707 0.09938,0.2251 0.115966,-0.4334 0.157395,-0.9668 0.09206,-1.1853 z m -0.704412,0.4801 c -0.05478,-0.2095 0.163191,-0.8293 0.484382,-1.3774 0.699737,-1.194 0.743741,-1.509 0.133666,-0.9569 -0.247676,0.2241 -0.450319,0.3287 -0.450319,0.2325 0,-0.096 -0.151981,-0.049 -0.33774,0.1052 -0.185755,0.1542 -0.334515,0.3946 -0.33058,0.5341 0.0039,0.1397 0.155925,0.057 0.33774,-0.1831 0.419746,-0.5549 0.417859,-0.3897 -0.0071,0.6275 -0.185755,0.4445 -0.33774,1.0689 -0.33774,1.3873 0,0.476 0.05406,0.5285 0.30368,0.2954 0.16702,-0.156 0.258855,-0.4552 0.204071,-0.6646 z m -1.480037,-0.936 c -0.02253,-0.5833 -0.0615,-1.0606 -0.08664,-1.0606 -0.183156,0 -0.476968,1.7706 -0.366708,2.2099 0.212857,0.8481 0.502131,0.1148 0.453349,-1.1493 z m -0.360896,0.6093 c 0.01082,-0.2623 0.06416,-0.3156 0.136035,-0.136 0.06504,0.1626 0.05704,0.3568 -0.01776,0.4316 -0.07482,0.074 -0.128037,-0.058 -0.118258,-0.2956 z m 8.694035,-1.0843 c 0.766761,-0.4493 1.602666,-1.1098 1.857565,-1.4678 0.528742,-0.7425 0.606938,-1.0933 0.161284,-0.7234 -0.166191,0.1379 -0.366263,0.1866 -0.444603,0.1083 -0.07834,-0.078 -0.575623,0.2071 -1.105076,0.6343 -0.529458,0.4272 -1.332122,1.0006 -1.783701,1.2742 -0.803776,0.4869 -1.311657,1.0888 -1.616524,1.9159 -0.115381,0.3129 0.05251,0.2509 0.692308,-0.2557 0.464544,-0.3678 1.471982,-1.0364 2.238747,-1.4858 z m -0.606061,-0.069 c 0,-0.1077 0.531943,-0.591 1.18209,-1.0739 0.650147,-0.4829 1.03985,-0.7033 0.866009,-0.4899 -0.479993,0.5894 -2.048099,1.7867 -2.048099,1.5638 z m -7.001922,0.3834 c 0.09453,0 0.15508,-0.2279 0.134551,-0.5066 -0.02052,-0.2787 -0.130248,-0.4657 -0.243822,-0.4158 -0.113573,0.05 -0.172922,0.289 -0.131883,0.5312 0.05175,0.3055 -0.01171,0.3871 -0.207134,0.2663 -0.200524,-0.124 -0.238264,-0.061 -0.130905,0.219 0.08296,0.2161 0.164642,0.5115 0.181507,0.6561 0.01687,0.1447 0.07457,0.035 0.128239,-0.2436 0.05367,-0.2786 0.174921,-0.5066 0.269447,-0.5066 z m 10.588638,0.69 c 0.177042,-0.112 0.337294,-0.4127 0.356112,-0.6681 0.02738,-0.3717 -0.02811,-0.4127 -0.277902,-0.2054 -0.40535,0.3364 -0.80504,1.0851 -0.576901,1.0806 0.09723,0 0.321646,-0.095 0.498691,-0.2071 z m -0.209321,-1.0335 c 0,-0.224 -0.358673,-0.08 -0.900637,0.3621 l -0.562901,0.4589 0.731767,-0.3572 c 0.402476,-0.1964 0.731771,-0.4051 0.731771,-0.4638 z m -6.867371,-1.0075 c 0.488577,-0.5398 0.976409,-0.6109 0.534178,-0.078 -0.273959,0.3302 -0.219615,0.3271 0.479042,-0.027 0.433433,-0.2198 0.945616,-0.5141 1.138185,-0.654 0.192568,-0.1399 0.04442,0.024 -0.329237,0.3649 -0.87225,0.795 -0.397547,0.8123 0.544239,0.02 0.626037,-0.5268 0.666384,-0.625 0.333315,-0.8115 -0.248134,-0.1388 -0.464721,-0.1262 -0.627436,0.036 -0.321872,0.3219 -0.681075,0.3226 -0.482282,0 0.106437,-0.1722 0.0062,-0.1691 -0.329106,0.01 -0.265179,0.142 -0.580923,0.1971 -0.701657,0.1224 -0.223733,-0.1383 -1.347299,0.9237 -1.347299,1.2735 0,0.3303 0.363338,0.2113 0.788058,-0.258 z m 0.900641,-0.6754 c 0.07654,-0.1239 0.240479,-0.2252 0.364316,-0.2252 0.123838,0 0.162538,0.1013 0.086,0.2252 -0.07654,0.1238 -0.240475,0.2251 -0.364313,0.2251 -0.123837,0 -0.162542,-0.1013 -0.08601,-0.2251 z m -5.464163,9.0626 c -0.582921,-0.8418 -0.772405,-1.182 -0.658359,-1.182 0.05277,0 0.364153,0.4053 0.691962,0.9006 0.666226,1.0067 0.637161,1.2502 -0.03361,0.2814 z m -1.740952,-2.5712 -0.675476,-0.665 0.730343,0.4078 c 0.40169,0.2244 0.730989,0.5347 0.731771,0.6894 0.0017,0.3529 0.02192,0.3639 -0.786638,-0.4322 z m 7.828589,-0.1178 c 0.219075,-0.057 0.523038,-0.054 0.675479,0.01 0.152441,0.062 -0.02678,0.1085 -0.398313,0.1038 -0.371516,-0.01 -0.496239,-0.055 -0.277166,-0.1121 z m -13.964193,-1.3502 c 0.216717,-0.056 0.571346,-0.056 0.788062,0 0.216717,0.056 0.0394,0.103 -0.394031,0.103 -0.433433,0 -0.610744,-0.047 -0.394031,-0.103 z m -1.310122,-0.4663 c -0.463737,-0.3746 -0.462752,-0.3777 0.225161,-0.7217 0.473735,-0.2369 0.729039,-0.5578 0.812153,-1.0209 0.109255,-0.6088 0.134664,-0.6266 0.257414,-0.1802 0.0749,0.2724 0.476307,0.7026 0.892,0.956 0.41569,0.2535 0.648517,0.4613 0.517389,0.4617 -0.131127,0 -0.435093,-0.1479 -0.675479,-0.3297 -0.57761,-0.4369 -0.781634,-0.4179 -1.445592,0.1344 -0.542968,0.4518 -0.546405,0.4731 -0.125834,0.7806 0.237804,0.1739 0.337015,0.3117 0.220467,0.3062 -0.116548,-0.01 -0.421503,-0.1794 -0.677679,-0.3864 z m -2.700628,-1.6863 -0.661312,-0.7318 0.731767,0.6613 c 0.68211,0.6164 0.835266,0.8022 0.661316,0.8022 -0.03875,0 -0.368046,-0.3293 -0.731771,-0.7317 z m 5.051538,-0.3378 c -0.280068,-0.3571 -0.272103,-0.3651 0.08501,-0.085 0.216717,0.17 0.394028,0.3473 0.394028,0.394 0,0.1853 -0.184897,0.066 -0.479042,-0.309 z m 1.435973,0.02 c -0.510669,-0.2061 -0.293349,-0.7342 0.450318,-1.0944 0.618117,-0.2994 0.665612,-0.3016 0.30581,-0.014 -0.234281,0.1873 -0.538244,0.3885 -0.675479,0.4471 -0.152637,0.065 -0.07981,0.2432 0.187545,0.4585 0.424733,0.3419 0.303637,0.4334 -0.268194,0.2027 z m -2.889566,-1.0667 c -0.485023,-0.4212 -0.831201,-0.8011 -0.769281,-0.8445 0.06192,-0.043 0.511727,0.3013 0.999575,0.7657 1.107014,1.0537 0.953369,1.1063 -0.230294,0.079 z m -4.354063,0.1838 c 0.01082,-0.2623 0.06416,-0.3156 0.136035,-0.136 0.06504,0.1625 0.05704,0.3567 -0.01776,0.4315 -0.07482,0.075 -0.128037,-0.058 -0.118258,-0.2955 z m 2.060901,-0.7693 c 0,-0.4334 0.04633,-0.6107 0.10297,-0.394 0.05663,0.2167 0.05663,0.5714 0,0.7881 -0.05663,0.2166 -0.10297,0.039 -0.10297,-0.3941 z m -5.512364,0.3012 c 0.154798,-0.062 0.408102,-0.062 0.5629,0 0.154797,0.062 0.02814,0.1135 -0.28145,0.1135 -0.309594,0 -0.436247,-0.051 -0.28145,-0.1135 z m 1.913859,-0.2312 c 0.216716,-0.056 0.571343,-0.056 0.788059,0 0.216717,0.056 0.0394,0.1029 -0.39403,0.1029 -0.433432,0 -0.610746,-0.047 -0.394029,-0.1029 z m 1.325332,-0.1107 c -0.01687,-0.2081 -0.258638,-0.4222 -0.537273,-0.4759 -0.434366,-0.084 -0.418312,-0.102 0.11258,-0.1283 0.373273,-0.018 0.619188,-0.1588 0.619188,-0.3534 0,-0.1793 -0.275274,-0.3645 -0.619188,-0.4166 -0.595511,-0.09 -0.592128,-0.095 0.08849,-0.1275 0.597796,-0.029 0.98102,-0.3568 0.98102,-0.8402 0,-0.052 -0.671001,-0.094 -1.49111,-0.094 -1.38624,0 -1.469648,0.028 -1.185969,0.394 0.290609,0.3753 0.283036,0.3753 -0.15903,0 -0.527175,-0.4475 -1.667088,-0.5322 -1.667088,-0.1238 0,0.2101 -0.06004,0.2101 -0.270192,0 -0.148605,-0.1486 -0.579224,-0.2913 -0.95693,-0.3173 -0.377705,-0.026 0.833092,-0.1019 2.69066,-0.1689 2.531109,-0.091 3.363291,-0.1922 3.321107,-0.4032 -0.03097,-0.1548 0.04503,-0.2814 0.168871,-0.2814 0.276674,0 0.292018,0.2867 0.03074,0.5741 -0.106937,0.1177 -0.310142,0.5599 -0.451567,0.9828 -0.216919,0.6488 -0.196245,0.8424 0.132166,1.2384 0.214115,0.2583 0.245073,0.3429 0.06879,0.188 -0.459648,-0.4036 -0.636154,-0.3504 -0.74702,0.2252 -0.05849,0.3037 -0.10986,0.3551 -0.128239,0.1282 z m -5.087143,-0.3941 c -0.149725,-0.2423 0.290969,-0.5781 0.493211,-0.3758 0.07432,0.074 0.01094,0.1351 -0.140849,0.1351 -0.151786,0 -0.213354,0.1013 -0.136818,0.2251 0.07654,0.1239 0.0885,0.2252 0.02658,0.2252 -0.06191,0 -0.170873,-0.094 -0.242121,-0.2096 z m 10.568099,-0.9268 c -0.22601,-0.5012 -0.55105,-0.9897 -0.722312,-1.0855 -0.46187,-0.2586 0.34664,-1.6077 0.952267,-1.5891 0.425562,0.013 0.42319,0.027 -0.04315,0.2523 -0.271414,0.1311 -0.554114,0.3965 -0.628225,0.5895 -0.13803,0.3597 0.759968,2.2937 1.065019,2.2937 0.09309,0 0.169259,0.1013 0.169259,0.2252 0,0.5177 -0.410021,0.1628 -0.792856,-0.6861 z m -7.355116,0.5323 c 0.162539,-0.065 0.356738,-0.057 0.431557,0.017 0.07481,0.075 -0.05817,0.128 -0.295522,0.1182 -0.262299,-0.011 -0.315651,-0.064 -0.136035,-0.136 z m -1.655055,-0.2827 c 0.07182,-0.1162 -0.251496,-0.2434 -0.71848,-0.2827 -0.816375,-0.068 -0.823058,-0.076 -0.173585,-0.1851 0.405061,-0.069 0.990969,0.044 1.463539,0.2823 l 0.78806,0.3961 -0.745059,0 c -0.409781,2e-4 -0.686294,-0.095 -0.614475,-0.2109 z m 16.726689,-0.6133 c 0.154796,-0.062 0.408101,-0.062 0.562901,0 0.154796,0.062 0.02815,0.1136 -0.281452,0.1136 -0.309593,0 -0.436245,-0.051 -0.281449,-0.1136 z m 13.002975,-0.014 c 0.247676,-0.061 0.6023,-0.2264 0.788059,-0.3679 0.293736,-0.2237 0.297479,-0.2058 0.02871,0.1369 -0.169962,0.2167 -0.524586,0.3822 -0.788058,0.3679 -0.455,-0.025 -0.456441,-0.032 -0.02871,-0.1369 z m -22.853717,-0.4924 c 0.309596,-0.2532 0.664222,-0.4611 0.788062,-0.4619 0.240935,0 -0.166221,0.3101 -0.900641,0.6896 -0.299105,0.1546 -0.261299,0.078 0.112579,-0.2277 z m 11.150165,0.1169 c 0.582134,-0.4257 0.209506,-0.855 -1.369704,-1.578 -0.887063,-0.4061 -1.246562,-0.708 -1.35429,-1.1371 -0.145341,-0.5791 -0.150554,-0.5766 -0.578961,0.2894 -0.237763,0.4805 -0.69634,1.1161 -1.019055,1.4123 -0.43175,0.3964 -0.370238,0.2516 0.23284,-0.5481 0.518324,-0.6873 0.8196,-1.3346 0.8196,-1.761 0,-0.6132 0.03211,-0.6423 0.354025,-0.3203 0.217948,0.2179 0.585758,0.3126 0.956929,0.2461 l 0.602902,-0.1078 -0.619188,0.2637 c -0.657624,0.2801 -0.709117,0.3681 -0.446872,0.7645 0.186976,0.2826 1.491153,0.9884 1.826431,0.9884 0.120906,0 0.266167,-0.1773 0.3228,-0.394 0.06473,-0.2477 0.112673,-0.1689 0.129091,0.2123 0.05364,1.2454 1.854858,1.704 3.465986,0.8827 0.458244,-0.2336 0.77126,-0.3246 0.695601,-0.2022 -0.252506,0.4085 -1.632657,0.8521 -2.651409,0.8521 -0.553941,0 -1.069784,0.1014 -1.14632,0.2252 -0.07654,0.1238 -0.253864,0.2252 -0.394064,0.2252 -0.140197,0 -0.06205,-0.1411 0.173658,-0.3134 z m -21.4163264,-0.4185 -0.4289272,-0.5066 0.5066093,0.429 c 0.4760883,0.4031 0.6091113,0.5843 0.4289273,0.5843 -0.04272,0 -0.2707,-0.228 -0.5066094,-0.5067 z m 18.4844954,-0.1688 c 0.247676,-0.1064 0.6023,-0.1935 0.788058,-0.1935 0.212884,0 0.171266,0.072 -0.112578,0.1935 -0.247675,0.1065 -0.602304,0.1935 -0.788062,0.1935 -0.212884,0 -0.171265,-0.072 0.112582,-0.1935 z m 14.238717,-0.4203 c 0.211487,-0.3685 0.469629,-0.6174 0.573651,-0.5531 0.104021,0.064 0.385387,-0.061 0.62526,-0.2778 0.239873,-0.2171 0.436132,-0.3405 0.436132,-0.2744 0,0.066 -0.454401,0.4927 -1.009779,0.9479 l -1.009786,0.8274 0.384522,-0.67 z m -32.046091,0.248 c -0.469941,-0.3174 -0.454158,-1.0593 0.03253,-1.5289 l 0.479562,-0.4628 0.3929,0.6845 c 0.392179,0.6834 0.392063,0.6839 -0.06311,0.2719 -0.250808,-0.2269 -0.563721,-0.3461 -0.695362,-0.2647 -0.32085,0.1983 -0.303678,0.8676 0.03084,1.2021 0.299797,0.2998 0.201718,0.3539 -0.177362,0.098 z m 29.083179,-0.6734 c -0.23787,-0.3187 -0.304226,-0.5001 -0.147463,-0.4033 0.169958,0.1051 0.571824,-0.031 0.995399,-0.3362 l 0.710361,-0.5125 -0.484132,0.5422 c -0.26627,0.2983 -0.519575,0.7103 -0.562897,0.9158 -0.06409,0.3037 -0.159371,0.2654 -0.511268,-0.206 z m -26.297674,0.2291 c 0.654301,-0.046 1.66752,-0.045 2.251598,0 0.584079,0.046 0.04874,0.084 -1.189637,0.083 -1.238378,0 -1.716261,-0.038 -1.061961,-0.084 z m -4.2115176,-0.6406 c 0.010801,-0.2623 0.064158,-0.3156 0.1360344,-0.136 0.065046,0.1625 0.057045,0.3568 -0.017778,0.4315 -0.074823,0.075 -0.128035,-0.058 -0.1182586,-0.2955 z m 9.6926166,0.019 c 0.199669,-0.2477 0.408368,-0.5974 0.463774,-0.777 0.06353,-0.206 0.15498,-0.2389 0.247602,-0.089 0.08078,0.1307 -0.127923,0.4804 -0.463776,0.777 -0.424515,0.375 -0.499986,0.4021 -0.2476,0.089 z m 14.008729,-0.4428 c 0.143218,-0.3057 0.294168,-0.4577 0.335447,-0.338 0.04128,0.1198 0.547893,0.2321 1.125799,0.2495 l 1.050749,0.032 -1.125802,0.1412 c -0.619189,0.078 -1.242975,0.2155 -1.386193,0.3063 -0.197087,0.125 -0.197087,0.03 0,-0.3906 z m -9.036322,0.015 c 0.15968,-0.1733 0.325801,-0.2814 0.369163,-0.2402 0.133553,0.1269 -0.204925,0.5552 -0.43874,0.5552 -0.121415,0 -0.0901,-0.1417 0.06958,-0.315 z m -14.8381886,-1.3737 c 0.00128,-0.743 0.043301,-1.0198 0.09341,-0.6152 0.050113,0.4047 0.049074,1.0127 -0.00233,1.351 -0.051377,0.3383 -0.092377,0.01 -0.091114,-0.7358 z m 22.2388256,0.8819 c 0.01082,-0.2623 0.06416,-0.3157 0.136032,-0.136 0.06504,0.1625 0.05704,0.3567 -0.01776,0.4315 -0.07482,0.075 -0.128034,-0.058 -0.118259,-0.2955 z m 4.443202,0.2027 c 0.162535,-0.065 0.356734,-0.057 0.431557,0.017 0.07482,0.074 -0.05817,0.128 -0.295522,0.1182 -0.262302,-0.011 -0.315652,-0.064 -0.136035,-0.136 z m -21.235384,-0.3172 c -0.371513,-0.1129 -0.928783,-0.4177 -1.238378,-0.6774 l -0.5629,-0.4722 0.814636,0.4725 c 1.033643,0.5997 1.269706,0.5939 1.39064,-0.034 0.08591,-0.446 0.101243,-0.4345 0.128239,0.096 0.01868,0.3671 0.184643,0.6429 0.424693,0.7057 0.261975,0.068 0.28084,0.1049 0.05629,0.1087 -0.185757,0 -0.641705,-0.087 -1.01322,-0.1993 z m 5.612912,-0.1877 c 0,-0.2415 0.118705,-0.3704 0.283053,-0.3073 0.34835,0.1337 2.547528,-2.0819 2.547528,-2.5665 0,-0.2867 0.0617,-0.2991 0.339453,-0.068 0.28055,0.2328 0.442251,0.179 0.931905,-0.3107 0.556666,-0.5567 2.43308,-1.2863 3.216414,-1.2508 0.194242,0.01 -0.30396,0.2037 -1.107114,0.433 -0.989194,0.2825 -1.637202,0.6223 -2.008728,1.0535 -0.301651,0.3501 -0.669045,0.61 -0.816436,0.5775 -0.403603,-0.089 -2.127815,1.8884 -2.157732,2.4744 -0.01946,0.3813 -0.05235,0.4113 -0.129088,0.1177 -0.125391,-0.4799 -0.263905,-0.4921 -0.735743,-0.065 -0.322113,0.2915 -0.363512,0.2816 -0.363512,-0.087 z m -1.347615,-0.4123 c -0.354552,-0.2759 -0.363984,-0.3152 -0.04971,-0.2071 0.248797,0.086 0.511178,-0.043 0.731771,-0.3576 0.298376,-0.426 0.343901,-0.4375 0.343901,-0.087 0,0.2221 -0.132385,0.5363 -0.294191,0.6981 -0.242146,0.2422 -0.371599,0.2339 -0.731767,-0.047 z m 5.462779,-0.1674 c -0.05548,-0.2476 -0.1828,-0.6529 -0.282932,-0.9006 -0.112526,-0.2784 0.04898,-0.1793 0.422857,0.2594 0.34433,0.404 0.967994,0.8035 1.447771,0.9274 l 0.842859,0.2176 -1.164839,-0.026 c -0.969199,-0.023 -1.18178,-0.1023 -1.265716,-0.477 z m 19.222729,0.2065 c 0.01082,-0.2624 0.06416,-0.3157 0.136034,-0.1361 0.06504,0.1625 0.05704,0.3567 -0.01777,0.4316 -0.07482,0.075 -0.128032,-0.058 -0.118257,-0.2955 z m -31.934172,-0.018 c -0.154797,-0.062 -0.28145,-0.3078 -0.28145,-0.5451 0,-0.2583 -0.158198,-0.4344 -0.394029,-0.4384 -0.357583,-0.01 -0.359956,-0.026 -0.02565,-0.222 0.202608,-0.1184 0.434507,-0.5676 0.515331,-0.9985 0.08083,-0.4308 0.244045,-0.8433 0.362712,-0.9167 0.132881,-0.082 0.129531,0.094 -0.0087,0.4571 -0.290348,0.7637 -0.286504,1.8258 0.0086,2.3772 0.128195,0.2396 0.204186,0.4275 0.16887,0.4177 -0.03532,-0.01 -0.190866,-0.069 -0.345663,-0.1313 z m 5.291255,-0.46 c 0.278635,-0.053 0.734586,-0.053 1.01322,0 0.278634,0.053 0.05066,0.097 -0.506609,0.097 -0.557272,0 -0.785246,-0.044 -0.506611,-0.097 z m 19.532611,-0.083 -1.576117,-0.1291 1.407247,-0.068 c 0.773988,-0.038 1.50857,-0.093 1.632407,-0.1242 0.123838,-0.031 0.927178,-0.069 1.785195,-0.084 1.088166,-0.019 1.667056,-0.1352 1.913857,-0.382 0.194605,-0.1945 0.353823,-0.2488 0.353823,-0.1205 0,0.4384 -0.870091,0.6996 -2.330612,0.6996 -0.802764,0 -1.493348,0.076 -1.534628,0.1688 -0.04128,0.093 -0.784305,0.1108 -1.651172,0.04 z m -20.939859,-0.6589 c 0.224143,-0.2477 0.458195,-0.4503 0.520113,-0.4503 0.06192,0 -0.07081,0.2026 -0.294953,0.4503 -0.224144,0.2476 -0.458195,0.4503 -0.520113,0.4503 -0.06192,0 0.07081,-0.2027 0.294953,-0.4503 z m 12.182483,-0.1909 -0.426464,-0.5972 0.526536,0.5004 c 0.289594,0.2751 0.481504,0.5438 0.426464,0.5971 -0.05504,0.053 -0.291979,-0.172 -0.526536,-0.5003 z m 3.629103,0.2418 c -0.06154,-0.2138 -0.180496,-0.5913 -0.264348,-0.839 -0.08385,-0.2476 0.01181,-0.1667 0.212594,0.1799 0.364683,0.6297 0.488591,0.6458 1.636314,0.2145 0.181383,-0.068 0.235668,0.02 0.150235,0.2418 -0.07357,0.1917 -0.269444,0.2966 -0.435277,0.2329 -0.165832,-0.064 -0.50089,-0.01 -0.744573,0.1214 -0.354312,0.1897 -0.46547,0.1593 -0.554945,-0.1515 z m 12.825288,0.089 c -0.06965,-0.1815 -0.3608,-0.3747 -0.647006,-0.4293 -0.48323,-0.092 -0.486182,-0.1016 -0.04134,-0.1301 0.470182,-0.03 1.161395,0.543 0.931819,0.7726 -0.06427,0.064 -0.173834,-0.032 -0.243477,-0.2132 z m 0.665049,-0.2523 c -0.07128,-0.1858 -0.03144,-0.3377 0.08849,-0.3377 0.119952,0 0.218095,0.1519 0.218095,0.3377 0,0.1858 -0.03982,0.3377 -0.08849,0.3377 -0.04867,0 -0.146811,-0.1519 -0.218094,-0.3377 z m -25.326076,-0.3377 c 0,-0.3097 0.05111,-0.4363 0.113567,-0.2815 0.06246,0.1548 0.06246,0.4081 0,0.5629 -0.06246,0.1548 -0.113567,0.029 -0.113567,-0.2814 z m 18.445327,0.094 c 0.01082,-0.2623 0.06416,-0.3157 0.136034,-0.136 0.06505,0.1625 0.05704,0.3566 -0.01776,0.4315 -0.07482,0.074 -0.128033,-0.058 -0.118258,-0.2955 z m -24.026825,-1.1132 c -0.407004,-1.0066 -0.446602,-1.0367 -1.208846,-0.9177 -0.549837,0.086 -0.685965,0.058 -0.45032,-0.092 0.552701,-0.3524 1.576119,-0.2701 1.576119,0.1266 0,0.192 0.159453,0.6573 0.354341,1.0342 0.194889,0.3769 0.308251,0.7314 0.251918,0.7877 -0.05633,0.056 -0.291779,-0.366 -0.523212,-0.9385 z m 2.446889,0.8575 c 0.03181,-0.097 -0.234577,-0.5586 -0.591969,-1.0264 -0.357393,-0.4677 -0.585016,-0.9152 -0.505827,-0.9944 0.07919,-0.079 0.143979,-0.026 0.143979,0.1186 0,0.5543 0.888136,0.2261 1.57364,-0.5815 0.625503,-0.737 0.655341,-0.7518 0.234547,-0.1167 -0.265173,0.4003 -0.701699,0.8815 -0.970061,1.0695 l -0.487931,0.3417 0.513716,0.5067 0.513716,0.5066 0.592047,-0.6755 c 0.343265,-0.3916 0.526888,-0.5021 0.436987,-0.263 -0.08529,0.2268 -0.155063,0.4522 -0.155063,0.5008 0,0.049 -0.305014,0.2461 -0.677809,0.4389 -0.372795,0.1928 -0.651782,0.2714 -0.619972,0.1747 z m 18.06433,-0.964 c 0.606596,-0.6811 1.148872,-1.289 1.205063,-1.3509 0.05619,-0.062 -0.0049,0.09 -0.135666,0.3378 -0.130811,0.2476 -0.67309,0.8555 -1.205066,1.3509 -0.953508,0.8879 -0.951585,0.8831 0.135669,-0.3378 z m -25.0796866,0.5442 c 0.010801,-0.2624 0.064158,-0.3157 0.1360344,-0.1361 0.065046,0.1626 0.057045,0.3568 -0.017778,0.4316 -0.074823,0.075 -0.128035,-0.058 -0.1182586,-0.2955 z m 32.6481656,0 c 0.01082,-0.2624 0.06416,-0.3157 0.136032,-0.1361 0.06504,0.1626 0.05705,0.3568 -0.01777,0.4316 -0.07482,0.075 -0.128036,-0.058 -0.118257,-0.2955 z m -1.593893,-0.6567 c 0.420095,-0.4334 0.814476,-0.7881 0.876396,-0.7881 0.06191,0 -0.23114,0.3547 -0.651238,0.7881 -0.420099,0.4334 -0.814476,0.7881 -0.876396,0.7881 -0.06191,0 0.23114,-0.3547 0.651238,-0.7881 z m 4.52097,0.6376 c -0.0098,-0.1447 -0.07609,-0.4487 -0.147358,-0.6755 -0.123172,-0.392 -0.11682,-0.3925 0.128516,-0.01 0.141954,0.2214 0.208266,0.5254 0.147357,0.6755 -0.07993,0.197 -0.115686,0.1998 -0.128515,0.01 z m -25.724579,-0.9754 c -0.04724,-0.4953 -0.0072,-0.9006 0.08893,-0.9006 0.09615,0 0.174822,0.4053 0.174822,0.9006 0,0.4953 -0.04002,0.9007 -0.08893,0.9007 -0.04891,0 -0.127582,-0.4054 -0.174823,-0.9007 z m 18.96979,0.5442 c 0.01081,-0.2624 0.06416,-0.3157 0.136031,-0.1361 0.06504,0.1626 0.05704,0.3568 -0.01777,0.4316 -0.07482,0.074 -0.128036,-0.058 -0.118257,-0.2955 z m -7.439033,-0.01 c -0.005,-0.1381 0.193627,-0.5088 0.441302,-0.8236 0.247676,-0.3148 0.450319,-0.6325 0.450319,-0.7059 0,-0.073 -0.531939,-0.139 -1.182086,-0.146 l -1.182089,-0.013 0.788058,-0.2741 c 0.433434,-0.1508 0.820764,-0.1989 0.860735,-0.107 0.03998,0.092 0.435703,0.2352 0.879401,0.3184 l 0.80672,0.1514 -0.593231,0.3108 c -0.326278,0.171 -0.743279,0.5874 -0.926675,0.9253 -0.183392,0.338 -0.337496,0.5015 -0.342454,0.3634 z m -7.853036,-0.8843 c -0.143953,-0.316 -0.254895,-0.8484 -0.246537,-1.1831 0.01082,-0.4325 0.102774,-0.2828 0.317834,0.5172 0.341576,1.2706 0.315452,1.5146 -0.07129,0.6659 z m -11.576012,-0.583 c 0.526311,-0.5503 0.956929,-1.1403 0.956929,-1.3111 0,-0.1707 0.05991,-0.2505 0.133138,-0.1773 0.28495,0.285 -0.183964,1.0323 -1.09438,1.7442 l -0.952616,0.7449 0.956929,-1.0007 z m 32.055094,0.607 c -0.01438,-0.2396 -0.254094,-0.684 -0.532728,-0.9874 l -0.506609,-0.5517 0.519329,0.2705 c 0.597938,0.3114 0.801889,0.7174 0.651631,1.2973 -0.09584,0.37 -0.107895,0.3673 -0.131623,-0.029 z m -33.5589648,-0.014 c 0,-0.1238 0.1448022,-0.4784 0.3217825,-0.788 0.1769793,-0.3096 0.3217813,-0.4615 0.3217813,-0.3377 0,0.1238 -0.144802,0.4784 -0.3217813,0.788 -0.1769803,0.3096 -0.3217825,0.4616 -0.3217825,0.3377 z m 8.1075708,-0.2438 c 0.01082,-0.2623 0.06416,-0.3157 0.136034,-0.1361 0.06504,0.1626 0.05704,0.3568 -0.01777,0.4316 -0.07482,0.074 -0.128036,-0.058 -0.118258,-0.2955 z m 26.253689,-0.4421 c -0.528938,-1.1092 -0.454528,-1.2979 0.09846,-0.2497 0.251156,0.4761 0.416818,0.9054 0.368143,0.9541 -0.04868,0.049 -0.258648,-0.2683 -0.466601,-0.7044 z m -23.723911,0.1793 c -0.07713,-0.2167 -0.190926,-0.4856 -0.252882,-0.5976 -0.06196,-0.1121 -0.0079,-0.1389 0.120117,-0.06 0.234554,0.145 0.554893,1.0516 0.371563,1.0516 -0.05421,0 -0.161673,-0.1773 -0.238798,-0.3941 z m 3.792469,-0.056 c 0,-0.3097 0.05111,-0.4363 0.11357,-0.2815 0.06246,0.1548 0.06246,0.4081 0,0.5629 -0.06246,0.1548 -0.11357,0.029 -0.11357,-0.2814 z m 17.384536,-0.157 c 0.107452,-0.16 0.146831,-0.5447 0.08751,-0.855 -0.128915,-0.6743 -0.043,-0.7174 0.268832,-0.1347 0.174469,0.326 0.135705,0.5318 -0.160948,0.8549 -0.214921,0.234 -0.302849,0.2947 -0.195397,0.1348 z m -13.306636,0 c 0.219077,-0.057 0.52304,-0.053 0.67548,0.01 0.152441,0.062 -0.02682,0.1084 -0.398313,0.1038 -0.371513,-0.01 -0.496239,-0.055 -0.277167,-0.1121 z m 10.747097,-0.01 c 0,-0.1293 0.177311,-0.3741 0.394028,-0.5441 0.364476,-0.2858 0.369254,-0.2752 0.06371,0.1413 -0.181672,0.2477 -0.358986,0.4926 -0.394027,0.5442 -0.03504,0.051 -0.06371,-0.012 -0.06371,-0.1414 z m -20.882004,-0.3971 c 0.03154,-0.2476 0.28085,-0.5487 0.554008,-0.6688 0.450382,-0.1982 0.487625,-0.345 0.399757,-1.5762 -0.106032,-1.4855 0.0049,-1.2957 0.226248,0.3874 0.09698,0.7373 0.24546,1.0696 0.477917,1.0696 0.18548,0 0.285052,0.084 0.221279,0.1876 -0.06377,0.1031 -0.423443,0.1425 -0.799265,0.087 -0.554682,-0.081 -0.726035,-10e-5 -0.910305,0.4316 -0.183323,0.4295 -0.215962,0.4452 -0.169639,0.082 z m 17.51447,0.2251 c -0.01424,-0.3925 0.872779,-1.6887 1.155665,-1.6887 0.166491,0 0.133566,0.109 -0.08514,0.2815 -0.196152,0.1548 -0.515427,0.5855 -0.709499,0.9569 -0.194073,0.3716 -0.356535,0.5742 -0.361029,0.4503 z m -11.248573,-0.5628 c -0.0068,-0.1858 0.08584,-0.4897 0.205887,-0.6755 0.265984,-0.4116 0.265984,-0.056 0,0.5629 -0.127594,0.2969 -0.197725,0.3352 -0.205887,0.1126 z m -13.650837,-0.6573 c 0.201046,-0.3888 0.313346,-0.7914 0.249558,-0.8946 -0.06379,-0.1032 -0.577151,-0.3168 -1.1408015,-0.4745 -0.563651,-0.1579 -1.0727487,-0.3645 -1.1313281,-0.4593 -0.05858,-0.095 0.2064766,-0.3705 0.5890145,-0.6127 0.8084558,-0.5119 1.0836051,-0.3451 -2.7225039,-1.6508 -1.4241352,-0.4886 -2.7360768,-0.9416 -2.9154265,-1.0067 -0.22265,-0.081 -0.017146,-0.323 0.6478514,-0.7632 l 0.9739414,-0.6447 -2.3889384,-0.7727 -2.38893839,-0.7725 2.22456529,-1.6123 c 1.2235113,-0.8867 2.316071,-1.6122 2.4279101,-1.6122 0.1118405,0 0.7863078,0.5196 1.4988195,1.1547 l 1.2954731,1.1546 -0.7267807,0.442 -0.7267807,0.442 2.7383144,1.602 2.7383135,1.6022 -0.668419,0.4232 -0.668418,0.4232 1.177784,0.916 c 0.64778,0.5038 1.299465,1.0099 1.448187,1.1248 0.313391,0.2421 2.972785,-1.7604 4.531108,-3.4119 l 0.9738,-1.0319 -0.748639,0.9607 c -0.411751,0.5284 -1.533882,1.5734 -2.493625,2.3223 -0.959744,0.7488 -1.740914,1.4311 -1.735935,1.5161 0.005,0.085 0.6112,0.6037 1.347155,1.1527 0.735954,0.549 1.30805,1.0283 1.271323,1.0651 -0.03672,0.037 -0.863915,-0.1792 -1.838199,-0.4798 -0.974282,-0.3006 -1.854418,-0.4953 -1.955857,-0.4325 -0.101439,0.062 -0.184435,0.019 -0.184435,-0.098 0,-0.1167 -0.247306,-0.2595 -0.549571,-0.3173 -0.440424,-0.084 -0.602758,0.023 -0.817377,0.5416 -0.147292,0.3555 -0.364303,0.7061 -0.482244,0.779 -0.117942,0.073 -0.04995,-0.1856 0.151099,-0.5743 z m 12.22056,-0.046 c 0.152736,-0.1539 0.334416,-0.2231 0.403742,-0.1537 0.06932,0.069 -0.05564,0.1952 -0.277699,0.2797 -0.320894,0.1222 -0.346759,0.096 -0.126043,-0.126 z m 7.402883,-0.3031 c -0.293063,-0.4472 -0.301191,-0.5318 -0.04151,-0.4321 0.231499,0.089 0.348956,-0.088 0.415035,-0.626 0.06587,-0.5359 0.102448,-0.4126 0.128196,0.4322 0.01983,0.6502 -0.003,1.1821 -0.05065,1.1821 -0.04767,0 -0.250656,-0.2503 -0.451067,-0.5562 z m -9.216794,-0.9074 c 1.65624,-2.0399 1.678268,-2.0727 2.00245,-2.9811 0.189662,-0.5316 0.305737,-0.6745 0.311942,-0.3841 0.01284,0.6013 -1.016523,2.1733 -2.35105,3.5904 l -1.060184,1.1258 1.096842,-1.351 z m 5.85178,1.0883 c -0.260911,-0.2609 -0.163201,-0.9715 0.212388,-1.5448 0.199372,-0.3043 0.303874,-0.706 0.232228,-0.8927 -0.08908,-0.2321 0.01078,-0.3395 0.315804,-0.3395 0.421975,0 0.414382,0.05 -0.14045,0.9291 -0.362084,0.5736 -0.547433,1.1337 -0.484368,1.4636 0.109874,0.5747 0.09552,0.6155 -0.135602,0.3843 z m 6.873739,-0.638 c 0.0046,-0.3715 0.05505,-0.4962 0.11214,-0.2771 0.05709,0.219 0.05333,0.523 -0.0083,0.6755 -0.06167,0.1525 -0.108374,-0.027 -0.103786,-0.3984 z m 8.906203,0.4078 c -0.216717,-0.056 -0.39403,-0.1969 -0.39403,-0.3116 0,-0.3182 0.361714,-0.2491 0.675479,0.129 0.154164,0.1858 0.242561,0.326 0.196439,0.3117 -0.04612,-0.014 -0.26117,-0.072 -0.477888,-0.1291 z m -17.938713,-0.4265 c 0.01082,-0.2623 0.06416,-0.3157 0.136032,-0.136 0.06504,0.1625 0.05704,0.3567 -0.01777,0.4315 -0.07482,0.075 -0.128036,-0.058 -0.118258,-0.2955 z m 15.180507,-0.4385 c -0.371516,-0.3045 -0.802128,-0.5542 -0.956928,-0.5549 -0.154796,0 -0.484092,-0.2037 -0.731767,-0.4513 -0.247676,-0.2477 -0.394793,-0.4504 -0.326924,-0.4504 0.221578,0 2.524834,1.5322 2.679551,1.7826 0.22013,0.3561 0.09097,0.2928 -0.663932,-0.326 z m -24.186898,-0.4622 c 0.0108,-0.2622 0.06416,-0.3156 0.136033,-0.136 0.06504,0.1626 0.05705,0.3567 -0.01778,0.4316 -0.07482,0.074 -0.128035,-0.058 -0.118258,-0.2956 z m 9.285841,-0.9944 c 0,-0.805 0.04087,-1.1342 0.09082,-0.7318 0.04994,0.4025 0.04994,1.0611 0,1.4635 -0.04995,0.4025 -0.09082,0.073 -0.09082,-0.7317 z m 8.256984,0.332 c -0.207225,-0.6278 -0.209387,-0.8859 -0.0091,-1.0846 0.19961,-0.198 0.230315,-0.1753 0.127691,0.095 -0.07431,0.1953 -0.02682,0.64 0.105542,0.9881 0.132355,0.3482 0.197253,0.6763 0.14421,0.7294 -0.05304,0.053 -0.218797,-0.2743 -0.368343,-0.7275 z m 3.259512,-0.3982 c -0.119895,-0.2732 -0.572619,-0.6739 -1.006053,-0.8904 -0.433433,-0.2165 -0.63043,-0.3939 -0.437772,-0.394 0.192655,-3e-4 0.693619,0.2529 1.113252,0.5625 0.419633,0.3096 0.920596,0.5709 1.113251,0.5806 0.303361,0.015 0.305042,0.035 0.01254,0.1464 -0.185758,0.071 -0.391625,0.2102 -0.457485,0.31 -0.06586,0.1 -0.217841,-0.042 -0.33774,-0.3151 z m -24.197511,0.01 c 0,-0.043 0.329297,-0.3192 0.73177,-0.6138 0.45282,-0.3315 0.610082,-0.3859 0.412547,-0.1427 -0.299845,0.3692 -1.144317,0.9275 -1.144317,0.7565 z m 8.579119,-0.4012 c -0.01267,-0.3169 0.13645,-0.7729 0.331391,-1.0133 0.194942,-0.2404 0.280092,-0.2939 0.189229,-0.119 -0.09086,0.175 -0.23999,0.6309 -0.331389,1.0133 -0.152789,0.6391 -0.168041,0.6486 -0.189231,0.119 z m 19.65516,0.1741 c -0.260471,-0.1504 -0.435842,-0.3806 -0.389702,-0.5116 0.161497,-0.4585 -0.997962,-1.2552 -2.094225,-1.439 -0.669973,-0.1124 -0.854894,-0.1941 -0.476167,-0.2103 0.340555,-0.014 0.620742,-0.1531 0.622638,-0.3079 0.0023,-0.179 0.06365,-0.1976 0.168871,-0.051 0.09098,0.1267 0.430203,0.3987 0.753825,0.6043 0.49214,0.3126 2.19853,2.222 1.96356,2.197 -0.04137,-0.01 -0.288325,-0.1309 -0.5488,-0.2814 z m -21.912027,-0.7425 c 0.01082,-0.2623 0.06416,-0.3157 0.136032,-0.1361 0.06505,0.1626 0.05705,0.3567 -0.01776,0.4316 -0.07482,0.075 -0.128034,-0.058 -0.118258,-0.2955 z m 20.429544,0.2027 c 0.162539,-0.065 0.356735,-0.057 0.431554,0.017 0.07482,0.075 -0.05817,0.128 -0.295519,0.1182 -0.262298,-0.01 -0.315651,-0.064 -0.136035,-0.136 z m -10.696395,-0.2966 c 0.05354,-0.1857 -0.06675,-0.5294 -0.267305,-0.7636 -0.346533,-0.4048 -0.34114,-0.4115 0.108619,-0.1355 0.404602,0.2482 0.540334,0.2283 0.935479,-0.137 0.254217,-0.2351 0.725167,-0.6095 1.04656,-0.8319 0.749814,-0.5192 0.739673,-0.7804 -0.03484,-0.8978 -0.514565,-0.078 -0.480894,-0.099 0.199266,-0.1275 0.613543,-0.026 0.915437,-0.1818 1.205838,-0.625 0.288396,-0.4401 0.318696,-0.6336 0.118575,-0.7573 -0.147843,-0.091 0.152883,-0.1662 0.668279,-0.1662 l 0.937089,0 -0.63574,0.3188 c -0.870372,0.4364 -2.375754,2.4055 -2.071541,2.7097 0.158652,0.1587 0.05443,0.1977 -0.330983,0.1241 -0.5529,-0.1057 -0.678224,-0.014 -1.620481,1.1766 -0.215173,0.2721 -0.317624,0.3167 -0.258814,0.1126 z m 3.096931,-0.5156 -0.549153,-0.6716 0.549153,0.3052 c 0.302033,0.1679 1.106421,0.3694 1.78753,0.4479 l 1.238377,0.1428 -1.163324,0.033 c -0.63983,0.018 -1.197098,0.1188 -1.238381,0.2237 -0.04128,0.1047 -0.322169,-0.1117 -0.624202,-0.4811 z m -16.900733,-0.2724 c 0.420099,-0.4335 0.814478,-0.7881 0.876397,-0.7881 0.06192,0 -0.231138,0.3546 -0.651238,0.7881 -0.420099,0.4334 -0.814478,0.788 -0.876397,0.788 -0.06192,0 0.231138,-0.3546 0.651238,-0.788 z m 4.29581,-0.244 c 0.01082,-0.2623 0.06416,-0.3156 0.136035,-0.136 0.06504,0.1625 0.05704,0.3568 -0.01777,0.4316 -0.07482,0.075 -0.128036,-0.058 -0.118257,-0.2956 z m 6.304475,0 c 0.01082,-0.2623 0.06416,-0.3156 0.136034,-0.136 0.06504,0.1625 0.05705,0.3568 -0.01776,0.4316 -0.07482,0.075 -0.128033,-0.058 -0.118258,-0.2956 z m -1.79316,-1.0358 c -0.02259,-0.7238 -0.104677,-0.8413 -0.645083,-0.9231 l -0.619189,-0.094 0.65775,-0.034 c 0.361761,-0.019 0.857784,-0.211 1.102272,-0.4277 0.434279,-0.385 0.437619,-0.3811 0.144911,0.1689 -0.164787,0.3095 -0.370524,0.9175 -0.457189,1.3509 l -0.157581,0.7881 -0.02588,-0.8295 z m -7.567997,0.2653 c 0.150791,-0.2439 1.46279,-0.9748 1.46279,-0.8148 0,0.053 -0.360714,0.3089 -0.801588,0.569 -0.440874,0.2601 -0.738414,0.3708 -0.661202,0.2458 z m 9.800599,-0.5616 c 0,-0.1238 0.09822,-0.3772 0.218261,-0.5629 0.120048,-0.1858 0.218263,-0.2365 0.218263,-0.1126 0,0.1238 -0.09822,0.3771 -0.218263,0.5629 -0.120045,0.1857 -0.218261,0.2364 -0.218261,0.1126 z m 7.535954,-0.3493 c -0.444173,-0.1205 -0.212871,-0.1403 0.67548,-0.058 0.743029,0.069 1.393176,0.1636 1.444776,0.21 0.167529,0.1507 -1.425729,0.036 -2.120256,-0.1522 z M 19.90028,1021.607 c 0.280079,-0.054 0.685369,-0.052 0.900642,0.01 0.215269,0.056 -0.01387,0.1005 -0.509236,0.098 -0.495354,0 -0.671483,-0.048 -0.391406,-0.1024 z m 16.673271,0.01 c 0.162539,-0.065 0.356738,-0.057 0.431558,0.018 0.07482,0.074 -0.05817,0.128 -0.295523,0.1182 -0.262298,-0.011 -0.315651,-0.064 -0.136035,-0.1361 z m -18.420882,-0.2965 c 0.185755,-0.12 0.43906,-0.2182 0.562897,-0.2182 0.123838,0 0.07317,0.098 -0.112579,0.2182 -0.185758,0.1201 -0.439063,0.2183 -0.562901,0.2183 -0.123837,0 -0.07317,-0.098 0.112583,-0.2183 z m 17.080796,-0.2385 -0.531553,-0.4637 0.619188,0.377 c 0.340555,0.2074 0.619189,0.416 0.619189,0.4637 0,0.1758 -0.188117,0.075 -0.706824,-0.377 z m -5.460281,-0.8074 c -0.85258,-0.4618 -3.024117,-0.7635 -3.133832,-0.4354 -0.04469,0.1336 -0.135322,-0.039 -0.201405,-0.3843 -0.107608,-0.5617 -0.08212,-0.5942 0.244189,-0.3116 0.200387,0.1736 0.883493,0.3735 1.518009,0.4444 0.63452,0.071 1.495754,0.3373 1.91386,0.5922 0.884787,0.5394 0.617435,0.6137 -0.340821,0.095 z m -9.143758,0.056 c 0,-0.049 0.157245,-0.1488 0.349432,-0.2226 0.200377,-0.077 0.290754,-0.039 0.211872,0.089 -0.132225,0.2139 -0.561304,0.3164 -0.561304,0.134 z m 3.480545,-0.4292 c -0.171322,-0.3872 -0.390571,-0.4869 -1.003042,-0.4565 -0.782363,0.039 -0.632617,-0.1641 0.339201,-0.4601 0.351902,-0.1072 0.520091,0.014 0.756364,0.5486 0.167113,0.3775 0.263988,0.7263 0.21528,0.775 -0.0487,0.049 -0.187219,-0.1345 -0.307803,-0.407 z m 6.609428,-0.086 c 0.162535,-0.065 0.356734,-0.057 0.431554,0.018 0.07482,0.075 -0.05817,0.128 -0.295519,0.1183 -0.262301,-0.011 -0.315655,-0.064 -0.136035,-0.136 z m -6.090761,-1.1312 c 0.280078,-0.054 0.685364,-0.052 0.900637,0.01 0.215273,0.056 -0.01387,0.1004 -0.509234,0.098 -0.495351,0 -0.671484,-0.048 -0.391403,-0.1024 z"
       id="path3122"
       inkscape:connector-curvature="0" />
  </g>
</svg>
