G04 start of page 2 for group 0 idx 0 *
G04 Title: tdcs v3, component *
G04 Creator: pcb 1.99z *
G04 CreationDate: Wed Aug  8 03:22:40 2012 UTC *
G04 For: nock *
G04 Format: Gerber/RS-274X *
G04 PCB-Dimensions (mil): 2000.00 750.00 *
G04 PCB-Coordinate-Origin: lower left *
%MOIN*%
%FSLAX25Y25*%
%LNTOP*%
%ADD25C,0.0492*%
%ADD24C,0.0472*%
%ADD23C,0.0220*%
%ADD22C,0.0420*%
%ADD21C,0.0200*%
%ADD20C,0.0197*%
%ADD19R,0.0200X0.0200*%
%ADD18R,0.0787X0.0787*%
%ADD17R,0.0295X0.0295*%
%ADD16C,0.0787*%
%ADD15C,0.0360*%
%ADD14C,0.0720*%
%ADD13C,0.0001*%
%ADD12C,0.0250*%
%ADD11C,0.0100*%
G54D11*X119030Y58360D02*X110530Y66860D01*
X80780D01*
G54D12*X96280Y61860D02*X96030Y61610D01*
G54D11*X96280Y51360D02*X96030Y51610D01*
X96339Y56301D02*X96030Y56610D01*
G54D12*X108398D02*X108530Y56742D01*
X108280Y51610D02*X108530Y51860D01*
X108398Y46610D02*X108530Y46742D01*
G54D11*X96030Y46610D02*X108398D01*
X108030Y51360D02*X96280D01*
X108089Y56301D02*X96339D01*
X108530Y61860D02*X96280D01*
G54D12*X75530Y46610D02*Y51610D01*
X75280Y61360D02*X75530Y61610D01*
G54D11*X75380Y51760D02*X75530Y51610D01*
X74579Y55659D02*X75530Y56610D01*
G54D12*X66530Y61360D02*X75280D01*
G54D11*X80780Y66860D02*X75155Y61235D01*
X119030Y57860D02*Y58360D01*
X126030Y54860D02*X129030Y57860D01*
X126030Y42360D02*Y54860D01*
X139030Y30360D02*Y57860D01*
X131130Y42342D02*X131148Y42360D01*
X128601Y30631D02*Y35531D01*
X131130Y38060D01*
Y42342D01*
X128533Y30699D02*X128690D01*
X138530Y20860D01*
X140530D01*
X160130Y40460D01*
X179473D01*
G54D12*X45936Y43454D02*X46030Y43360D01*
G54D11*X45936Y43454D02*X46180Y43210D01*
X35597Y55659D02*X74579D01*
X75530Y51760D02*X56730D01*
X55430Y50460D01*
X35597Y43454D02*X45936D01*
X45980Y43410D02*X51521D01*
X55430Y47719D02*X55271Y47560D01*
Y47401D01*
X51280Y43410D01*
X55430Y50460D02*Y47719D01*
X60389Y47560D02*X64230D01*
X64530Y47860D01*
G54D13*G36*
X115430Y61460D02*Y54260D01*
X122630D01*
Y61460D01*
X115430D01*
G37*
G54D14*X129030Y57860D03*
X139030D03*
G54D15*X118718Y20956D03*
X138403D03*
X128560Y30799D03*
G54D16*X181787Y43875D03*
X162102Y63560D03*
Y53717D03*
Y24190D03*
Y34032D03*
G54D17*X60389Y48052D02*Y47068D01*
X55271Y48052D02*Y47068D01*
G54D18*X34022Y66289D02*X35991D01*
G54D17*X126030Y42852D02*Y41868D01*
X131148Y42852D02*Y41868D01*
X108038Y51860D02*X109022D01*
X108038Y46742D02*X109022D01*
G54D19*X92780Y46610D02*X99280D01*
X92780Y51610D02*X99280D01*
G54D17*X108038Y61860D02*X109022D01*
X108038Y56742D02*X109022D01*
G54D19*X92780Y56610D02*X99280D01*
X92780Y61610D02*X99280D01*
X72280D02*X78780D01*
X72280Y56610D02*X78780D01*
X72280Y51610D02*X78780D01*
X72280Y46610D02*X78780D01*
G54D20*X32054Y55659D02*X39140D01*
X32054Y52510D02*X39140D01*
X32054Y49360D02*X39140D01*
X32054Y46210D02*X39140D01*
X32054Y43454D02*X39140D01*
G54D18*X8432Y66289D02*X10400D01*
X8628Y31250D02*X10597D01*
X34219D02*X36187D01*
G54D15*X139030Y30360D03*
X46030Y43360D03*
X66530Y61360D03*
X64530Y47860D03*
G54D21*G54D22*G54D21*G54D23*G54D24*G54D25*G54D24*G54D25*G54D24*G54D25*M02*
