G04 start of page 14 for group -4079 idx -4079 *
G04 Title: tdcs v3, topsilk *
G04 Creator: pcb 1.99z *
G04 CreationDate: Wed Aug  8 03:22:40 2012 UTC *
G04 For: nock *
G04 Format: Gerber/RS-274X *
G04 PCB-Dimensions (mil): 2000.00 750.00 *
G04 PCB-Coordinate-Origin: lower left *
%MOIN*%
%FSLAX25Y25*%
%LNTOPSILK*%
%ADD144C,0.0100*%
%ADD143C,0.0125*%
%ADD142C,0.0026*%
%ADD141C,0.0077*%
%ADD140C,0.0052*%
%ADD139C,0.0052*%
%ADD138C,0.0026*%
%ADD137C,0.0025*%
%ADD136C,0.0060*%
%ADD135C,0.0080*%
%ADD134C,0.0029*%
%ADD133C,0.0027*%
%ADD132C,0.0040*%
%ADD131C,0.0093*%
%ADD130C,0.0052*%
%ADD129C,0.0068*%
%ADD128C,0.0022*%
%ADD127C,0.0027*%
%ADD126C,0.0088*%
%ADD125C,0.0016*%
%ADD124C,0.0052*%
%ADD123C,0.0027*%
%ADD122C,0.0044*%
%ADD121C,0.0039*%
%ADD120C,0.0025*%
%ADD119C,0.0029*%
%ADD118C,0.0037*%
%ADD117C,0.0081*%
%ADD116C,0.0101*%
%ADD115C,0.0064*%
%ADD114C,0.0039*%
%ADD113C,0.0114*%
%ADD112C,0.0014*%
%ADD111C,0.0093*%
%ADD110C,0.0017*%
%ADD109C,0.0048*%
%ADD108C,0.0027*%
%ADD107C,0.0079*%
%ADD106C,0.0082*%
%ADD105C,0.0029*%
%ADD104C,0.0001*%
G54D104*G36*
X81611Y41808D02*X82609Y41792D01*
X82045Y41683D01*
X81611Y41797D01*
Y41808D01*
G37*
G36*
X81031Y40452D02*X79918Y40962D01*
X79370Y41081D01*
X80293Y41472D01*
X81134Y40864D01*
X81372Y40001D01*
X81031Y40452D01*
G37*
G36*
X77168Y39974D02*X77553Y40224D01*
X77792Y40126D01*
X77168Y39974D01*
G37*
G36*
X74412Y38878D02*X75041Y39117D01*
X74916Y38878D01*
X74287Y38634D01*
X74412Y38878D01*
G37*
G36*
X76354Y38558D02*X77358Y38547D01*
X76788Y38439D01*
X76354Y38553D01*
Y38558D01*
G37*
G36*
X71786Y37381D02*X72659Y38005D01*
X73413Y38287D01*
X72524Y37652D01*
X71786Y37381D01*
G37*
G36*
X75182Y36524D02*X75334Y36676D01*
X75318Y36198D01*
X75182Y36524D01*
G37*
G36*
X74933Y35276D02*X75084Y35428D01*
X75063Y34945D01*
X74933Y35276D01*
G37*
G36*
X77439Y34641D02*X77808Y35770D01*
X78020Y35900D01*
X77651Y34777D01*
X77439Y34641D01*
G37*
G36*
X82675Y38005D02*X82919Y38629D01*
X83163Y38759D01*
X82919Y38130D01*
X82675Y38005D01*
G37*
G36*
X80195Y37674D02*X80054Y38461D01*
X79479Y38705D01*
X78790Y38808D01*
X79522Y38846D01*
X80749Y39318D01*
X81128Y39616D01*
X80906Y39133D01*
X80401Y37631D01*
X80228Y36757D01*
X80195Y37679D01*
Y37674D01*
G37*
G36*
X82186Y36524D02*X82338Y36676D01*
X82322Y36198D01*
X82186Y36524D01*
G37*
G36*
X70413Y36253D02*X71384Y37131D01*
X70663Y36253D01*
X69686Y35379D01*
X70413Y36253D01*
G37*
G36*
X67907Y34196D02*X68721Y34880D01*
X69182Y35037D01*
X68417Y34397D01*
X67907Y34196D01*
G37*
G36*
X66024Y31115D02*X66301Y32108D01*
X65031Y32634D01*
X63773Y33144D01*
X64429Y33827D01*
X64928Y34147D01*
X64836Y34413D01*
X63783Y34842D01*
X61402Y35661D01*
X59264Y36399D01*
X58163Y36779D01*
X58884Y37625D01*
X59969Y38341D01*
X57311Y39198D01*
X54658Y40061D01*
X57132Y41851D01*
X58939Y43116D01*
X59828Y43642D01*
X60409Y43268D01*
X61494Y42361D01*
X62932Y41076D01*
X62123Y40587D01*
X61315Y40094D01*
X67402Y36535D01*
X65916Y35591D01*
X67223Y34576D01*
X68238Y33789D01*
X68834Y33323D01*
X69523Y33551D01*
X70831Y34435D01*
X72399Y35715D01*
X73869Y37115D01*
X74949Y38265D01*
X74119Y37197D01*
X72958Y36003D01*
X71346Y34614D01*
X69979Y33496D01*
X69420Y32932D01*
X69860Y32487D01*
X70918Y31652D01*
X71943Y30849D01*
X72328Y30469D01*
X71699Y30594D01*
X70288Y31001D01*
X68834Y31391D01*
X68113Y31478D01*
X67907Y31587D01*
X67299Y31939D01*
X66388Y31337D01*
X65856Y30474D01*
X66024Y31115D01*
G37*
G36*
X81996Y34137D02*X82099Y34950D01*
Y33323D01*
X81996Y34137D01*
G37*
G36*
X81687Y32032D02*X81839Y32178D01*
X81817Y31701D01*
X81687Y32032D01*
G37*
G36*
X77585Y32509D02*X78654Y33844D01*
X79251Y34636D01*
X79566Y35195D01*
X79810Y35818D01*
X80157Y36247D01*
X79408Y34598D01*
X77542Y32259D01*
X76365Y31006D01*
X77585Y32509D01*
G37*
G36*
X79598Y31163D02*X80049Y31337D01*
X79739Y31022D01*
X79598Y31163D01*
G37*
G36*
X81188Y30382D02*X81416Y31131D01*
X81638Y31250D01*
X81416Y30507D01*
X81188Y30382D01*
G37*
G36*
X74227Y30008D02*X74846Y30751D01*
X75285Y31196D01*
Y32504D01*
X75274Y33610D01*
X75540Y32070D01*
X76072Y30881D01*
X76316Y30675D01*
X75426Y30578D01*
X74417Y30100D01*
X74227Y30008D01*
G37*
G36*
X80960Y29379D02*X81085Y29693D01*
Y29069D01*
X80960Y29379D01*
G37*
G36*
X79457Y28765D02*X79186Y30079D01*
X79539Y29509D01*
X79799Y28256D01*
X79457Y28765D01*
G37*
G36*
X76522Y24355D02*X76837Y24697D01*
X77439Y25006D01*
X78394Y25868D01*
X79278Y26861D01*
X79669Y27550D01*
X80043Y27626D01*
X81079Y27968D01*
X82767Y28912D01*
X84655Y29362D01*
X84454Y29210D01*
X83423Y28879D01*
X81193Y27708D01*
X80282Y27067D01*
X79723Y26774D01*
X78931Y25977D01*
X78209Y25038D01*
X77889Y24317D01*
X77743Y24187D01*
X76924Y24257D01*
X76522Y24355D01*
G37*
G36*
X71683Y33030D02*X71835Y33182D01*
X71813Y32699D01*
X71683Y33030D01*
G37*
G36*
X72220Y26807D02*X71563Y27946D01*
X70999Y29053D01*
X71162Y28917D01*
X71748Y28679D01*
X72909Y29563D01*
X73473Y30203D01*
X73169Y29693D01*
X72090Y28505D01*
X71553Y28125D01*
X72122Y27567D01*
X72692Y27002D01*
X73348Y27751D01*
X73837Y28044D01*
X73663Y27485D01*
X72909Y27002D01*
X72220Y26807D01*
G37*
G36*
X69502Y27756D02*X68976Y28738D01*
X68156Y28776D01*
X67657Y28879D01*
X68758Y29124D01*
X69410Y28738D01*
X69806Y27588D01*
X70082Y26715D01*
X69502Y27756D01*
G37*
G36*
X64923Y28755D02*X65281Y29628D01*
X65639Y30008D01*
X65281Y29129D01*
X64923Y28755D01*
G37*
G36*
X65259Y21436D02*X64782Y22000D01*
X65346Y21523D01*
X65823Y20872D01*
X65259Y21436D01*
G37*
G36*
X66594Y29417D02*X67342Y30301D01*
X67657Y30871D01*
X67809Y31066D01*
X67695Y30279D01*
X66588Y29129D01*
X65530Y28304D01*
X66594Y29417D01*
G37*
G36*
X66968Y24789D02*X66659Y25396D01*
X66219Y25885D01*
X66192Y26129D01*
X66762Y27241D01*
X67169Y28256D01*
X67158Y27751D01*
X67169Y25109D01*
X67353Y24642D01*
X66968Y24789D01*
G37*
G36*
X66008Y21816D02*X65628Y22602D01*
X66046Y23514D01*
X66577Y24029D01*
X67017Y23264D01*
X67332Y22662D01*
X66946Y22966D01*
X66171Y23259D01*
X66209Y21924D01*
X66008Y21816D01*
G37*
G36*
X64424Y27274D02*X64576Y27425D01*
X64559Y26943D01*
X64424Y27274D01*
G37*
G36*
X64234Y25000D02*X64337Y25684D01*
Y24181D01*
X64234Y25000D01*
G37*
G36*
X64424Y23020D02*X64576Y23172D01*
X64559Y22689D01*
X64424Y23020D01*
G37*
G36*
X70283Y24148D02*X68910Y24903D01*
X68286Y25423D01*
X69187Y24897D01*
X70337Y24409D01*
X70733Y24935D01*
X70874Y24832D01*
X71346Y24045D01*
X71411Y23926D01*
X70283Y24148D01*
G37*
G36*
X69106Y22309D02*X71607D01*
X71704Y22244D01*
X70283Y22217D01*
X68905Y22250D01*
X69106Y22309D01*
G37*
G36*
X69024Y19857D02*X68227Y20172D01*
X67516Y20259D01*
X68031Y20378D01*
X69659Y20063D01*
X70538Y19624D01*
X69708D01*
X69024Y19857D01*
G37*
G36*
X70864Y19542D02*X71341Y19521D01*
X71015Y19390D01*
X70864Y19542D01*
G37*
G36*
X67294Y19103D02*X67418Y19499D01*
X67842Y19521D01*
X67684Y19369D01*
X67532Y19119D01*
X67565Y18870D01*
X67294Y19103D01*
G37*
G36*
X72947Y18664D02*X72350Y19195D01*
X72475Y19336D01*
X73164Y19727D01*
X72475Y20193D01*
X72572Y20334D01*
X73663Y21268D01*
X72008Y21371D01*
X70652Y21311D01*
X70690Y20937D01*
X70511D01*
X69366Y21365D01*
X68661Y21072D01*
X68357D01*
X67294Y21425D01*
X67858Y21501D01*
X70283Y21609D01*
X73202Y21789D01*
X73978Y22060D01*
X74162Y22374D01*
X74195Y21734D01*
X73695Y20644D01*
X73842Y19266D01*
X73918Y19060D01*
X73088Y18810D01*
X72947Y18664D01*
G37*
G36*
X71471Y18544D02*X72350D01*
X71911Y18430D01*
X71471Y18544D01*
G37*
G36*
X69350Y18284D02*X69974D01*
X69659Y18159D01*
X69350Y18284D01*
G37*
G36*
X73180Y17763D02*X73332Y17915D01*
X73316Y17437D01*
X73180Y17763D01*
G37*
G36*
X76745Y29319D02*X76462Y29981D01*
X76598Y30051D01*
X76972Y29406D01*
X77010Y28879D01*
X76745Y29319D01*
G37*
G36*
X73934Y29026D02*X74086Y29178D01*
X74065Y28700D01*
X73934Y29026D01*
G37*
G36*
X75372Y28375D02*X75470Y29379D01*
X75665Y28375D01*
X75567Y27377D01*
X75372Y28375D01*
G37*
G36*
X75703Y26628D02*X75828Y26937D01*
Y26313D01*
X75703Y26628D01*
G37*
G36*
X71287Y26129D02*X71862Y26628D01*
X71536Y26129D01*
X70956Y25624D01*
X71287Y26129D01*
G37*
G36*
X72849Y25304D02*X73978D01*
X73413Y25196D01*
X72849Y25304D01*
G37*
G36*
X81096Y25000D02*X80781Y25999D01*
X81248Y25711D01*
X82859Y24680D01*
X83798Y24442D01*
X82501Y24469D01*
X81427Y24588D01*
X81096Y25000D01*
G37*
G36*
X80721Y23476D02*X81128Y23742D01*
X81036Y23384D01*
X80645Y23123D01*
X80721Y23476D01*
G37*
G36*
X81231Y16786D02*X80955Y17329D01*
X81731Y18002D01*
X82306Y18257D01*
X82072Y18018D01*
X81318Y17519D01*
X81530Y17009D01*
X81796Y16662D01*
X81231Y16786D01*
G37*
G36*
X75025Y24816D02*X74971Y25044D01*
X75784Y25440D01*
X76164Y25537D01*
X75839Y24762D01*
X75025Y24816D01*
G37*
G36*
X75193Y22998D02*X75708Y23861D01*
X75985Y23959D01*
X75470Y23096D01*
X75193Y22998D01*
G37*
G36*
X76663Y21099D02*X77542Y21615D01*
X77444Y21393D01*
X76538Y20844D01*
X76663Y21099D01*
G37*
G36*
X79034Y20134D02*X78231Y21338D01*
X78312Y22336D01*
X79295Y23107D01*
X79246Y22825D01*
X78546Y22168D01*
X78953Y20752D01*
X79729Y19624D01*
X79918Y19369D01*
X79636Y19184D01*
X79034Y20134D01*
G37*
G36*
X75470Y18620D02*X75589Y19060D01*
Y18181D01*
X75470Y18620D01*
G37*
G36*
X78020Y17969D02*X77168Y18908D01*
X78275Y18056D01*
X79099Y17150D01*
X78020Y17969D01*
G37*
G36*
X79636Y16808D02*X79729Y16900D01*
X80168Y16461D01*
X79636Y16808D01*
G37*
G36*
X74021Y16434D02*X73289Y17242D01*
X74102Y16510D01*
X74824Y15810D01*
X74835Y15620D01*
X74021Y16434D01*
G37*
G36*
X77021Y14557D02*X76663Y14974D01*
X77271Y15359D01*
X78177Y16493D01*
X78459Y16694D01*
X79452Y15631D01*
X80027Y15121D01*
X79278Y15484D01*
X78508Y15826D01*
X77672Y15338D01*
X77200Y14844D01*
X77531Y14470D01*
X77775Y14128D01*
X77021Y14557D01*
G37*
G36*
X78481Y14041D02*X79354D01*
X78915Y13927D01*
X78481Y14041D01*
G37*
G36*
X88376Y40549D02*X88854Y40528D01*
X88528Y40397D01*
X88376Y40549D01*
G37*
G36*
X87324Y40039D02*X85273Y40609D01*
X83841Y40522D01*
X83619Y40951D01*
X83570Y41477D01*
X83890Y41298D01*
X85577Y40804D01*
X87704Y40143D01*
X88279Y39654D01*
X87324Y40039D01*
G37*
G36*
X93390Y39139D02*X92804Y39654D01*
X93487Y39236D01*
X94176Y38721D01*
X93390Y39139D01*
G37*
G36*
X91051Y38395D02*X91800Y38461D01*
X93406Y38227D01*
X92587Y38173D01*
X91051Y38395D01*
G37*
G36*
X89190Y35954D02*X88577Y36697D01*
X89190Y36361D01*
X91176Y35862D01*
X92549Y35704D01*
X91257Y35667D01*
X89885Y35417D01*
X89190Y35954D01*
G37*
G36*
X85751Y35379D02*X85452Y36225D01*
X85176Y36589D01*
X85572Y36377D01*
X86613Y36529D01*
X87774Y37457D01*
X88387Y38124D01*
X87736Y38450D01*
X87959Y38596D01*
X89299Y39291D01*
X89429Y40132D01*
X90172Y40316D01*
X91214D01*
X90503Y39958D01*
X89684Y39334D01*
X88865Y38401D01*
X88284Y37495D01*
X88203Y36947D01*
X87834Y36811D01*
X87096Y36703D01*
X86038Y35504D01*
X85751Y35379D01*
G37*
G36*
X91171Y33768D02*X91165Y34972D01*
X91306Y34864D01*
X91420Y33768D01*
X91583Y32959D01*
X91171Y33768D01*
G37*
G36*
X91724Y32010D02*X91849Y32314D01*
X91838Y31565D01*
X91724Y32010D01*
G37*
G36*
X84085Y31299D02*X84324Y33013D01*
X84579Y34006D01*
X84931Y34386D01*
X85257Y34240D01*
X84774Y33355D01*
X84237Y31728D01*
X84085Y31299D01*
G37*
G36*
X87823Y31500D02*X87780Y31983D01*
X88241Y32677D01*
X88382Y32194D01*
X88328Y30881D01*
X87823Y31500D01*
G37*
G36*
X85490Y29552D02*X86239Y29541D01*
X85794Y29427D01*
X85490Y29552D01*
G37*
G36*
X88181Y27783D02*X88675Y28700D01*
X89174Y29482D01*
X87861Y29644D01*
X86548Y29661D01*
X87422Y29964D01*
X88376Y30084D01*
X89359Y29731D01*
X90254Y29563D01*
X89592Y29216D01*
X88561Y28190D01*
X88181Y27783D01*
G37*
G36*
X94881Y38547D02*X95359Y38526D01*
X95033Y38395D01*
X94881Y38547D01*
G37*
G36*
X97632Y35048D02*X98115Y35032D01*
X97784Y34902D01*
X97632Y35048D01*
G37*
G36*
X99281Y34451D02*X98847Y35015D01*
X98207Y35932D01*
X96520Y36616D01*
X95994Y36849D01*
X96683Y37191D01*
X96873Y37251D01*
X97708Y36578D01*
X98316Y36046D01*
X99097Y35222D01*
X99732Y34462D01*
X99889Y34137D01*
X99281Y34451D01*
G37*
G36*
X98555Y32514D02*X97491Y33133D01*
X96677Y33632D01*
X96314Y34137D01*
X96856Y33871D01*
X97827Y33252D01*
X98788Y32585D01*
X99292Y32156D01*
X99330Y31934D01*
X98555Y32514D01*
G37*
G36*
X97431Y29568D02*X97865Y30171D01*
X97936Y30013D01*
X97502Y29411D01*
X97431Y29568D01*
G37*
G36*
X96449Y27773D02*X96601Y27925D01*
X96580Y27442D01*
X96449Y27773D01*
G37*
G36*
X101620Y31554D02*X101180Y31901D01*
X101935Y31760D01*
X102151Y31413D01*
X101620Y31554D01*
G37*
G36*
X100274Y29552D02*X100372Y30507D01*
X100334Y31109D01*
X100670Y30654D01*
X100491Y29704D01*
X100274Y29552D01*
G37*
G36*
X103101Y29520D02*X102705Y30556D01*
X103215Y29796D01*
X103622Y28733D01*
X103101Y29520D01*
G37*
G36*
X102211Y28738D02*X101620Y29834D01*
X101056Y30447D01*
X101636Y30149D01*
X102358Y28706D01*
X102211Y28738D01*
G37*
G36*
X94795Y34207D02*X93677Y35200D01*
X93189Y35634D01*
X94426Y35010D01*
X95663Y34364D01*
X95679Y34202D01*
X95169Y33860D01*
X94795Y34207D01*
G37*
G36*
X93688Y29758D02*X94203Y30860D01*
X94974Y31636D01*
X94876Y31321D01*
X94089Y30258D01*
X93688Y29758D01*
G37*
G36*
X93997Y12538D02*X94746Y12527D01*
X94301Y12414D01*
X93997Y12538D01*
G37*
G36*
X92299Y18870D02*Y18875D01*
X91426Y18588D01*
X92077Y19499D01*
X92923Y20004D01*
X93704Y20139D01*
X94068Y20150D01*
X94117Y19884D01*
X94605Y20150D01*
X95299Y20188D01*
X95511Y19884D01*
X94930Y19287D01*
X93872Y18642D01*
X94328Y19309D01*
X94692Y19716D01*
X93428Y18989D01*
X92755Y18691D01*
X92896Y18957D01*
X92983Y19363D01*
X92299Y18870D01*
G37*
G36*
X103953Y27295D02*X103790Y28044D01*
X103931Y28055D01*
X104099Y27306D01*
X103953Y27295D01*
G37*
G36*
X103844Y26254D02*X103942Y26628D01*
X104186Y26254D01*
X104088Y25874D01*
X103844Y26254D01*
G37*
G36*
X103106Y25971D02*X102385Y26449D01*
X102341Y26590D01*
X103150Y26275D01*
X103378Y25733D01*
X103106Y25971D01*
G37*
G36*
X102455Y24772D02*X102602Y24924D01*
X102586Y24442D01*
X102455Y24772D01*
G37*
G36*
X101620Y22092D02*X102255Y22705D01*
X102949Y23015D01*
X103432Y23318D01*
X102314Y22266D01*
X101191Y21344D01*
X101620Y22092D01*
G37*
G36*
X102059Y20552D02*X102933Y20964D01*
X102965Y20812D01*
X102092Y20400D01*
X102059Y20552D01*
G37*
G36*
X98929Y28001D02*X99905Y28879D01*
X99178Y28001D01*
X98207Y27127D01*
X98929Y28001D01*
G37*
G36*
X100703Y27274D02*X100855Y27425D01*
X100833Y26943D01*
X100703Y27274D01*
G37*
G36*
X94551Y25396D02*X92804Y25537D01*
X94366Y25613D01*
X96178Y25749D01*
X98164Y25847D01*
X100291Y26270D01*
X100681Y26400D01*
X99992Y25836D01*
X98093Y25624D01*
X96390Y25440D01*
X94551Y25391D01*
Y25396D01*
G37*
G36*
X93878Y23796D02*X94361Y23774D01*
X94030Y23644D01*
X93878Y23796D01*
G37*
G36*
X98327Y22564D02*X98164Y23009D01*
X99265Y23384D01*
X100057Y23953D01*
X99520Y23351D01*
X98891Y22331D01*
X98327Y22564D01*
G37*
G36*
X96200Y26519D02*X96352Y26671D01*
X96330Y26194D01*
X96200Y26519D01*
G37*
G36*
X99933Y17752D02*X99119Y17237D01*
X98305Y16841D01*
X98929Y17351D01*
X99933Y17752D01*
G37*
G36*
X100166Y16602D02*X99612Y16374D01*
X99667Y16835D01*
X100253Y17573D01*
X100562Y17345D01*
X100166Y16602D01*
G37*
G36*
X96178Y17795D02*X96563Y18240D01*
X97491Y18989D01*
X98316Y19553D01*
X98457Y19532D01*
X97111Y18327D01*
X96178Y17795D01*
G37*
G36*
X96851Y17719D02*X95478Y16862D01*
X94366Y16070D01*
X93661Y15587D01*
X93596Y15783D01*
X95391Y17915D01*
X97372Y19331D01*
X98603Y20031D01*
X99097Y20155D01*
X99412Y20221D01*
X98918Y19353D01*
X98093Y18577D01*
X96851Y17719D01*
G37*
G36*
X95565Y15495D02*X93878Y14372D01*
X92928Y13716D01*
X94133Y15403D01*
X96596Y17275D01*
X98001Y18246D01*
X99178Y19331D01*
X100155Y20188D01*
X99504Y19076D01*
X99092Y18528D01*
X99379Y18723D01*
X100052Y19081D01*
X99211Y18056D01*
X97068Y16510D01*
X95804Y15652D01*
X97003Y16173D01*
X98603Y16786D01*
X98945Y16510D01*
X97594Y15907D01*
X95565Y15495D01*
G37*
G36*
X93042Y14996D02*X92435Y13553D01*
X92174Y13846D01*
X92950Y16038D01*
X94827Y18354D01*
X95722Y19201D01*
X95804Y19347D01*
X95430Y19125D01*
X95782Y19564D01*
X96330Y20107D01*
X96276Y19830D01*
X96449Y19678D01*
X97616Y20112D01*
X97307Y19635D01*
X95744Y18447D01*
X94046Y17030D01*
X93042Y14996D01*
G37*
G36*
X96460Y14133D02*X95430Y13987D01*
X96232Y14513D01*
X97258Y14790D01*
X98055Y14931D01*
X98289Y14893D01*
X97491Y14502D01*
X96460Y14133D01*
G37*
G36*
X92294Y27876D02*X93189Y28890D01*
X93634Y29379D01*
X93482Y29004D01*
X92142Y27501D01*
X91366Y26812D01*
X92294Y27876D01*
G37*
G36*
X88854Y26069D02*X88561Y27002D01*
X88800Y26802D01*
X89380Y26243D01*
X90617Y26563D01*
X90780Y26297D01*
X90297Y26037D01*
X89472Y25901D01*
X88854Y26069D01*
G37*
G36*
X88941Y24018D02*X89093Y24170D01*
X89076Y23693D01*
X88941Y24018D01*
G37*
G36*
X90758Y23492D02*X91133Y23866D01*
X92386Y23590D01*
X93552Y23552D01*
X92299Y23394D01*
X90758Y23058D01*
Y23492D01*
G37*
G36*
X89055Y20969D02*X89190Y21723D01*
X87530Y22722D01*
X86027Y23986D01*
X85821Y24431D01*
X85382Y23666D01*
X84253Y22098D01*
X83949Y21908D01*
X84508Y22705D01*
X85420Y24664D01*
X85479Y25234D01*
X85816Y25017D01*
X86879Y24745D01*
X87546Y24865D01*
X86857Y24572D01*
X86228Y24197D01*
X86364Y23720D01*
X87313Y23058D01*
X88393Y22624D01*
X88751Y23064D01*
X88892Y22825D01*
X90167Y21474D01*
X92744Y21843D01*
X93520Y22071D01*
X92364Y21425D01*
X90574Y21121D01*
X89299Y20872D01*
X88859Y20622D01*
X89055Y20969D01*
G37*
G36*
X87612Y20535D02*X88236D01*
X87921Y20410D01*
X87612Y20535D01*
G37*
G36*
X93303Y19624D02*X93704Y19873D01*
X93802Y19624D01*
X93395Y19369D01*
X93303Y19624D01*
G37*
G36*
X84823Y26340D02*X84351Y27002D01*
X84931Y26443D01*
X85409Y25782D01*
X84823Y26340D01*
G37*
G36*
X85794Y21620D02*X86673Y21837D01*
X86548Y21620D01*
X85669Y21409D01*
X85794Y21620D01*
G37*
G36*
X85295Y12408D02*X84546Y13146D01*
X85355Y12696D01*
X86168Y11931D01*
X86071Y11692D01*
X85295Y12408D01*
G37*
G36*
X87232Y9554D02*X86570Y10563D01*
X86499Y10867D01*
X87270Y9864D01*
X87801Y8887D01*
X87232Y9554D01*
G37*
G36*
X89326Y10715D02*X89245Y9929D01*
X89017Y9560D01*
X88610Y9999D01*
X88176Y10851D01*
X88458Y11101D01*
X88914Y10553D01*
X89180Y10488D01*
X89326Y10715D01*
G37*
G36*
X88398Y17372D02*X88100Y16808D01*
X87959Y16537D01*
X87758Y17264D01*
X87899Y17508D01*
X88132Y17806D01*
X88279Y18392D01*
X88550Y17931D01*
X88398Y17372D01*
G37*
G36*
X87194Y16515D02*X87346Y16667D01*
X87324Y16184D01*
X87194Y16515D01*
G37*
G36*
X87595Y17193D02*X87449Y15674D01*
X87091Y15913D01*
X87167Y17329D01*
X87498Y18371D01*
X87595Y17193D01*
G37*
G36*
X87704Y14784D02*X87850Y14215D01*
X87579Y14502D01*
X87438Y15072D01*
X87704Y14784D01*
G37*
G36*
X87080Y14226D02*X87351Y13461D01*
X86521Y14405D01*
X85631Y16488D01*
X85648Y18045D01*
X85924Y17367D01*
X86320Y15620D01*
X86532Y15495D01*
X86234Y17177D01*
X86217Y18159D01*
X86526Y18522D01*
X87074Y18479D01*
X86944Y17443D01*
X86912Y15663D01*
X86906Y15001D01*
X87080Y14226D01*
G37*
G36*
X89239Y16152D02*X89011Y15414D01*
X88675Y15739D01*
X89049Y17280D01*
X89402Y18289D01*
X89055Y17980D01*
X88680Y17774D01*
X89049Y18371D01*
X89424Y18484D01*
X89923Y18745D01*
X90395Y18946D01*
X89776Y17682D01*
X89239Y16152D01*
G37*
G36*
X91930Y14068D02*X91686Y13520D01*
X91176Y13743D01*
X91312Y15723D01*
X91225Y16027D01*
X90780Y14985D01*
X90395Y14117D01*
X90183Y15001D01*
X90558Y16466D01*
X90812Y17318D01*
X90520Y17009D01*
X90145Y16911D01*
X89934Y17497D01*
X90151Y17399D01*
X90688Y17649D01*
X90590Y17904D01*
X90183Y17774D01*
X90926Y18870D01*
X91670Y19461D01*
X91301Y18870D01*
X90932Y18338D01*
X91236Y18268D01*
Y18105D01*
X90937Y17530D01*
X91626Y17947D01*
X92511Y18593D01*
X91832Y17616D01*
X90948Y16520D01*
X92006Y17492D01*
X92858Y18289D01*
X93390Y18620D01*
X93259Y18305D01*
X92549Y17530D01*
X91583Y16005D01*
X92060Y16309D01*
X92869Y17503D01*
X94051Y18430D01*
X94306Y18474D01*
X93856Y17850D01*
X92581Y15815D01*
X91930Y14068D01*
G37*
G36*
X91127Y7699D02*X89483Y8892D01*
X88073Y10477D01*
X87753Y11350D01*
X88149Y11898D01*
X88675Y12766D01*
X88962Y12967D01*
X89082Y13065D01*
X88539Y13195D01*
X88176Y12712D01*
X87416Y12679D01*
X87508Y12452D01*
X87687Y11752D01*
X87156Y12289D01*
X86049Y14660D01*
X85051Y16070D01*
X84611Y16808D01*
X84459Y17074D01*
X83602Y16244D01*
X82631Y15370D01*
X81416Y14741D01*
X80233Y14122D01*
X80510Y14405D01*
X80635Y14893D01*
X80873Y15115D01*
X82154Y15528D01*
X84047Y17112D01*
X85214Y18159D01*
X85919Y18669D01*
X85680Y19304D01*
X85067Y19814D01*
X84183Y19260D01*
X82908Y18495D01*
X82669Y18447D01*
X83667Y19217D01*
X84671Y20118D01*
X83667Y20655D01*
X82778Y21067D01*
X83629Y20926D01*
X84812Y21083D01*
X84937Y21056D01*
X85072Y20090D01*
X87541Y18886D01*
X91008Y19667D01*
X92104Y20128D01*
X93097Y20373D01*
X94507Y20470D01*
X96867Y20497D01*
X100931Y20519D01*
Y18566D01*
X100817Y16781D01*
X100117Y15869D01*
X99189Y15170D01*
X98994Y15414D01*
X98506Y15794D01*
X96846Y15425D01*
X95581Y15164D01*
X95419Y15370D01*
X94247Y14486D01*
X93504Y13461D01*
X94008Y13591D01*
X95017Y14095D01*
X97122Y15072D01*
X98853Y15620D01*
X98804Y15121D01*
X99086Y14643D01*
X100036Y15387D01*
X100676Y15826D01*
X99813Y14719D01*
X98099Y14177D01*
X97100Y13868D01*
X97768Y13726D01*
X99499Y14280D01*
X100215Y14649D01*
X99857Y13971D01*
X99200Y13374D01*
X96851Y13244D01*
X94800Y13135D01*
X93834Y12891D01*
X92608Y12820D01*
X91756Y12777D01*
X92283Y12446D01*
X94111Y12229D01*
X95766Y12338D01*
X97084Y12690D01*
X98370Y12951D01*
X98668Y13010D01*
X98045Y12462D01*
X95359Y11871D01*
X93303Y11692D01*
X95668Y11654D01*
X97790Y11719D01*
X98620Y12305D01*
X98967Y12489D01*
X98213Y11605D01*
X96987Y10721D01*
X95641Y10059D01*
X94529Y9826D01*
X93151Y9619D01*
X92885Y9430D01*
X93742Y9457D01*
X94930Y9337D01*
X93927Y8464D01*
X92928Y7590D01*
X92527Y7536D01*
X91963Y7428D01*
X91127Y7699D01*
G37*
G36*
X90020Y16683D02*X89917Y15365D01*
X89733Y14784D01*
X89809Y15620D01*
X89684Y16369D01*
X89429Y16417D01*
X89662Y16976D01*
X90020Y16683D01*
G37*
G36*
X90747Y13640D02*X90460Y13314D01*
X89679Y13363D01*
X89961Y13699D01*
X90747Y13640D01*
G37*
G36*
X92679Y11616D02*X91849Y11388D01*
X90503Y11969D01*
X90015Y12750D01*
X91073Y12533D01*
X92234Y12272D01*
X92326Y12153D01*
X92413Y11866D01*
X92679Y11616D01*
G37*
G36*
X93107Y10428D02*X92847Y10146D01*
X91550Y10515D01*
X90194Y10960D01*
X89787Y11442D01*
X89885Y11860D01*
X90650Y11394D01*
X91778Y11046D01*
X91925Y10894D01*
X92272Y10683D01*
X93107Y10428D01*
G37*
G36*
X90199Y9793D02*X90373Y8920D01*
X90107Y8947D01*
X89934Y9820D01*
X90199Y9793D01*
G37*
G36*
X94616Y11285D02*Y11290D01*
X94051Y11182D01*
X93617Y11296D01*
X94616Y11285D01*
G37*
G36*
X94675Y10612D02*X93428D01*
X94366Y10840D01*
X95039Y10786D01*
X94675Y10612D01*
G37*
G36*
X94361Y9012D02*X94030Y8882D01*
X93878Y9034D01*
X94361Y9012D01*
G37*
G36*
X93406Y8952D02*X92885Y8871D01*
X91925Y9115D01*
X92424Y9202D01*
X93406Y8952D01*
G37*
G36*
X92511Y8128D02*X92142Y7862D01*
X91035Y8225D01*
X90747Y8524D01*
X91398Y8491D01*
X92511Y8128D01*
G37*
G36*
X90427Y6863D02*X90281Y7363D01*
X90677Y6863D01*
X90818Y6359D01*
X90427Y6863D01*
G37*
G36*
X89174Y6923D02*X88219Y8214D01*
X88626Y7873D01*
X89684Y6570D01*
X90107Y5860D01*
X89174Y6923D01*
G37*
G36*
X92597Y5247D02*X92196Y6288D01*
X92706Y5523D01*
X93113Y4465D01*
X92597Y5247D01*
G37*
G36*
X93205Y6277D02*X93357Y5708D01*
X93080Y5995D01*
X92939Y6565D01*
X93205Y6277D01*
G37*
G36*
X91377Y3798D02*X90818Y4612D01*
X91149Y4357D01*
X91653Y4075D01*
X91285Y5144D01*
X90992Y6006D01*
X91675Y4861D01*
X92456Y3635D01*
X92283Y4547D01*
X91784Y5849D01*
X92402Y4861D01*
X92934Y4026D01*
X93167Y3934D01*
X93428Y4232D01*
X93449Y4655D01*
X92809Y6098D01*
X92440Y7010D01*
X92679Y6863D01*
X92934D01*
X93297Y6608D01*
X93525Y5545D01*
X93661Y5111D01*
X93910Y4612D01*
X93471Y3771D01*
X92375Y3380D01*
X91377Y3798D01*
G37*
G54D105*X82184Y41751D02*X81755Y41790D01*
G54D106*X93453Y39194D02*X93475Y39181D01*
G54D107*X91815Y38372D02*X92607Y38257D01*
G54D108*X82991Y38566D02*X82847Y38196D01*
G54D109*X101633Y31677D02*X101810Y31638D01*
G54D110*X97850Y30022D02*X97517Y29560D01*
G54D111*X103126Y29742D02*X103195Y29560D01*
G54D112*X103876Y27979D02*X104010Y27371D01*
G54D113*X99119Y28060D02*X98991Y27944D01*
G54D114*X103999Y26277D02*X104031Y26227D01*
G54D115*X79427Y29479D02*X79563Y28825D01*
G54D116*X75517Y28383D02*X75520Y28369D01*
G54D117*X84877Y26395D02*X84881Y26389D01*
G54D118*X80930Y23462D02*X80836Y23400D01*
G54D119*X75771Y23784D02*X75407Y23173D01*
G54D120*X86490Y21699D02*X85852Y21544D01*
G54D121*X87619Y14737D02*X87666Y14549D01*
G54D122*X90037Y13516D02*X90386Y13492D01*
G54D123*X90093Y9676D02*X90214Y9064D01*
G54D124*X90515Y6908D02*X90586Y6817D01*
G54D125*X102879Y20855D02*X102146Y20509D01*
G54D126*X99021Y17273D02*X99121Y17317D01*
G54D127*X93639Y19677D02*X93463Y19568D01*
G54D128*X93946Y11246D02*X94504Y11281D01*
G54D129*X94517Y10709D02*X94237Y10717D01*
G54D130*X92425Y9095D02*X92895Y8975D01*
G54D131*X92618Y5473D02*X92688Y5289D01*
G54D132*X93121Y6230D02*X93169Y6043D01*
G54D133*X74852Y38949D02*X74476Y38805D01*
G54D134*X76928Y38506D02*X76499Y38543D01*
G54D135*X72713Y37915D02*X72479Y37748D01*
G54D113*X70601Y36312D02*X70472Y36196D01*
G54D136*X71473Y26182D02*X71348Y26073D01*
G54D137*X77875Y35716D02*X77584Y34828D01*
G54D138*X81490Y31068D02*X81339Y30567D01*
G54D139*X68753Y34792D02*X68360Y34463D01*
G54D140*X65361Y29577D02*X65200Y29183D01*
G54D141*X65301Y21460D02*X65304Y21456D01*
G54D142*X77380Y21436D02*X76714Y21039D01*
G54D143*X78089Y18060D02*X78192Y17981D01*
G54D144*X3800Y15050D02*Y12050D01*
Y15050D02*X4300Y15550D01*
X5300D01*
X5800Y15050D01*
Y12050D01*
X5300Y11550D02*X5800Y12050D01*
X4300Y11550D02*X5300D01*
X3800Y12050D02*X4300Y11550D01*
X7500Y13050D02*Y10050D01*
X7000Y13550D02*X7500Y13050D01*
X8000Y13550D01*
X9000D01*
X9500Y13050D01*
Y12050D01*
X9000Y11550D02*X9500Y12050D01*
X8000Y11550D02*X9000D01*
X7500Y12050D02*X8000Y11550D01*
X11200D02*X12700D01*
X10700Y12050D02*X11200Y11550D01*
X10700Y13050D02*Y12050D01*
Y13050D02*X11200Y13550D01*
X12200D01*
X12700Y13050D01*
X10700Y12550D02*X12700D01*
Y13050D02*Y12550D01*
X14400Y13050D02*Y11550D01*
Y13050D02*X14900Y13550D01*
X15400D01*
X15900Y13050D01*
Y11550D01*
X13900Y13550D02*X14400Y13050D01*
X19400Y15550D02*Y12050D01*
X19900Y11550D01*
X18900Y14050D02*X19900D01*
X21400Y15550D02*Y11550D01*
X22700Y15550D02*X23400Y14850D01*
Y12250D01*
X22700Y11550D02*X23400Y12250D01*
X20900Y11550D02*X22700D01*
X20900Y15550D02*X22700D01*
X25300Y11550D02*X26600D01*
X24600Y12250D02*X25300Y11550D01*
X24600Y14850D02*Y12250D01*
Y14850D02*X25300Y15550D01*
X26600D01*
X29800D02*X30300Y15050D01*
X28300Y15550D02*X29800D01*
X27800Y15050D02*X28300Y15550D01*
X27800Y15050D02*Y14050D01*
X28300Y13550D01*
X29800D01*
X30300Y13050D01*
Y12050D01*
X29800Y11550D02*X30300Y12050D01*
X28300Y11550D02*X29800D01*
X27800Y12050D02*X28300Y11550D01*
X31500Y10550D02*X32500Y11550D01*
X35500Y13550D02*X36500Y11550D01*
X37500Y13550D02*X36500Y11550D01*
X38700Y15050D02*X39200Y15550D01*
X40200D01*
X40700Y15050D01*
X40200Y11550D02*X40700Y12050D01*
X39200Y11550D02*X40200D01*
X38700Y12050D02*X39200Y11550D01*
Y13750D02*X40200D01*
X40700Y15050D02*Y14250D01*
Y13250D02*Y12050D01*
Y13250D02*X40200Y13750D01*
X40700Y14250D02*X40200Y13750D01*
X4960Y3000D02*X6260D01*
X4260Y3700D02*X4960Y3000D01*
X4260Y6300D02*Y3700D01*
Y6300D02*X4960Y7000D01*
X6260D01*
X8160Y3000D02*X9460D01*
X7460Y3700D02*X8160Y3000D01*
X7460Y6300D02*Y3700D01*
Y6300D02*X8160Y7000D01*
X9460D01*
X10660Y5000D02*X12660D01*
X13860Y3000D02*X15860D01*
X16360Y3500D01*
Y4700D02*Y3500D01*
X15860Y5200D02*X16360Y4700D01*
X14360Y5200D02*X15860D01*
X14360Y7000D02*Y3000D01*
X13860Y7000D02*X15860D01*
X16360Y6500D01*
Y5700D01*
X15860Y5200D02*X16360Y5700D01*
X17560Y7000D02*X18560Y5000D01*
X19560Y7000D01*
X18560Y5000D02*Y3000D01*
X166900Y14920D02*X167400Y14420D01*
X165400Y14920D02*X166900D01*
X164900Y14420D02*X165400Y14920D01*
X164900Y14420D02*Y13420D01*
X165400Y12920D01*
X166900D01*
X167400Y12420D01*
Y11420D01*
X166900Y10920D02*X167400Y11420D01*
X165400Y10920D02*X166900D01*
X164900Y11420D02*X165400Y10920D01*
X168600Y14920D02*Y10920D01*
Y12420D02*X169100Y12920D01*
X170100D01*
X170600Y12420D01*
Y10920D01*
X173300Y12920D02*X173800Y12420D01*
X172300Y12920D02*X173300D01*
X171800Y12420D02*X172300Y12920D01*
X171800Y12420D02*Y11420D01*
X172300Y10920D01*
X173800Y12920D02*Y11420D01*
X174300Y10920D01*
X172300D02*X173300D01*
X173800Y11420D01*
X175500Y12920D02*Y11420D01*
X176000Y10920D01*
X176500D01*
X177000Y11420D01*
Y12920D02*Y11420D01*
X177500Y10920D01*
X178000D01*
X178500Y11420D01*
Y12920D02*Y11420D01*
X180200Y12420D02*Y10920D01*
Y12420D02*X180700Y12920D01*
X181200D01*
X181700Y12420D01*
Y10920D01*
X179700Y12920D02*X180200Y12420D01*
X184700Y14920D02*Y10920D01*
Y14920D02*X187200Y10920D01*
Y14920D02*Y10920D01*
X188400Y12420D02*Y11420D01*
Y12420D02*X188900Y12920D01*
X189900D01*
X190400Y12420D01*
Y11420D01*
X189900Y10920D02*X190400Y11420D01*
X188900Y10920D02*X189900D01*
X188400Y11420D02*X188900Y10920D01*
X192100Y12920D02*X193600D01*
X191600Y12420D02*X192100Y12920D01*
X191600Y12420D02*Y11420D01*
X192100Y10920D01*
X193600D01*
X194800Y14920D02*Y10920D01*
Y12420D02*X196300Y10920D01*
X194800Y12420D02*X195800Y13420D01*
X155420Y4120D02*Y2620D01*
Y4120D02*X155920Y4620D01*
X156420D01*
X156920Y4120D01*
Y2620D01*
X154920Y4620D02*X155420Y4120D01*
X158120D02*Y3120D01*
Y4120D02*X158620Y4620D01*
X159620D01*
X160120Y4120D01*
Y3120D01*
X159620Y2620D02*X160120Y3120D01*
X158620Y2620D02*X159620D01*
X158120Y3120D02*X158620Y2620D01*
X161820Y4620D02*X163320D01*
X161320Y4120D02*X161820Y4620D01*
X161320Y4120D02*Y3120D01*
X161820Y2620D01*
X163320D01*
X164520Y6620D02*Y2620D01*
Y4120D02*X166020Y2620D01*
X164520Y4120D02*X165520Y5120D01*
X167220Y6620D02*Y3620D01*
X168220Y2620D01*
X171220D01*
X172220Y6620D02*Y4120D01*
Y6620D02*X171220Y7620D01*
X168220D02*X171220D01*
X168220D02*X167220Y6620D01*
X168720Y5620D02*Y4620D01*
X169220Y4120D01*
X170220D01*
X170720Y4620D01*
X171220Y4120D01*
X170720Y6120D02*Y4620D01*
Y5620D02*X170220Y6120D01*
X169220D02*X170220D01*
X169220D02*X168720Y5620D01*
X171220Y4120D02*X172220D01*
X173920D02*Y2620D01*
Y4120D02*X174420Y4620D01*
X174920D01*
X175420Y4120D01*
Y2620D01*
X173420Y4620D02*X173920Y4120D01*
X176620D02*Y3120D01*
Y4120D02*X177120Y4620D01*
X178120D01*
X178620Y4120D01*
Y3120D01*
X178120Y2620D02*X178620Y3120D01*
X177120Y2620D02*X178120D01*
X176620Y3120D02*X177120Y2620D01*
X180320Y4620D02*X181820D01*
X179820Y4120D02*X180320Y4620D01*
X179820Y4120D02*Y3120D01*
X180320Y2620D01*
X181820D01*
X183020Y6620D02*Y2620D01*
Y4120D02*X184520Y2620D01*
X183020Y4120D02*X184020Y5120D01*
X185720Y4120D02*Y3120D01*
Y4120D02*X186220Y4620D01*
X187220D01*
X187720Y4120D01*
Y3120D01*
X187220Y2620D02*X187720Y3120D01*
X186220Y2620D02*X187220D01*
X185720Y3120D02*X186220Y2620D01*
X188920D02*X189420D01*
X191120D02*X192620D01*
X193120Y3120D01*
X192620Y3620D02*X193120Y3120D01*
X191120Y3620D02*X192620D01*
X190620Y4120D02*X191120Y3620D01*
X190620Y4120D02*X191120Y4620D01*
X192620D01*
X193120Y4120D01*
X190620Y3120D02*X191120Y2620D01*
X194820D02*X196320D01*
X194320Y3120D02*X194820Y2620D01*
X194320Y4120D02*Y3120D01*
Y4120D02*X194820Y4620D01*
X195820D01*
X196320Y4120D01*
X194320Y3620D02*X196320D01*
Y4120D02*Y3620D01*
X122030Y50860D02*X136030D01*
X136101Y50789D02*G75*G03X121959Y50789I-7071J7071D01*G01*
X101280Y63610D02*Y44610D01*
X70280Y63610D02*X101280D01*
X70280D02*Y44610D01*
X88280D02*X101280D01*
X70280D02*X83280D01*
X88280D02*G75*G03X83280Y44610I-2500J0D01*G01*
X558Y31250D02*Y66683D01*
X4101D01*
X14731D02*X29691D01*
X558Y31250D02*X4101D01*
X15124D02*X29691D01*
X41109Y66683D02*X40321D01*
X41109Y31250D02*X40321D01*
X41109D02*Y66683D01*
X114870Y34520D02*X142429D01*
Y6961D01*
X114870D01*
Y34520D02*Y6961D01*
X194780Y36001D02*X199504D01*
X194780Y51749D02*Y36001D01*
Y51749D02*X199504D01*
Y36001D02*Y26158D01*
X194780D02*X199504D01*
Y61591D02*Y51749D01*
X195173Y61591D02*X199504D01*
X194780Y26158D02*Y20253D01*
Y67497D02*Y61591D01*
X151473Y67497D02*Y20253D01*
Y67497D02*X158165D01*
X151473Y20253D02*X158165D01*
X166039D02*X194780D01*
X166039Y67497D02*X194780D01*
X138030Y49360D02*Y45860D01*
Y49360D02*X137530Y49860D01*
X136530D02*X137530D01*
X136530D02*X136030Y49360D01*
Y45860D01*
X134830Y46660D02*X134030Y45860D01*
Y49860D02*Y45860D01*
X133330Y49860D02*X134830D01*
X108998Y46010D02*X110998D01*
X111498Y45510D01*
Y44510D01*
X110998Y44010D02*X111498Y44510D01*
X109498Y44010D02*X110998D01*
X109498Y46010D02*Y42010D01*
X110298Y44010D02*X111498Y42010D01*
X112698Y45510D02*X113198Y46010D01*
X114698D01*
X115198Y45510D01*
Y44510D01*
X112698Y42010D02*X115198Y44510D01*
X112698Y42010D02*X115198D01*
X103521Y54892D02*X104821D01*
X102821Y55592D02*X103521Y54892D01*
X102821Y58192D02*Y55592D01*
Y58192D02*X103521Y58892D01*
X104821D01*
X106021Y58392D02*X106521Y58892D01*
X108021D01*
X108521Y58392D01*
Y57392D01*
X106021Y54892D02*X108521Y57392D01*
X106021Y54892D02*X108521D01*
X107121Y48592D02*X108421D01*
X109121Y47892D02*X108421Y48592D01*
X109121Y47892D02*Y45292D01*
X108421Y44592D01*
X107121D02*X108421D01*
X105921Y45392D02*X105121Y44592D01*
Y48592D02*Y44592D01*
X104421Y48592D02*X105921D01*
X87780Y52610D02*Y49110D01*
Y52610D02*X87280Y53110D01*
X86280D02*X87280D01*
X86280D02*X85780Y52610D01*
Y49110D01*
X84580Y49610D02*X84080Y49110D01*
X82580D02*X84080D01*
X82580D02*X82080Y49610D01*
Y50610D02*Y49610D01*
X84580Y53110D02*X82080Y50610D01*
Y53110D02*X84580D01*
X58980Y64410D02*X60280D01*
X60980Y63710D02*X60280Y64410D01*
X60980Y63710D02*Y61110D01*
X60280Y60410D01*
X58980D02*X60280D01*
X57780Y60910D02*X57280Y60410D01*
X56280D02*X57280D01*
X56280D02*X55780Y60910D01*
X56280Y64410D02*X55780Y63910D01*
X56280Y64410D02*X57280D01*
X57780Y63910D02*X57280Y64410D01*
X56280Y62210D02*X57280D01*
X55780Y61710D02*Y60910D01*
Y63910D02*Y62710D01*
X56280Y62210D01*
X55780Y61710D02*X56280Y62210D01*
X21730Y48360D02*X22530D01*
Y44860D01*
X22030Y44360D02*X22530Y44860D01*
X21530Y44360D02*X22030D01*
X21030Y44860D02*X21530Y44360D01*
X21030Y45360D02*Y44860D01*
X23730Y47860D02*X24230Y48360D01*
X25730D01*
X26230Y47860D01*
Y46860D01*
X23730Y44360D02*X26230Y46860D01*
X23730Y44360D02*X26230D01*
X128370Y20020D02*X130370D01*
X130870Y19520D01*
Y18520D01*
X130370Y18020D02*X130870Y18520D01*
X128870Y18020D02*X130370D01*
X128870Y20020D02*Y16020D01*
X129670Y18020D02*X130870Y16020D01*
X132070Y19220D02*X132870Y20020D01*
Y16020D01*
X132070D02*X133570D01*
X170445Y44875D02*X171245D01*
X170445Y48375D02*Y44875D01*
X170945Y48875D02*X170445Y48375D01*
X170945Y48875D02*X171445D01*
X171945Y48375D02*X171445Y48875D01*
X171945Y48375D02*Y47875D01*
X169245Y45675D02*X168445Y44875D01*
Y48875D02*Y44875D01*
X167745Y48875D02*X169245D01*
M02*
