G04 start of page 12 for group -4063 idx -4063 *
G04 Title: tdcs v3, componentmask *
G04 Creator: pcb 1.99z *
G04 CreationDate: Wed Aug  8 03:22:40 2012 UTC *
G04 For: nock *
G04 Format: Gerber/RS-274X *
G04 PCB-Dimensions (mil): 2000.00 750.00 *
G04 PCB-Coordinate-Origin: lower left *
%MOIN*%
%FSLAX25Y25*%
%LNTOPMASK*%
%ADD97C,0.0397*%
%ADD96R,0.0300X0.0300*%
%ADD95R,0.0887X0.0887*%
%ADD94R,0.0355X0.0355*%
%ADD93C,0.0847*%
%ADD92C,0.0660*%
%ADD91C,0.0530*%
%ADD90C,0.0420*%
%ADD89C,0.0780*%
%ADD88C,0.0001*%
G54D88*G36*
X115130Y61760D02*Y53960D01*
X122930D01*
Y61760D01*
X115130D01*
G37*
G54D89*X129030Y57860D03*
X139030D03*
G54D90*X118718Y20956D03*
X138403D03*
X128560Y30799D03*
G54D91*X21227Y58218D03*
Y40895D03*
G54D92*X191630Y63560D03*
Y24190D03*
X181787Y63560D03*
G54D93*Y43875D03*
G54D92*X162102D03*
G54D93*Y63560D03*
Y53717D03*
G54D92*X181787Y24190D03*
G54D93*X162102D03*
Y34032D03*
G54D94*X60389Y48052D02*Y47068D01*
X55271Y48052D02*Y47068D01*
G54D95*X34022Y66289D02*X35991D01*
G54D94*X126030Y42852D02*Y41868D01*
X131148Y42852D02*Y41868D01*
X108038Y51860D02*X109022D01*
X108038Y46742D02*X109022D01*
G54D96*X92780Y46610D02*X99280D01*
X92780Y51610D02*X99280D01*
G54D94*X108038Y61860D02*X109022D01*
X108038Y56742D02*X109022D01*
G54D96*X92780Y56610D02*X99280D01*
X92780Y61610D02*X99280D01*
X72280D02*X78780D01*
X72280Y56610D02*X78780D01*
X72280Y51610D02*X78780D01*
X72280Y46610D02*X78780D01*
G54D97*X32054Y55659D02*X39140D01*
X32054Y52510D02*X39140D01*
X32054Y49360D02*X39140D01*
X32054Y46210D02*X39140D01*
X32054Y43454D02*X39140D01*
G54D95*X8432Y66289D02*X10400D01*
X8628Y31250D02*X10597D01*
X34219D02*X36187D01*
M02*
