G04 start of page 12 for group -4063 idx -4063 *
G04 Title: tdcs v3, componentmask *
G04 Creator: pcb 1.99z *
G04 CreationDate: Wed 08 Aug 2012 05:43:42 PM GMT UTC *
G04 For: nock *
G04 Format: Gerber/RS-274X *
G04 PCB-Dimensions (mil): 2000.00 750.00 *
G04 PCB-Coordinate-Origin: lower left *
%MOIN*%
%FSLAX25Y25*%
%LNTOPMASK*%
%ADD113R,0.0887X0.0887*%
%ADD112C,0.0397*%
%ADD111R,0.0300X0.0300*%
%ADD110R,0.0355X0.0355*%
%ADD109C,0.0847*%
%ADD108C,0.0530*%
%ADD107C,0.0660*%
%ADD106C,0.0420*%
%ADD105C,0.0780*%
%ADD104C,0.0001*%
G54D104*G36*
X115130Y61760D02*Y53960D01*
X122930D01*
Y61760D01*
X115130D01*
G37*
G54D105*X129030Y57860D03*
X139030D03*
G54D106*X118718Y20956D03*
X138403D03*
X128560Y30799D03*
G54D104*G36*
X97060Y24860D02*Y18260D01*
X103660D01*
Y24860D01*
X97060D01*
G37*
G54D107*X85360Y21560D03*
G54D108*X21167Y58268D03*
Y40945D03*
G54D107*X191630Y63560D03*
Y24190D03*
X181787Y63560D03*
G54D109*X162102D03*
Y53718D03*
G54D107*X181787Y24190D03*
G54D109*X162102D03*
Y34032D03*
X181787Y43875D03*
G54D107*X162102D03*
G54D110*X60389Y48052D02*Y47068D01*
X55271Y48052D02*Y47068D01*
G54D111*X92780Y56610D02*X99280D01*
X72280D02*X78780D01*
G54D112*X31994Y55709D02*X39080D01*
X31994Y52560D02*X39080D01*
G54D111*X92780Y61610D02*X99280D01*
X72280D02*X78780D01*
G54D113*X8372Y66339D02*X10340D01*
X33962D02*X35931D01*
G54D112*X31994Y49410D02*X39080D01*
X31994Y46260D02*X39080D01*
X31994Y43504D02*X39080D01*
G54D113*X8568Y31300D02*X10537D01*
X34159D02*X36127D01*
G54D110*X126030Y42852D02*Y41868D01*
X131148Y42852D02*Y41868D01*
X108038Y61860D02*X109022D01*
X108038Y56742D02*X109022D01*
X108038Y51860D02*X109022D01*
X108038Y46742D02*X109022D01*
G54D111*X92780Y46610D02*X99280D01*
X72280D02*X78780D01*
X92780Y51610D02*X99280D01*
X72280D02*X78780D01*
M02*
