G04 start of page 3 for group 1 idx 0 *
G04 Title: tDCS Arduino Shield, solder *
G04 Creator: pcb 1.99z *
G04 CreationDate: Thu Aug 16 20:41:50 2012 UTC *
G04 For: nock *
G04 Format: Gerber/RS-274X *
G04 PCB-Dimensions (mil): 2700.00 2100.00 *
G04 PCB-Coordinate-Origin: lower left *
%MOIN*%
%FSLAX25Y25*%
%LNBOTTOM*%
%ADD38C,0.0420*%
%ADD37C,0.0492*%
%ADD36C,0.0472*%
%ADD35C,0.1250*%
%ADD34C,0.0200*%
%ADD33C,0.0400*%
%ADD32C,0.0720*%
%ADD31C,0.0787*%
%ADD30C,0.1450*%
%ADD29C,0.0600*%
%ADD28C,0.0001*%
%ADD27C,0.0250*%
G54D27*X141500Y163000D02*X157500D01*
X184000Y120500D02*X232000D01*
X160000Y10500D02*X160500Y10000D01*
X170000D02*X216000Y56000D01*
Y120500D01*
X160500Y10000D02*X170000D01*
X180500Y113000D02*X180000Y112500D01*
X170500D01*
X150000Y92000D02*Y9500D01*
X170500Y112500D02*X150000Y92000D01*
X104500Y200000D02*X184000Y120500D01*
G54D28*G36*
X127000Y13000D02*Y7000D01*
X133000D01*
Y13000D01*
X127000D01*
G37*
G54D29*X140000Y10000D03*
X150000D03*
X160000D03*
X170000D03*
X180000D03*
G54D30*X260000Y30000D03*
G54D28*G36*
X197000Y13000D02*Y7000D01*
X203000D01*
Y13000D01*
X197000D01*
G37*
G54D29*X210000Y10000D03*
X220000D03*
X230000D03*
X240000D03*
X250000D03*
G54D28*G36*
X161000Y203000D02*Y197000D01*
X167000D01*
Y203000D01*
X161000D01*
G37*
G36*
X247000D02*Y197000D01*
X253000D01*
Y203000D01*
X247000D01*
G37*
G54D29*X240000Y200000D03*
X230000D03*
X220000D03*
X210000D03*
X200000D03*
X190000D03*
X180000D03*
X154000D03*
X144000D03*
X134000D03*
X124000D03*
X114000D03*
X104000D03*
X94000D03*
G54D30*X60000D03*
X260000Y140000D03*
G54D31*X232157Y81315D03*
Y110843D03*
Y91157D03*
Y120685D03*
G54D32*X175500Y83000D03*
G54D31*X251843Y101000D03*
G54D28*G36*
X171900Y106600D02*Y99400D01*
X179100D01*
Y106600D01*
X171900D01*
G37*
G54D32*X175500Y93000D03*
G54D33*X184500Y120500D03*
X157500Y163000D03*
X180500Y113000D03*
X216000Y56000D03*
G54D34*G54D33*G54D35*G54D33*G54D35*G54D36*G54D37*G54D36*G54D37*G54D36*G54D38*G54D37*G54D38*M02*
