G04 start of page 7 for group -4063 idx -4063 *
G04 Title: tDCS Arduino Shield, componentmask *
G04 Creator: pcb 1.99z *
G04 CreationDate: Thu Aug 16 20:41:50 2012 UTC *
G04 For: nock *
G04 Format: Gerber/RS-274X *
G04 PCB-Dimensions (mil): 2700.00 2100.00 *
G04 PCB-Coordinate-Origin: lower left *
%MOIN*%
%FSLAX25Y25*%
%LNTOPMASK*%
%ADD53R,0.0400X0.0400*%
%ADD52R,0.0355X0.0355*%
%ADD51R,0.0300X0.0300*%
%ADD50C,0.0780*%
%ADD49C,0.0847*%
%ADD48C,0.1510*%
%ADD47C,0.0660*%
%ADD46C,0.0001*%
G54D46*G36*
X126700Y13300D02*Y6700D01*
X133300D01*
Y13300D01*
X126700D01*
G37*
G54D47*X140000Y10000D03*
X150000D03*
X160000D03*
X170000D03*
X180000D03*
G54D48*X260000Y30000D03*
G54D46*G36*
X196700Y13300D02*Y6700D01*
X203300D01*
Y13300D01*
X196700D01*
G37*
G54D47*X210000Y10000D03*
X220000D03*
X230000D03*
X240000D03*
X250000D03*
G54D46*G36*
X160700Y203300D02*Y196700D01*
X167300D01*
Y203300D01*
X160700D01*
G37*
G36*
X246700D02*Y196700D01*
X253300D01*
Y203300D01*
X246700D01*
G37*
G54D47*X240000Y200000D03*
X230000D03*
X220000D03*
X210000D03*
X200000D03*
X190000D03*
X180000D03*
X154000D03*
X144000D03*
X134000D03*
X124000D03*
X114000D03*
X104000D03*
X94000D03*
G54D48*X60000D03*
X260000Y140000D03*
G54D47*X261685Y120685D03*
X232157Y101000D03*
G54D49*Y81315D03*
Y110843D03*
Y91157D03*
G54D47*X261685Y81315D03*
X251843Y120685D03*
G54D49*X232157D03*
G54D47*X251843Y81315D03*
G54D50*X175500Y83000D03*
G54D49*X251843Y101000D03*
G54D46*G36*
X171600Y106900D02*Y99100D01*
X179400D01*
Y106900D01*
X171600D01*
G37*
G54D50*X175500Y93000D03*
G54D51*X190500Y157000D02*Y150500D01*
X185500Y157000D02*Y150500D01*
X180500Y157000D02*Y150500D01*
X175500Y157000D02*Y150500D01*
G54D52*X174441Y163992D02*Y163008D01*
X179559Y163992D02*Y163008D01*
X184941Y163992D02*Y163008D01*
X190059Y163992D02*Y163008D01*
G54D51*X175500Y136500D02*Y130000D01*
X185500Y136500D02*Y130000D01*
X190500Y136500D02*Y130000D01*
X147500Y136500D02*Y130000D01*
X152500Y136500D02*Y130000D01*
X157500Y136500D02*Y130000D01*
X162500Y157000D02*Y150500D01*
X157500Y157000D02*Y150500D01*
X152500Y157000D02*Y150500D01*
X147500Y157000D02*Y150500D01*
X162500Y136500D02*Y130000D01*
G54D52*X157941Y116992D02*Y116008D01*
X163059Y116992D02*Y116008D01*
Y123992D02*Y123008D01*
X157941Y123992D02*Y123008D01*
G54D51*X180500Y136500D02*Y130000D01*
G54D52*X193941Y82992D02*Y82008D01*
X199059Y82992D02*Y82008D01*
G54D53*X203000Y71300D02*Y70700D01*
X195200Y71300D02*Y70700D01*
X199100Y63100D02*Y62500D01*
G54D52*X207941Y82492D02*Y81508D01*
X213059Y82492D02*Y81508D01*
X223059Y49492D02*Y48508D01*
X217941Y49492D02*Y48508D01*
X205441Y49492D02*Y48508D01*
X210559Y49492D02*Y48508D01*
M02*
