G04 start of page 3 for group 1 idx 1 *
G04 Title: tdcs v1, solder *
G04 Creator: pcb 1.99z *
G04 CreationDate: Thu 23 Aug 2012 06:55:56 PM GMT UTC *
G04 For: nock *
G04 Format: Gerber/RS-274X *
G04 PCB-Dimensions (mil): 1500.00 1000.00 *
G04 PCB-Coordinate-Origin: lower left *
%MOIN*%
%FSLAX25Y25*%
%LNBOTTOM*%
%ADD34C,0.0200*%
%ADD33C,0.0300*%
%ADD32C,0.0472*%
%ADD31C,0.0420*%
%ADD30C,0.0520*%
%ADD29C,0.0360*%
%ADD28C,0.0600*%
%ADD27C,0.0787*%
%ADD26C,0.0720*%
%ADD25C,0.0750*%
%ADD24C,0.0001*%
G54D24*G36*
X148937Y90000D02*X150000D01*
Y55000D01*
X148937D01*
Y82388D01*
X148949Y82397D01*
X149004Y82452D01*
X149049Y82517D01*
X149264Y82896D01*
X149439Y83295D01*
X149576Y83709D01*
X149675Y84133D01*
X149735Y84565D01*
X149755Y85000D01*
X149735Y85435D01*
X149675Y85867D01*
X149576Y86291D01*
X149439Y86705D01*
X149264Y87104D01*
X149053Y87486D01*
X149007Y87550D01*
X148951Y87606D01*
X148937Y87617D01*
Y90000D01*
G37*
G36*
X145002D02*X148937D01*
Y87617D01*
X148887Y87653D01*
X148816Y87689D01*
X148741Y87713D01*
X148662Y87726D01*
X148583Y87726D01*
X148505Y87713D01*
X148429Y87689D01*
X148359Y87653D01*
X148295Y87606D01*
X148239Y87550D01*
X148192Y87486D01*
X148156Y87415D01*
X148131Y87340D01*
X148119Y87261D01*
X148119Y87182D01*
X148132Y87104D01*
X148156Y87028D01*
X148193Y86958D01*
X148363Y86659D01*
X148501Y86345D01*
X148609Y86018D01*
X148687Y85684D01*
X148734Y85343D01*
X148750Y85000D01*
X148734Y84657D01*
X148687Y84316D01*
X148609Y83982D01*
X148501Y83655D01*
X148363Y83341D01*
X148197Y83040D01*
X148160Y82970D01*
X148135Y82895D01*
X148123Y82818D01*
X148123Y82739D01*
X148135Y82661D01*
X148160Y82586D01*
X148195Y82516D01*
X148242Y82453D01*
X148297Y82397D01*
X148361Y82351D01*
X148431Y82315D01*
X148506Y82291D01*
X148583Y82278D01*
X148662Y82278D01*
X148740Y82290D01*
X148815Y82315D01*
X148885Y82350D01*
X148937Y82388D01*
Y55000D01*
X145002D01*
Y80245D01*
X145435Y80265D01*
X145867Y80325D01*
X146291Y80424D01*
X146705Y80561D01*
X147104Y80736D01*
X147486Y80947D01*
X147550Y80993D01*
X147606Y81049D01*
X147653Y81113D01*
X147689Y81184D01*
X147713Y81259D01*
X147726Y81338D01*
X147726Y81417D01*
X147713Y81495D01*
X147689Y81571D01*
X147653Y81641D01*
X147606Y81705D01*
X147550Y81761D01*
X147486Y81808D01*
X147415Y81844D01*
X147340Y81869D01*
X147261Y81881D01*
X147182Y81881D01*
X147104Y81868D01*
X147028Y81844D01*
X146958Y81807D01*
X146659Y81637D01*
X146345Y81499D01*
X146018Y81391D01*
X145684Y81313D01*
X145343Y81266D01*
X145002Y81250D01*
Y88750D01*
X145343Y88734D01*
X145684Y88687D01*
X146018Y88609D01*
X146345Y88501D01*
X146659Y88363D01*
X146960Y88197D01*
X147030Y88160D01*
X147105Y88135D01*
X147182Y88123D01*
X147261Y88123D01*
X147339Y88135D01*
X147414Y88160D01*
X147484Y88195D01*
X147547Y88242D01*
X147603Y88297D01*
X147649Y88361D01*
X147685Y88431D01*
X147709Y88506D01*
X147722Y88583D01*
X147722Y88662D01*
X147710Y88740D01*
X147685Y88815D01*
X147650Y88885D01*
X147603Y88949D01*
X147548Y89004D01*
X147483Y89049D01*
X147104Y89264D01*
X146705Y89439D01*
X146291Y89576D01*
X145867Y89675D01*
X145435Y89735D01*
X145002Y89755D01*
Y90000D01*
G37*
G36*
X141063D02*X145002D01*
Y89755D01*
X145000Y89755D01*
X144565Y89735D01*
X144133Y89675D01*
X143709Y89576D01*
X143295Y89439D01*
X142896Y89264D01*
X142514Y89053D01*
X142450Y89007D01*
X142394Y88951D01*
X142347Y88887D01*
X142311Y88816D01*
X142287Y88741D01*
X142274Y88662D01*
X142274Y88583D01*
X142287Y88505D01*
X142311Y88429D01*
X142347Y88359D01*
X142394Y88295D01*
X142450Y88239D01*
X142514Y88192D01*
X142585Y88156D01*
X142660Y88131D01*
X142739Y88119D01*
X142818Y88119D01*
X142896Y88132D01*
X142972Y88156D01*
X143042Y88193D01*
X143341Y88363D01*
X143655Y88501D01*
X143982Y88609D01*
X144316Y88687D01*
X144657Y88734D01*
X145000Y88750D01*
X145002Y88750D01*
Y81250D01*
X145000Y81250D01*
X144657Y81266D01*
X144316Y81313D01*
X143982Y81391D01*
X143655Y81499D01*
X143341Y81637D01*
X143040Y81803D01*
X142970Y81840D01*
X142895Y81865D01*
X142818Y81877D01*
X142739Y81877D01*
X142661Y81865D01*
X142586Y81840D01*
X142516Y81805D01*
X142453Y81758D01*
X142397Y81703D01*
X142351Y81639D01*
X142315Y81569D01*
X142291Y81494D01*
X142278Y81417D01*
X142278Y81338D01*
X142290Y81260D01*
X142315Y81185D01*
X142350Y81115D01*
X142397Y81051D01*
X142452Y80996D01*
X142517Y80951D01*
X142896Y80736D01*
X143295Y80561D01*
X143709Y80424D01*
X144133Y80325D01*
X144565Y80265D01*
X145000Y80245D01*
X145002Y80245D01*
Y55000D01*
X141063D01*
Y82383D01*
X141113Y82347D01*
X141184Y82311D01*
X141259Y82287D01*
X141338Y82274D01*
X141417Y82274D01*
X141495Y82287D01*
X141571Y82311D01*
X141641Y82347D01*
X141705Y82394D01*
X141761Y82450D01*
X141808Y82514D01*
X141844Y82585D01*
X141869Y82660D01*
X141881Y82739D01*
X141881Y82818D01*
X141868Y82896D01*
X141844Y82972D01*
X141807Y83042D01*
X141637Y83341D01*
X141499Y83655D01*
X141391Y83982D01*
X141313Y84316D01*
X141266Y84657D01*
X141250Y85000D01*
X141266Y85343D01*
X141313Y85684D01*
X141391Y86018D01*
X141499Y86345D01*
X141637Y86659D01*
X141803Y86960D01*
X141840Y87030D01*
X141865Y87105D01*
X141877Y87182D01*
X141877Y87261D01*
X141865Y87339D01*
X141840Y87414D01*
X141805Y87484D01*
X141758Y87547D01*
X141703Y87603D01*
X141639Y87649D01*
X141569Y87685D01*
X141494Y87709D01*
X141417Y87722D01*
X141338Y87722D01*
X141260Y87710D01*
X141185Y87685D01*
X141115Y87650D01*
X141063Y87612D01*
Y90000D01*
G37*
G36*
X128937D02*X141063D01*
Y87612D01*
X141051Y87603D01*
X140996Y87548D01*
X140951Y87483D01*
X140736Y87104D01*
X140561Y86705D01*
X140424Y86291D01*
X140325Y85867D01*
X140265Y85435D01*
X140245Y85000D01*
X140265Y84565D01*
X140325Y84133D01*
X140424Y83709D01*
X140561Y83295D01*
X140736Y82896D01*
X140947Y82514D01*
X140993Y82450D01*
X141049Y82394D01*
X141063Y82383D01*
Y55000D01*
X128937D01*
Y82388D01*
X128949Y82397D01*
X129004Y82452D01*
X129049Y82517D01*
X129264Y82896D01*
X129439Y83295D01*
X129576Y83709D01*
X129675Y84133D01*
X129735Y84565D01*
X129755Y85000D01*
X129735Y85435D01*
X129675Y85867D01*
X129576Y86291D01*
X129439Y86705D01*
X129264Y87104D01*
X129053Y87486D01*
X129007Y87550D01*
X128951Y87606D01*
X128937Y87617D01*
Y90000D01*
G37*
G36*
X127853D02*X128937D01*
Y87617D01*
X128887Y87653D01*
X128816Y87689D01*
X128741Y87713D01*
X128662Y87726D01*
X128583Y87726D01*
X128505Y87713D01*
X128429Y87689D01*
X128359Y87653D01*
X128295Y87606D01*
X128239Y87550D01*
X128192Y87486D01*
X128156Y87415D01*
X128131Y87340D01*
X128119Y87261D01*
X128119Y87182D01*
X128132Y87104D01*
X128156Y87028D01*
X128193Y86958D01*
X128363Y86659D01*
X128501Y86345D01*
X128609Y86018D01*
X128687Y85684D01*
X128734Y85343D01*
X128750Y85000D01*
X128734Y84657D01*
X128687Y84316D01*
X128609Y83982D01*
X128501Y83655D01*
X128363Y83341D01*
X128197Y83040D01*
X128160Y82970D01*
X128135Y82895D01*
X128123Y82818D01*
X128123Y82739D01*
X128135Y82661D01*
X128160Y82586D01*
X128195Y82516D01*
X128242Y82453D01*
X128297Y82397D01*
X128361Y82351D01*
X128431Y82315D01*
X128506Y82291D01*
X128583Y82278D01*
X128662Y82278D01*
X128740Y82290D01*
X128815Y82315D01*
X128885Y82350D01*
X128937Y82388D01*
Y55000D01*
X127853D01*
Y59313D01*
X127896Y59320D01*
X128008Y59357D01*
X128113Y59412D01*
X128208Y59482D01*
X128291Y59566D01*
X128359Y59662D01*
X128410Y59768D01*
X128558Y60176D01*
X128662Y60597D01*
X128724Y61027D01*
X128745Y61460D01*
X128724Y61893D01*
X128662Y62323D01*
X128558Y62744D01*
X128415Y63154D01*
X128362Y63260D01*
X128293Y63356D01*
X128210Y63441D01*
X128115Y63511D01*
X128009Y63566D01*
X127897Y63603D01*
X127853Y63611D01*
Y90000D01*
G37*
G36*
X125002D02*X127853D01*
Y63611D01*
X127780Y63623D01*
X127661Y63624D01*
X127544Y63606D01*
X127431Y63570D01*
X127325Y63517D01*
X127228Y63448D01*
X127144Y63365D01*
X127074Y63269D01*
X127019Y63164D01*
X126981Y63052D01*
X126962Y62935D01*
X126961Y62816D01*
X126979Y62699D01*
X127017Y62586D01*
X127116Y62315D01*
X127185Y62035D01*
X127226Y61749D01*
X127240Y61460D01*
X127226Y61171D01*
X127185Y60885D01*
X127116Y60605D01*
X127020Y60332D01*
X126982Y60221D01*
X126965Y60104D01*
X126966Y59986D01*
X126985Y59869D01*
X127022Y59757D01*
X127077Y59653D01*
X127147Y59558D01*
X127231Y59475D01*
X127327Y59406D01*
X127432Y59353D01*
X127545Y59317D01*
X127662Y59300D01*
X127780Y59301D01*
X127853Y59313D01*
Y55000D01*
X125002D01*
Y57023D01*
X125103Y57038D01*
X125524Y57142D01*
X125934Y57285D01*
X126040Y57338D01*
X126137Y57407D01*
X126221Y57490D01*
X126291Y57585D01*
X126346Y57691D01*
X126384Y57803D01*
X126403Y57920D01*
X126404Y58039D01*
X126386Y58156D01*
X126350Y58269D01*
X126297Y58375D01*
X126228Y58472D01*
X126145Y58556D01*
X126049Y58627D01*
X125944Y58681D01*
X125832Y58719D01*
X125715Y58738D01*
X125596Y58739D01*
X125479Y58721D01*
X125367Y58683D01*
X125095Y58584D01*
X125002Y58562D01*
Y64358D01*
X125095Y64336D01*
X125368Y64240D01*
X125480Y64202D01*
X125596Y64185D01*
X125714Y64185D01*
X125831Y64205D01*
X125943Y64242D01*
X126048Y64296D01*
X126143Y64366D01*
X126225Y64451D01*
X126294Y64547D01*
X126347Y64652D01*
X126383Y64765D01*
X126400Y64881D01*
X126399Y64999D01*
X126380Y65116D01*
X126343Y65228D01*
X126288Y65333D01*
X126218Y65428D01*
X126134Y65511D01*
X126038Y65579D01*
X125932Y65630D01*
X125524Y65778D01*
X125103Y65882D01*
X125002Y65897D01*
Y80245D01*
X125435Y80265D01*
X125867Y80325D01*
X126291Y80424D01*
X126705Y80561D01*
X127104Y80736D01*
X127486Y80947D01*
X127550Y80993D01*
X127606Y81049D01*
X127653Y81113D01*
X127689Y81184D01*
X127713Y81259D01*
X127726Y81338D01*
X127726Y81417D01*
X127713Y81495D01*
X127689Y81571D01*
X127653Y81641D01*
X127606Y81705D01*
X127550Y81761D01*
X127486Y81808D01*
X127415Y81844D01*
X127340Y81869D01*
X127261Y81881D01*
X127182Y81881D01*
X127104Y81868D01*
X127028Y81844D01*
X126958Y81807D01*
X126659Y81637D01*
X126345Y81499D01*
X126018Y81391D01*
X125684Y81313D01*
X125343Y81266D01*
X125002Y81250D01*
Y88750D01*
X125343Y88734D01*
X125684Y88687D01*
X126018Y88609D01*
X126345Y88501D01*
X126659Y88363D01*
X126960Y88197D01*
X127030Y88160D01*
X127105Y88135D01*
X127182Y88123D01*
X127261Y88123D01*
X127339Y88135D01*
X127414Y88160D01*
X127484Y88195D01*
X127547Y88242D01*
X127603Y88297D01*
X127649Y88361D01*
X127685Y88431D01*
X127709Y88506D01*
X127722Y88583D01*
X127722Y88662D01*
X127710Y88740D01*
X127685Y88815D01*
X127650Y88885D01*
X127603Y88949D01*
X127548Y89004D01*
X127483Y89049D01*
X127104Y89264D01*
X126705Y89439D01*
X126291Y89576D01*
X125867Y89675D01*
X125435Y89735D01*
X125002Y89755D01*
Y90000D01*
G37*
G36*
X121063D02*X125002D01*
Y89755D01*
X125000Y89755D01*
X124565Y89735D01*
X124133Y89675D01*
X123709Y89576D01*
X123295Y89439D01*
X122896Y89264D01*
X122514Y89053D01*
X122450Y89007D01*
X122394Y88951D01*
X122347Y88887D01*
X122311Y88816D01*
X122287Y88741D01*
X122274Y88662D01*
X122274Y88583D01*
X122287Y88505D01*
X122311Y88429D01*
X122347Y88359D01*
X122394Y88295D01*
X122450Y88239D01*
X122514Y88192D01*
X122585Y88156D01*
X122660Y88131D01*
X122739Y88119D01*
X122818Y88119D01*
X122896Y88132D01*
X122972Y88156D01*
X123042Y88193D01*
X123341Y88363D01*
X123655Y88501D01*
X123982Y88609D01*
X124316Y88687D01*
X124657Y88734D01*
X125000Y88750D01*
X125002Y88750D01*
Y81250D01*
X125000Y81250D01*
X124657Y81266D01*
X124316Y81313D01*
X123982Y81391D01*
X123655Y81499D01*
X123341Y81637D01*
X123040Y81803D01*
X122970Y81840D01*
X122895Y81865D01*
X122818Y81877D01*
X122739Y81877D01*
X122661Y81865D01*
X122586Y81840D01*
X122516Y81805D01*
X122453Y81758D01*
X122397Y81703D01*
X122351Y81639D01*
X122315Y81569D01*
X122291Y81494D01*
X122278Y81417D01*
X122278Y81338D01*
X122290Y81260D01*
X122315Y81185D01*
X122350Y81115D01*
X122397Y81051D01*
X122452Y80996D01*
X122517Y80951D01*
X122896Y80736D01*
X123295Y80561D01*
X123709Y80424D01*
X124133Y80325D01*
X124565Y80265D01*
X125000Y80245D01*
X125002Y80245D01*
Y65897D01*
X124674Y65944D01*
X124240Y65965D01*
X123807Y65944D01*
X123377Y65882D01*
X122956Y65778D01*
X122547Y65635D01*
X122440Y65582D01*
X122344Y65513D01*
X122259Y65430D01*
X122189Y65335D01*
X122134Y65229D01*
X122097Y65117D01*
X122077Y65000D01*
X122077Y64881D01*
X122094Y64764D01*
X122130Y64651D01*
X122183Y64545D01*
X122252Y64448D01*
X122335Y64364D01*
X122431Y64293D01*
X122536Y64239D01*
X122649Y64201D01*
X122766Y64182D01*
X122884Y64181D01*
X123001Y64199D01*
X123114Y64237D01*
X123385Y64336D01*
X123666Y64404D01*
X123952Y64446D01*
X124240Y64460D01*
X124529Y64446D01*
X124815Y64404D01*
X125002Y64358D01*
Y58562D01*
X124815Y58516D01*
X124529Y58474D01*
X124240Y58460D01*
X123952Y58474D01*
X123666Y58516D01*
X123385Y58584D01*
X123112Y58680D01*
X123001Y58718D01*
X122884Y58735D01*
X122766Y58735D01*
X122649Y58715D01*
X122537Y58678D01*
X122433Y58624D01*
X122338Y58554D01*
X122255Y58469D01*
X122186Y58373D01*
X122133Y58268D01*
X122098Y58155D01*
X122080Y58039D01*
X122081Y57921D01*
X122100Y57804D01*
X122138Y57692D01*
X122192Y57587D01*
X122262Y57492D01*
X122346Y57409D01*
X122442Y57341D01*
X122548Y57290D01*
X122956Y57142D01*
X123377Y57038D01*
X123807Y56976D01*
X124240Y56955D01*
X124674Y56976D01*
X125002Y57023D01*
Y55000D01*
X121063D01*
Y59357D01*
X121155Y59403D01*
X121252Y59472D01*
X121336Y59555D01*
X121407Y59651D01*
X121461Y59756D01*
X121499Y59868D01*
X121518Y59985D01*
X121519Y60104D01*
X121501Y60221D01*
X121463Y60334D01*
X121365Y60605D01*
X121296Y60885D01*
X121254Y61171D01*
X121240Y61460D01*
X121254Y61749D01*
X121296Y62035D01*
X121365Y62315D01*
X121460Y62588D01*
X121498Y62699D01*
X121516Y62816D01*
X121515Y62934D01*
X121495Y63051D01*
X121458Y63163D01*
X121404Y63267D01*
X121334Y63362D01*
X121250Y63445D01*
X121154Y63514D01*
X121063Y63559D01*
Y82383D01*
X121113Y82347D01*
X121184Y82311D01*
X121259Y82287D01*
X121338Y82274D01*
X121417Y82274D01*
X121495Y82287D01*
X121571Y82311D01*
X121641Y82347D01*
X121705Y82394D01*
X121761Y82450D01*
X121808Y82514D01*
X121844Y82585D01*
X121869Y82660D01*
X121881Y82739D01*
X121881Y82818D01*
X121868Y82896D01*
X121844Y82972D01*
X121807Y83042D01*
X121637Y83341D01*
X121499Y83655D01*
X121391Y83982D01*
X121313Y84316D01*
X121266Y84657D01*
X121250Y85000D01*
X121266Y85343D01*
X121313Y85684D01*
X121391Y86018D01*
X121499Y86345D01*
X121637Y86659D01*
X121803Y86960D01*
X121840Y87030D01*
X121865Y87105D01*
X121877Y87182D01*
X121877Y87261D01*
X121865Y87339D01*
X121840Y87414D01*
X121805Y87484D01*
X121758Y87547D01*
X121703Y87603D01*
X121639Y87649D01*
X121569Y87685D01*
X121494Y87709D01*
X121417Y87722D01*
X121338Y87722D01*
X121260Y87710D01*
X121185Y87685D01*
X121115Y87650D01*
X121063Y87612D01*
Y90000D01*
G37*
G36*
X85000D02*X121063D01*
Y87612D01*
X121051Y87603D01*
X120996Y87548D01*
X120951Y87483D01*
X120736Y87104D01*
X120561Y86705D01*
X120424Y86291D01*
X120325Y85867D01*
X120265Y85435D01*
X120245Y85000D01*
X120265Y84565D01*
X120325Y84133D01*
X120424Y83709D01*
X120561Y83295D01*
X120736Y82896D01*
X120947Y82514D01*
X120993Y82450D01*
X121049Y82394D01*
X121063Y82383D01*
Y63559D01*
X121048Y63567D01*
X120936Y63603D01*
X120819Y63620D01*
X120701Y63619D01*
X120584Y63600D01*
X120472Y63563D01*
X120367Y63508D01*
X120272Y63438D01*
X120190Y63354D01*
X120121Y63258D01*
X120070Y63152D01*
X119922Y62744D01*
X119818Y62323D01*
X119756Y61893D01*
X119735Y61460D01*
X119756Y61027D01*
X119818Y60597D01*
X119922Y60176D01*
X120065Y59766D01*
X120118Y59660D01*
X120187Y59564D01*
X120270Y59479D01*
X120366Y59409D01*
X120471Y59354D01*
X120583Y59317D01*
X120700Y59297D01*
X120819Y59296D01*
X120936Y59314D01*
X121049Y59350D01*
X121063Y59357D01*
Y55000D01*
X85000D01*
Y64884D01*
X85800Y64947D01*
X86581Y65135D01*
X87322Y65442D01*
X88007Y65861D01*
X88617Y66383D01*
X89139Y66993D01*
X89558Y67678D01*
X89865Y68419D01*
X90000Y68980D01*
X90135Y68419D01*
X90442Y67678D01*
X90861Y66993D01*
X91383Y66383D01*
X91993Y65861D01*
X92678Y65442D01*
X93419Y65135D01*
X94200Y64947D01*
X95000Y64884D01*
X95800Y64947D01*
X96581Y65135D01*
X97322Y65442D01*
X98007Y65861D01*
X98617Y66383D01*
X99139Y66993D01*
X99558Y67678D01*
X99865Y68419D01*
X100053Y69200D01*
X100100Y70000D01*
X100053Y70800D01*
X99865Y71581D01*
X99558Y72322D01*
X99139Y73007D01*
X98617Y73617D01*
X98007Y74139D01*
X97322Y74558D01*
X96581Y74865D01*
X95800Y75053D01*
X95000Y75116D01*
X94200Y75053D01*
X93419Y74865D01*
X92678Y74558D01*
X91993Y74139D01*
X91383Y73617D01*
X90861Y73007D01*
X90442Y72322D01*
X90135Y71581D01*
X90000Y71020D01*
X89865Y71581D01*
X89558Y72322D01*
X89139Y73007D01*
X88617Y73617D01*
X88007Y74139D01*
X87322Y74558D01*
X86581Y74865D01*
X85800Y75053D01*
X85000Y75116D01*
Y90000D01*
G37*
G36*
X48291D02*X85000D01*
Y75116D01*
X84200Y75053D01*
X83419Y74865D01*
X82678Y74558D01*
X81993Y74139D01*
X81383Y73617D01*
X80861Y73007D01*
X80442Y72322D01*
X80135Y71581D01*
X80091Y71398D01*
X80086Y73835D01*
X80031Y74065D01*
X79941Y74283D01*
X79817Y74484D01*
X79664Y74664D01*
X79484Y74817D01*
X79283Y74941D01*
X79065Y75031D01*
X78835Y75086D01*
X78600Y75100D01*
X71165Y75086D01*
X70935Y75031D01*
X70717Y74941D01*
X70516Y74817D01*
X70336Y74664D01*
X70183Y74484D01*
X70059Y74283D01*
X69969Y74065D01*
X69914Y73835D01*
X69900Y73600D01*
X69914Y66165D01*
X69969Y65935D01*
X70059Y65717D01*
X70183Y65516D01*
X70336Y65336D01*
X70516Y65183D01*
X70717Y65059D01*
X70935Y64969D01*
X71165Y64914D01*
X71400Y64900D01*
X78835Y64914D01*
X79065Y64969D01*
X79283Y65059D01*
X79484Y65183D01*
X79664Y65336D01*
X79817Y65516D01*
X79941Y65717D01*
X80031Y65935D01*
X80086Y66165D01*
X80100Y66400D01*
X80096Y68580D01*
X80135Y68419D01*
X80442Y67678D01*
X80861Y66993D01*
X81383Y66383D01*
X81993Y65861D01*
X82678Y65442D01*
X83419Y65135D01*
X84200Y64947D01*
X85000Y64884D01*
Y55000D01*
X48291D01*
Y66045D01*
X48298Y66045D01*
X49073Y66106D01*
X49829Y66287D01*
X50547Y66585D01*
X51209Y66991D01*
X51800Y67495D01*
X52305Y68086D01*
X52711Y68749D01*
X53008Y69467D01*
X53190Y70222D01*
X53235Y70997D01*
X53190Y71772D01*
X53008Y72527D01*
X52711Y73245D01*
X52305Y73908D01*
X51800Y74499D01*
X51209Y75003D01*
X50547Y75409D01*
X49829Y75707D01*
X49073Y75888D01*
X48298Y75949D01*
X48291Y75949D01*
Y90000D01*
G37*
G36*
X42948D02*X48291D01*
Y75949D01*
X47524Y75888D01*
X46768Y75707D01*
X46050Y75409D01*
X45387Y75003D01*
X44797Y74499D01*
X44292Y73908D01*
X43886Y73245D01*
X43588Y72527D01*
X43407Y71772D01*
X43346Y70997D01*
X43407Y70222D01*
X43588Y69467D01*
X43886Y68749D01*
X44292Y68086D01*
X44797Y67495D01*
X45387Y66991D01*
X46050Y66585D01*
X46768Y66287D01*
X47524Y66106D01*
X48291Y66045D01*
Y55000D01*
X42948D01*
Y57643D01*
X42987Y57681D01*
X43032Y57745D01*
X43263Y58143D01*
X43451Y58564D01*
X43599Y59001D01*
X43706Y59450D01*
X43770Y59906D01*
X43792Y60367D01*
X43770Y60828D01*
X43706Y61284D01*
X43599Y61733D01*
X43451Y62170D01*
X43263Y62591D01*
X43037Y62992D01*
X42990Y63056D01*
X42948Y63098D01*
Y90000D01*
G37*
G36*
X38852D02*X42948D01*
Y63098D01*
X42933Y63112D01*
X42869Y63158D01*
X42798Y63193D01*
X42722Y63217D01*
X42643Y63229D01*
X42564Y63228D01*
X42486Y63215D01*
X42410Y63189D01*
X42340Y63153D01*
X42276Y63105D01*
X42221Y63049D01*
X42175Y62984D01*
X42139Y62913D01*
X42116Y62837D01*
X42104Y62759D01*
X42105Y62679D01*
X42118Y62601D01*
X42143Y62526D01*
X42181Y62456D01*
X42366Y62138D01*
X42515Y61803D01*
X42633Y61455D01*
X42718Y61098D01*
X42769Y60734D01*
X42787Y60367D01*
X42769Y60000D01*
X42718Y59636D01*
X42633Y59279D01*
X42515Y58931D01*
X42366Y58596D01*
X42185Y58276D01*
X42147Y58207D01*
X42122Y58132D01*
X42109Y58055D01*
X42108Y57976D01*
X42120Y57898D01*
X42143Y57823D01*
X42178Y57752D01*
X42224Y57688D01*
X42279Y57632D01*
X42342Y57585D01*
X42412Y57549D01*
X42487Y57524D01*
X42564Y57511D01*
X42643Y57510D01*
X42721Y57521D01*
X42796Y57545D01*
X42866Y57580D01*
X42931Y57625D01*
X42948Y57643D01*
Y55000D01*
X38852D01*
Y55425D01*
X39310Y55446D01*
X39767Y55511D01*
X40215Y55617D01*
X40652Y55765D01*
X41073Y55953D01*
X41475Y56180D01*
X41539Y56227D01*
X41594Y56283D01*
X41640Y56348D01*
X41676Y56419D01*
X41700Y56495D01*
X41711Y56573D01*
X41710Y56653D01*
X41697Y56731D01*
X41672Y56806D01*
X41635Y56877D01*
X41588Y56940D01*
X41531Y56996D01*
X41466Y57042D01*
X41395Y57077D01*
X41320Y57101D01*
X41241Y57113D01*
X41162Y57112D01*
X41083Y57098D01*
X41008Y57073D01*
X40939Y57035D01*
X40621Y56851D01*
X40285Y56701D01*
X39938Y56583D01*
X39580Y56498D01*
X39216Y56447D01*
X38852Y56430D01*
Y64304D01*
X39216Y64287D01*
X39580Y64236D01*
X39938Y64151D01*
X40285Y64033D01*
X40621Y63883D01*
X40941Y63703D01*
X41010Y63665D01*
X41084Y63640D01*
X41162Y63627D01*
X41241Y63626D01*
X41319Y63637D01*
X41394Y63661D01*
X41464Y63696D01*
X41528Y63742D01*
X41584Y63797D01*
X41631Y63860D01*
X41668Y63930D01*
X41693Y64004D01*
X41706Y64082D01*
X41707Y64161D01*
X41695Y64238D01*
X41672Y64313D01*
X41637Y64384D01*
X41591Y64448D01*
X41536Y64504D01*
X41472Y64550D01*
X41073Y64781D01*
X40652Y64969D01*
X40215Y65117D01*
X39767Y65224D01*
X39310Y65288D01*
X38852Y65309D01*
Y90000D01*
G37*
G36*
X34751D02*X38852D01*
Y65309D01*
X38850Y65309D01*
X38389Y65288D01*
X37932Y65224D01*
X37484Y65117D01*
X37047Y64969D01*
X36626Y64781D01*
X36224Y64554D01*
X36160Y64508D01*
X36105Y64451D01*
X36059Y64386D01*
X36023Y64315D01*
X36000Y64239D01*
X35988Y64161D01*
X35989Y64081D01*
X36002Y64003D01*
X36027Y63928D01*
X36064Y63858D01*
X36111Y63794D01*
X36168Y63738D01*
X36233Y63692D01*
X36304Y63657D01*
X36380Y63633D01*
X36458Y63622D01*
X36537Y63622D01*
X36616Y63636D01*
X36691Y63661D01*
X36760Y63699D01*
X37078Y63883D01*
X37414Y64033D01*
X37761Y64151D01*
X38119Y64236D01*
X38483Y64287D01*
X38850Y64304D01*
X38852Y64304D01*
Y56430D01*
X38850Y56430D01*
X38483Y56447D01*
X38119Y56498D01*
X37761Y56583D01*
X37414Y56701D01*
X37078Y56851D01*
X36758Y57031D01*
X36689Y57069D01*
X36615Y57094D01*
X36537Y57107D01*
X36458Y57108D01*
X36380Y57097D01*
X36305Y57073D01*
X36235Y57038D01*
X36171Y56993D01*
X36115Y56937D01*
X36068Y56874D01*
X36031Y56805D01*
X36006Y56730D01*
X35993Y56652D01*
X35992Y56574D01*
X36004Y56496D01*
X36027Y56421D01*
X36062Y56350D01*
X36108Y56286D01*
X36163Y56230D01*
X36227Y56184D01*
X36626Y55953D01*
X37047Y55765D01*
X37484Y55617D01*
X37932Y55511D01*
X38389Y55446D01*
X38850Y55425D01*
X38852Y55425D01*
Y55000D01*
X34751D01*
Y57637D01*
X34766Y57622D01*
X34830Y57576D01*
X34902Y57541D01*
X34977Y57517D01*
X35056Y57505D01*
X35135Y57506D01*
X35213Y57519D01*
X35289Y57545D01*
X35359Y57582D01*
X35423Y57629D01*
X35478Y57686D01*
X35524Y57750D01*
X35560Y57821D01*
X35583Y57897D01*
X35595Y57976D01*
X35594Y58055D01*
X35581Y58133D01*
X35556Y58208D01*
X35518Y58278D01*
X35334Y58596D01*
X35184Y58931D01*
X35066Y59279D01*
X34981Y59636D01*
X34930Y60000D01*
X34913Y60367D01*
X34930Y60734D01*
X34981Y61098D01*
X35066Y61455D01*
X35184Y61803D01*
X35334Y62138D01*
X35514Y62458D01*
X35552Y62527D01*
X35577Y62602D01*
X35590Y62680D01*
X35591Y62758D01*
X35579Y62836D01*
X35556Y62911D01*
X35521Y62982D01*
X35475Y63046D01*
X35420Y63102D01*
X35357Y63149D01*
X35287Y63185D01*
X35212Y63210D01*
X35135Y63224D01*
X35056Y63224D01*
X34978Y63213D01*
X34903Y63189D01*
X34833Y63154D01*
X34768Y63109D01*
X34751Y63092D01*
Y90000D01*
G37*
G36*
X33105D02*X34751D01*
Y63092D01*
X34712Y63054D01*
X34667Y62990D01*
X34436Y62591D01*
X34248Y62170D01*
X34100Y61733D01*
X33993Y61284D01*
X33929Y60828D01*
X33907Y60367D01*
X33929Y59906D01*
X33993Y59450D01*
X34100Y59001D01*
X34248Y58564D01*
X34436Y58143D01*
X34662Y57742D01*
X34709Y57678D01*
X34751Y57637D01*
Y55000D01*
X33105D01*
Y68272D01*
X33144Y68310D01*
X33190Y68374D01*
X33421Y68773D01*
X33609Y69194D01*
X33757Y69631D01*
X33864Y70080D01*
X33928Y70536D01*
X33949Y70997D01*
X33928Y71458D01*
X33864Y71914D01*
X33757Y72363D01*
X33609Y72800D01*
X33421Y73221D01*
X33194Y73622D01*
X33147Y73686D01*
X33105Y73728D01*
Y90000D01*
G37*
G36*
X29009D02*X33105D01*
Y73728D01*
X33091Y73742D01*
X33026Y73788D01*
X32955Y73823D01*
X32879Y73847D01*
X32801Y73859D01*
X32721Y73858D01*
X32643Y73845D01*
X32568Y73819D01*
X32498Y73783D01*
X32434Y73735D01*
X32378Y73679D01*
X32332Y73614D01*
X32297Y73543D01*
X32273Y73467D01*
X32262Y73388D01*
X32262Y73309D01*
X32276Y73231D01*
X32301Y73156D01*
X32339Y73086D01*
X32523Y72768D01*
X32673Y72433D01*
X32791Y72085D01*
X32876Y71728D01*
X32927Y71364D01*
X32944Y70997D01*
X32927Y70630D01*
X32876Y70266D01*
X32791Y69909D01*
X32673Y69561D01*
X32523Y69226D01*
X32343Y68906D01*
X32305Y68837D01*
X32280Y68762D01*
X32267Y68685D01*
X32266Y68606D01*
X32277Y68528D01*
X32301Y68453D01*
X32336Y68382D01*
X32382Y68318D01*
X32437Y68262D01*
X32500Y68215D01*
X32570Y68179D01*
X32644Y68154D01*
X32722Y68140D01*
X32800Y68140D01*
X32878Y68151D01*
X32953Y68175D01*
X33024Y68210D01*
X33088Y68255D01*
X33105Y68272D01*
Y55000D01*
X29009D01*
Y66055D01*
X29468Y66076D01*
X29924Y66140D01*
X30373Y66247D01*
X30810Y66395D01*
X31231Y66583D01*
X31632Y66810D01*
X31696Y66857D01*
X31752Y66913D01*
X31798Y66978D01*
X31833Y67049D01*
X31857Y67125D01*
X31869Y67203D01*
X31868Y67283D01*
X31855Y67361D01*
X31829Y67436D01*
X31793Y67506D01*
X31745Y67570D01*
X31689Y67626D01*
X31624Y67672D01*
X31553Y67707D01*
X31477Y67731D01*
X31398Y67742D01*
X31319Y67742D01*
X31241Y67728D01*
X31166Y67703D01*
X31096Y67665D01*
X30778Y67481D01*
X30443Y67331D01*
X30095Y67213D01*
X29738Y67128D01*
X29374Y67077D01*
X29009Y67060D01*
Y74934D01*
X29374Y74917D01*
X29738Y74866D01*
X30095Y74781D01*
X30443Y74663D01*
X30778Y74513D01*
X31098Y74333D01*
X31167Y74295D01*
X31242Y74270D01*
X31319Y74257D01*
X31398Y74256D01*
X31476Y74267D01*
X31551Y74291D01*
X31622Y74326D01*
X31686Y74372D01*
X31742Y74427D01*
X31789Y74490D01*
X31825Y74560D01*
X31850Y74634D01*
X31864Y74712D01*
X31864Y74790D01*
X31853Y74868D01*
X31829Y74943D01*
X31794Y75014D01*
X31749Y75078D01*
X31694Y75134D01*
X31630Y75180D01*
X31231Y75411D01*
X30810Y75599D01*
X30373Y75747D01*
X29924Y75854D01*
X29468Y75918D01*
X29009Y75939D01*
Y90000D01*
G37*
G36*
X24909D02*X29009D01*
Y75939D01*
X29007Y75939D01*
X28546Y75918D01*
X28090Y75854D01*
X27641Y75747D01*
X27204Y75599D01*
X26783Y75411D01*
X26382Y75184D01*
X26318Y75137D01*
X26262Y75081D01*
X26216Y75016D01*
X26181Y74945D01*
X26157Y74869D01*
X26145Y74791D01*
X26146Y74711D01*
X26159Y74633D01*
X26185Y74558D01*
X26221Y74488D01*
X26269Y74424D01*
X26325Y74368D01*
X26390Y74322D01*
X26461Y74287D01*
X26537Y74263D01*
X26616Y74252D01*
X26695Y74252D01*
X26773Y74266D01*
X26848Y74291D01*
X26918Y74329D01*
X27236Y74513D01*
X27571Y74663D01*
X27919Y74781D01*
X28276Y74866D01*
X28640Y74917D01*
X29007Y74934D01*
X29009Y74934D01*
Y67060D01*
X29007Y67060D01*
X28640Y67077D01*
X28276Y67128D01*
X27919Y67213D01*
X27571Y67331D01*
X27236Y67481D01*
X26916Y67661D01*
X26847Y67699D01*
X26772Y67724D01*
X26695Y67737D01*
X26616Y67738D01*
X26538Y67727D01*
X26463Y67703D01*
X26392Y67668D01*
X26328Y67622D01*
X26272Y67567D01*
X26225Y67504D01*
X26189Y67434D01*
X26164Y67360D01*
X26150Y67282D01*
X26150Y67204D01*
X26161Y67126D01*
X26185Y67051D01*
X26220Y66980D01*
X26265Y66916D01*
X26320Y66860D01*
X26384Y66814D01*
X26783Y66583D01*
X27204Y66395D01*
X27641Y66247D01*
X28090Y66140D01*
X28546Y66076D01*
X29007Y66055D01*
X29009Y66055D01*
Y55000D01*
X24909D01*
Y68266D01*
X24923Y68252D01*
X24988Y68206D01*
X25059Y68171D01*
X25135Y68147D01*
X25213Y68135D01*
X25293Y68136D01*
X25371Y68149D01*
X25446Y68175D01*
X25516Y68211D01*
X25580Y68259D01*
X25636Y68315D01*
X25682Y68380D01*
X25717Y68451D01*
X25741Y68527D01*
X25752Y68606D01*
X25752Y68685D01*
X25738Y68763D01*
X25713Y68838D01*
X25675Y68908D01*
X25491Y69226D01*
X25341Y69561D01*
X25223Y69909D01*
X25138Y70266D01*
X25087Y70630D01*
X25070Y70997D01*
X25087Y71364D01*
X25138Y71728D01*
X25223Y72085D01*
X25341Y72433D01*
X25491Y72768D01*
X25671Y73088D01*
X25709Y73157D01*
X25734Y73232D01*
X25747Y73309D01*
X25748Y73388D01*
X25737Y73466D01*
X25713Y73541D01*
X25678Y73612D01*
X25632Y73676D01*
X25577Y73732D01*
X25514Y73779D01*
X25444Y73815D01*
X25370Y73840D01*
X25292Y73854D01*
X25214Y73854D01*
X25136Y73843D01*
X25061Y73819D01*
X24990Y73784D01*
X24926Y73739D01*
X24909Y73722D01*
Y90000D01*
G37*
G36*
X24000D02*X24909D01*
Y73722D01*
X24870Y73684D01*
X24824Y73620D01*
X24593Y73221D01*
X24405Y72800D01*
X24257Y72363D01*
X24150Y71914D01*
X24086Y71458D01*
X24065Y70997D01*
X24086Y70536D01*
X24150Y70080D01*
X24257Y69631D01*
X24405Y69194D01*
X24593Y68773D01*
X24820Y68372D01*
X24867Y68308D01*
X24909Y68266D01*
Y55000D01*
X24000D01*
Y90000D01*
G37*
G54D25*X145000Y85000D03*
X145265Y15995D03*
X125265D03*
G54D24*G36*
X71400Y73600D02*Y66400D01*
X78600D01*
Y73600D01*
X71400D01*
G37*
G54D26*X85000Y70000D03*
X95000D03*
G54D25*X125000Y85000D03*
G54D27*X29007Y70997D03*
X48298D03*
G54D24*G36*
X121240Y49460D02*Y43460D01*
X127240D01*
Y49460D01*
X121240D01*
G37*
G54D28*X124240Y61460D03*
G54D27*X38850Y60367D03*
G54D29*X103652Y26064D03*
X93810Y16221D03*
X83967Y26064D03*
G54D30*G54D31*G54D30*G54D32*G54D33*G54D32*G54D34*M02*
