G04 start of page 8 for group -4062 idx -4062 *
G04 Title: tDCS Arduino Shield, soldermask *
G04 Creator: pcb 1.99z *
G04 CreationDate: Thu Aug 16 20:41:50 2012 UTC *
G04 For: nock *
G04 Format: Gerber/RS-274X *
G04 PCB-Dimensions (mil): 2700.00 2100.00 *
G04 PCB-Coordinate-Origin: lower left *
%MOIN*%
%FSLAX25Y25*%
%LNBOTTOMMASK*%
%ADD58C,0.0780*%
%ADD57C,0.0847*%
%ADD56C,0.1510*%
%ADD55C,0.0660*%
%ADD54C,0.0001*%
G54D54*G36*
X126700Y13300D02*Y6700D01*
X133300D01*
Y13300D01*
X126700D01*
G37*
G54D55*X140000Y10000D03*
X150000D03*
X160000D03*
X170000D03*
X180000D03*
G54D56*X260000Y30000D03*
G54D54*G36*
X196700Y13300D02*Y6700D01*
X203300D01*
Y13300D01*
X196700D01*
G37*
G54D55*X210000Y10000D03*
X220000D03*
X230000D03*
X240000D03*
X250000D03*
G54D54*G36*
X160700Y203300D02*Y196700D01*
X167300D01*
Y203300D01*
X160700D01*
G37*
G36*
X246700D02*Y196700D01*
X253300D01*
Y203300D01*
X246700D01*
G37*
G54D55*X240000Y200000D03*
X230000D03*
X220000D03*
X210000D03*
X200000D03*
X190000D03*
X180000D03*
X154000D03*
X144000D03*
X134000D03*
X124000D03*
X114000D03*
X104000D03*
X94000D03*
G54D56*X60000D03*
X260000Y140000D03*
G54D55*X261685Y120685D03*
X232157Y101000D03*
G54D57*Y81315D03*
Y110843D03*
Y91157D03*
G54D55*X261685Y81315D03*
X251843Y120685D03*
G54D57*X232157D03*
G54D55*X251843Y81315D03*
G54D58*X175500Y83000D03*
G54D57*X251843Y101000D03*
G54D54*G36*
X171600Y106900D02*Y99100D01*
X179400D01*
Y106900D01*
X171600D01*
G37*
G54D58*X175500Y93000D03*
M02*
