M48
INCH
T44C0.020
T43C0.042
T42C0.049
T41C0.125
T40C0.040
%
T44
X0015750Y0016300
X0018050Y0011300
X0018450Y0012050
X0021600Y0005600
T40
X0009400Y0020000
X0010400Y0020000
X0011400Y0020000
X0012400Y0020000
X0013000Y0001000
X0013400Y0020000
X0014000Y0001000
X0014400Y0020000
X0015000Y0001000
X0015400Y0020000
X0016000Y0001000
X0016400Y0020000
X0017000Y0001000
X0018000Y0020000
X0018000Y0001000
X0019000Y0020000
X0020000Y0020000
X0020000Y0001000
X0021000Y0020000
X0021000Y0001000
X0022000Y0020000
X0022000Y0001000
X0023000Y0020000
X0023000Y0001000
X0024000Y0020000
X0024000Y0001000
X0025000Y0020000
X0025000Y0001000
T43
X0017550Y0010300
X0017550Y0009300
X0017550Y0008300
T42
X0023220Y0012070
X0023220Y0011080
X0023220Y0009120
X0023220Y0008130
X0025180Y0010100
T41
X0006000Y0020000
X0026000Y0014000
X0026000Y0003000
M30
