G04 start of page 2 for group 0 idx 0 *
G04 Title: (unknown), component *
G04 Creator: pcb 1.99z *
G04 CreationDate: Mon Jul 30 01:21:37 2012 UTC *
G04 For: nock *
G04 Format: Gerber/RS-274X *
G04 PCB-Dimensions (mil): 1500.00 1000.00 *
G04 PCB-Coordinate-Origin: lower left *
%MOIN*%
%FSLAX25Y25*%
%LNTOP*%
%ADD23C,0.0200*%
%ADD22C,0.0520*%
%ADD21C,0.0300*%
%ADD20C,0.0400*%
%ADD19C,0.0420*%
%ADD18R,0.0295X0.0295*%
%ADD17C,0.0240*%
%ADD16C,0.0750*%
%ADD15C,0.0600*%
%ADD14C,0.0650*%
%ADD13C,0.0720*%
%ADD12C,0.0001*%
%ADD11C,0.0250*%
G54D11*X46685Y72685D02*X54685D01*
X46685Y93508D02*Y73000D01*
X16000Y76250D02*Y56870D01*
X71400D02*X16000D01*
X27000Y76250D02*X5000D01*
X27000D02*Y73000D01*
X54685Y72685D02*X67000Y85000D01*
X46685Y93508D02*X27118D01*
X22000D02*X10118D01*
X5000D02*Y76250D01*
X125000Y16000D02*X145000D01*
X124000Y46000D02*Y17000D01*
X125000Y16000D01*
X123500Y84500D02*X143500D01*
X144000Y85000D01*
X124000Y61000D02*Y84000D01*
X124500Y84500D01*
X84000Y51000D02*Y26000D01*
X124000Y55750D02*Y46000D01*
X95000Y70000D02*Y55750D01*
X93843Y16157D02*Y13500D01*
X125000D02*X93843D01*
X125000Y16000D02*Y13500D01*
X71400Y66400D02*Y56870D01*
X75000Y66400D02*X71400D01*
X75000Y70000D02*Y66400D01*
X85492Y56118D02*X85000D01*
Y70000D02*Y56118D01*
X84508Y51000D02*X84000D01*
X124000Y55750D02*X95000D01*
X67000Y85000D02*X125000D01*
G54D12*G36*
X71400Y73600D02*Y66400D01*
X78600D01*
Y73600D01*
X71400D01*
G37*
G54D13*X85000Y70000D03*
X95000D03*
G54D14*X27000Y73000D03*
X46685D03*
X36843Y62370D03*
G54D12*G36*
X121000Y49000D02*Y43000D01*
X127000D01*
Y49000D01*
X121000D01*
G37*
G54D15*X124000Y61000D03*
G54D16*X125265Y15995D03*
G54D17*X84000Y26000D03*
X103685D03*
X93843Y16157D03*
G54D16*X145000Y85000D03*
X145265Y15995D03*
X125000Y85000D03*
G54D18*X84508Y51000D02*X85492D01*
X84508Y56118D02*X85492D01*
X5000Y94492D02*Y93508D01*
X10118Y94492D02*Y93508D01*
X22000Y94492D02*Y93508D01*
X27118Y94492D02*Y93508D01*
G54D19*G54D20*G54D21*G54D22*G54D23*G54D22*M02*
