G04 start of page 11 for group -4063 idx -4063 *
G04 Title: OpenTDCS, v4, componentmask *
G04 Creator: pcb 1.99z *
G04 CreationDate: Thu 18 Oct 2012 01:14:54 AM GMT UTC *
G04 For: nock *
G04 Format: Gerber/RS-274X *
G04 PCB-Dimensions (mil): 2250.00 850.00 *
G04 PCB-Coordinate-Origin: lower left *
%MOIN*%
%FSLAX25Y25*%
%LNTOPMASK*%
%ADD253C,0.0420*%
%ADD252C,0.0780*%
%ADD251C,0.0610*%
%ADD250C,0.0710*%
%ADD249C,0.0660*%
%ADD248C,0.0001*%
%ADD247C,0.1100*%
G54D247*X44291Y31850D03*
G54D248*G36*
X6208Y52395D02*Y45795D01*
X12808D01*
Y52395D01*
X6208D01*
G37*
G54D249*X9508Y39095D03*
G54D248*G36*
X6793Y79192D02*Y73092D01*
X12893D01*
Y79192D01*
X6793D01*
G37*
G36*
X16056Y67881D02*Y60781D01*
X23156D01*
Y67881D01*
X16056D01*
G37*
G54D250*X29606Y64331D03*
G54D251*X39843Y76142D03*
G54D247*X109252Y31535D03*
G54D248*G36*
X174115Y43759D02*Y37659D01*
X180215D01*
Y43759D01*
X174115D01*
G37*
G36*
X162304D02*Y37659D01*
X168404D01*
Y43759D01*
X162304D01*
G37*
G36*
X120943Y40672D02*Y32872D01*
X128743D01*
Y40672D01*
X120943D01*
G37*
G54D252*X134843Y36772D03*
X144843D03*
G54D248*G36*
X120943Y20002D02*Y12202D01*
X128743D01*
Y20002D01*
X120943D01*
G37*
G54D252*X134843Y16102D03*
X144843D03*
G54D247*X109252Y51535D03*
G54D251*X177165Y70709D03*
X165354D03*
G54D248*G36*
X197737Y73286D02*Y67186D01*
X203837D01*
Y73286D01*
X197737D01*
G37*
G54D251*X200787Y40236D03*
G54D248*G36*
X185926Y73286D02*Y67186D01*
X192026D01*
Y73286D01*
X185926D01*
G37*
G54D251*X188976Y40236D03*
G54D248*G36*
X213235Y64678D02*Y58078D01*
X219835D01*
Y64678D01*
X213235D01*
G37*
G54D249*X216535Y51378D03*
G54D253*X125190Y66235D03*
X144875D03*
X135033Y76078D03*
G54D248*G36*
X58708Y61725D02*Y55125D01*
X65308D01*
Y61725D01*
X58708D01*
G37*
G54D249*X92008Y58425D03*
G54D247*X44291Y51850D03*
G54D249*X62008Y48425D03*
Y38425D03*
Y28425D03*
X92008D03*
Y38425D03*
Y48425D03*
G54D247*X87598Y76142D03*
X67598D03*
X87598Y13150D03*
X67598D03*
M02*
