M48
INCH
T246C0.028
T245C0.020
T244C0.042
T243C0.043
T242C0.030
T241C0.038
T240C0.035
%
T245
X0012520Y0006620
X0013500Y0007610
X0014490Y0006620
T246
X0006200Y0005840
X0006200Y0004840
X0006200Y0003840
X0006200Y0002840
X0009200Y0005840
X0009200Y0004840
X0009200Y0003840
X0009200Y0002840
T242
X0000980Y0007610
X0003980Y0007610
X0016540Y0007070
X0016540Y0004070
X0017720Y0007070
X0017720Y0004070
X0018900Y0007020
X0018900Y0004020
X0020080Y0007020
X0020080Y0004020
T240
X0004430Y0005190
X0004430Y0003190
X0006760Y0007610
X0006760Y0001310
X0008760Y0007610
X0008760Y0001310
X0010930Y0005150
X0010930Y0003150
T241
X0000950Y0004910
X0000950Y0003910
X0021650Y0006140
X0021650Y0005140
T244
X0012480Y0003680
X0012480Y0001610
X0013480Y0003680
X0013480Y0001610
X0014480Y0003680
X0014480Y0001610
T243
X0001960Y0006430
X0002960Y0006430
M30
