G04 start of page 3 for group 1 idx 1 *
G04 Title: OpenTDCS, v4, solder *
G04 Creator: pcb 1.99z *
G04 CreationDate: Fri 15 Feb 2013 10:32:06 PM GMT UTC *
G04 For: nock *
G04 Format: Gerber/RS-274X *
G04 PCB-Dimensions (mil): 2250.00 850.00 *
G04 PCB-Coordinate-Origin: lower left *
%MOIN*%
%FSLAX25Y25*%
%LNBOTTOM*%
%ADD99C,0.0420*%
%ADD98C,0.0200*%
%ADD97C,0.0430*%
%ADD96C,0.0300*%
%ADD95C,0.0380*%
%ADD94C,0.0350*%
%ADD93C,0.0280*%
%ADD92C,0.0720*%
%ADD91C,0.0360*%
%ADD90C,0.0650*%
%ADD89C,0.0550*%
%ADD88C,0.0800*%
%ADD87C,0.0600*%
%ADD86C,0.0250*%
%ADD85C,0.0001*%
G54D85*G36*
X109243Y28362D02*X109999Y27606D01*
X109999Y27606D01*
X109627Y27553D01*
X109252Y27535D01*
X109243Y27536D01*
Y28362D01*
G37*
G36*
Y70236D02*X115157D01*
Y28812D01*
X114394Y29575D01*
X114541Y30004D01*
X114661Y30507D01*
X114734Y31019D01*
X114758Y31535D01*
X114734Y32052D01*
X114661Y32564D01*
X114541Y33066D01*
X114374Y33556D01*
X114162Y34027D01*
X114101Y34129D01*
X114024Y34219D01*
X113934Y34296D01*
X113832Y34359D01*
X113723Y34404D01*
X113607Y34432D01*
X113489Y34442D01*
X113371Y34433D01*
X113255Y34405D01*
X113145Y34360D01*
X113044Y34298D01*
X112954Y34221D01*
X112876Y34131D01*
X112814Y34030D01*
X112768Y33920D01*
X112741Y33805D01*
X112731Y33686D01*
X112740Y33568D01*
X112768Y33452D01*
X112815Y33344D01*
X112973Y33003D01*
X113094Y32648D01*
X113182Y32282D01*
X113234Y31911D01*
X113252Y31535D01*
X113234Y31160D01*
X113182Y30788D01*
X113181Y30788D01*
X110843Y33126D01*
X110579Y33361D01*
X110277Y33546D01*
X109949Y33682D01*
X109605Y33765D01*
X109252Y33792D01*
X109243Y33792D01*
Y35535D01*
X109252Y35535D01*
X109627Y35518D01*
X109999Y35465D01*
X110364Y35378D01*
X110720Y35256D01*
X111062Y35102D01*
X111170Y35055D01*
X111285Y35028D01*
X111403Y35019D01*
X111520Y35028D01*
X111635Y35056D01*
X111744Y35101D01*
X111845Y35163D01*
X111934Y35240D01*
X112011Y35330D01*
X112072Y35431D01*
X112117Y35540D01*
X112145Y35655D01*
X112154Y35772D01*
X112144Y35890D01*
X112117Y36005D01*
X112071Y36114D01*
X112009Y36214D01*
X111933Y36304D01*
X111843Y36381D01*
X111741Y36440D01*
X111272Y36657D01*
X110783Y36824D01*
X110280Y36945D01*
X109768Y37017D01*
X109252Y37042D01*
X109243Y37041D01*
Y46019D01*
X109252Y46018D01*
X110115Y46086D01*
X110957Y46288D01*
X111757Y46620D01*
X112495Y47072D01*
X113153Y47634D01*
X113715Y48293D01*
X114168Y49031D01*
X114499Y49831D01*
X114701Y50672D01*
X114752Y51535D01*
X114701Y52398D01*
X114499Y53240D01*
X114168Y54040D01*
X113715Y54778D01*
X113153Y55437D01*
X112495Y55999D01*
X111757Y56451D01*
X110957Y56782D01*
X110115Y56984D01*
X109252Y57052D01*
X109243Y57052D01*
Y70236D01*
G37*
G36*
X115157Y7244D02*X109243D01*
Y26030D01*
X109252Y26029D01*
X109768Y26054D01*
X110280Y26126D01*
X110783Y26246D01*
X111212Y26393D01*
X113189Y24416D01*
X113247Y24349D01*
X113516Y24119D01*
X113516Y24119D01*
X113703Y24004D01*
X113818Y23934D01*
X114145Y23798D01*
X114489Y23716D01*
X114489D01*
X114843Y23688D01*
X114931Y23695D01*
X115157D01*
Y7244D01*
G37*
G36*
X104759Y70236D02*X109243D01*
Y57052D01*
X108389Y56984D01*
X107547Y56782D01*
X106747Y56451D01*
X106009Y55999D01*
X105351Y55437D01*
X104789Y54778D01*
X104759Y54731D01*
Y70236D01*
G37*
G36*
X109243Y7244D02*X104759D01*
Y28676D01*
X104781Y28667D01*
X104897Y28639D01*
X105015Y28629D01*
X105133Y28638D01*
X105249Y28666D01*
X105359Y28711D01*
X105460Y28773D01*
X105550Y28850D01*
X105628Y28940D01*
X105690Y29041D01*
X105735Y29151D01*
X105763Y29266D01*
X105773Y29385D01*
X105764Y29503D01*
X105736Y29619D01*
X105689Y29727D01*
X105531Y30068D01*
X105410Y30423D01*
X105322Y30788D01*
X105270Y31160D01*
X105252Y31535D01*
X105270Y31911D01*
X105322Y32282D01*
X105410Y32648D01*
X105531Y33003D01*
X105685Y33346D01*
X105732Y33454D01*
X105759Y33569D01*
X105768Y33686D01*
X105759Y33804D01*
X105731Y33919D01*
X105686Y34028D01*
X105624Y34128D01*
X105547Y34218D01*
X105457Y34294D01*
X105357Y34356D01*
X105247Y34401D01*
X105133Y34428D01*
X105015Y34437D01*
X104897Y34428D01*
X104783Y34400D01*
X104759Y34390D01*
Y48340D01*
X104789Y48293D01*
X105351Y47634D01*
X106009Y47072D01*
X106747Y46620D01*
X107547Y46288D01*
X108389Y46086D01*
X109243Y46019D01*
Y37041D01*
X108736Y37017D01*
X108224Y36945D01*
X107721Y36824D01*
X107232Y36657D01*
X106760Y36445D01*
X106659Y36384D01*
X106568Y36307D01*
X106491Y36217D01*
X106429Y36116D01*
X106383Y36006D01*
X106355Y35891D01*
X106346Y35772D01*
X106355Y35654D01*
X106382Y35539D01*
X106428Y35429D01*
X106489Y35327D01*
X106566Y35237D01*
X106657Y35160D01*
X106758Y35098D01*
X106867Y35052D01*
X106983Y35024D01*
X107101Y35014D01*
X107220Y35024D01*
X107335Y35051D01*
X107444Y35098D01*
X107784Y35256D01*
X108140Y35378D01*
X108505Y35465D01*
X108877Y35518D01*
X109243Y35535D01*
Y33792D01*
X108899Y33765D01*
X108555Y33682D01*
X108227Y33546D01*
X107925Y33361D01*
X107656Y33131D01*
X107426Y32862D01*
X107241Y32560D01*
X107105Y32233D01*
X107023Y31888D01*
X106995Y31535D01*
X107023Y31182D01*
X107105Y30838D01*
X107241Y30511D01*
X107426Y30209D01*
X107661Y29944D01*
X109243Y28362D01*
Y27536D01*
X108877Y27553D01*
X108505Y27606D01*
X108140Y27693D01*
X107784Y27814D01*
X107442Y27968D01*
X107334Y28016D01*
X107219Y28043D01*
X107101Y28052D01*
X106984Y28042D01*
X106869Y28015D01*
X106760Y27969D01*
X106659Y27908D01*
X106570Y27831D01*
X106493Y27741D01*
X106432Y27640D01*
X106387Y27531D01*
X106359Y27416D01*
X106350Y27298D01*
X106360Y27181D01*
X106387Y27066D01*
X106433Y26957D01*
X106495Y26856D01*
X106571Y26767D01*
X106661Y26690D01*
X106763Y26631D01*
X107232Y26413D01*
X107721Y26246D01*
X108224Y26126D01*
X108736Y26054D01*
X109243Y26030D01*
Y7244D01*
G37*
G36*
X104759D02*X95621D01*
Y26278D01*
X95664Y26285D01*
X95776Y26323D01*
X95881Y26377D01*
X95976Y26447D01*
X96058Y26531D01*
X96127Y26627D01*
X96178Y26734D01*
X96326Y27141D01*
X96430Y27562D01*
X96492Y27992D01*
X96513Y28425D01*
X96492Y28859D01*
X96430Y29288D01*
X96326Y29709D01*
X96183Y30119D01*
X96130Y30225D01*
X96061Y30322D01*
X95978Y30406D01*
X95882Y30476D01*
X95777Y30531D01*
X95665Y30569D01*
X95621Y30576D01*
Y35727D01*
X95660Y35772D01*
X96030Y36376D01*
X96301Y37030D01*
X96466Y37719D01*
X96508Y38425D01*
X96466Y39131D01*
X96301Y39820D01*
X96030Y40474D01*
X95660Y41078D01*
X95621Y41124D01*
Y45727D01*
X95660Y45772D01*
X96030Y46376D01*
X96301Y47030D01*
X96466Y47719D01*
X96508Y48425D01*
X96466Y49131D01*
X96301Y49820D01*
X96030Y50474D01*
X95660Y51078D01*
X95621Y51124D01*
Y55727D01*
X95660Y55772D01*
X96030Y56376D01*
X96301Y57030D01*
X96466Y57719D01*
X96508Y58425D01*
X96466Y59131D01*
X96301Y59820D01*
X96030Y60474D01*
X95660Y61078D01*
X95621Y61124D01*
Y70236D01*
X104759D01*
Y54731D01*
X104336Y54040D01*
X104005Y53240D01*
X103803Y52398D01*
X103735Y51535D01*
X103803Y50672D01*
X104005Y49831D01*
X104336Y49031D01*
X104759Y48340D01*
Y34390D01*
X104674Y34355D01*
X104573Y34293D01*
X104483Y34216D01*
X104407Y34126D01*
X104347Y34024D01*
X104130Y33556D01*
X103963Y33066D01*
X103843Y32564D01*
X103770Y32052D01*
X103746Y31535D01*
X103770Y31019D01*
X103843Y30507D01*
X103963Y30004D01*
X104130Y29515D01*
X104342Y29044D01*
X104403Y28942D01*
X104480Y28852D01*
X104570Y28774D01*
X104672Y28712D01*
X104759Y28676D01*
Y7244D01*
G37*
G36*
X95621Y61124D02*X95200Y61617D01*
X94661Y62077D01*
X94057Y62447D01*
X93403Y62718D01*
X92714Y62884D01*
X92010Y62939D01*
Y70236D01*
X95621D01*
Y61124D01*
G37*
G36*
Y51124D02*X95200Y51617D01*
X94661Y52077D01*
X94057Y52447D01*
X93403Y52718D01*
X92714Y52884D01*
X92010Y52939D01*
Y53911D01*
X92714Y53967D01*
X93403Y54132D01*
X94057Y54403D01*
X94661Y54773D01*
X95200Y55233D01*
X95621Y55727D01*
Y51124D01*
G37*
G36*
Y41124D02*X95200Y41617D01*
X94661Y42077D01*
X94057Y42447D01*
X93403Y42718D01*
X92714Y42884D01*
X92010Y42939D01*
Y43911D01*
X92714Y43967D01*
X93403Y44132D01*
X94057Y44403D01*
X94661Y44773D01*
X95200Y45233D01*
X95621Y45727D01*
Y41124D01*
G37*
G36*
Y7244D02*X92010D01*
Y10271D01*
X92068Y10285D01*
X92177Y10330D01*
X92277Y10392D01*
X92367Y10469D01*
X92444Y10559D01*
X92503Y10661D01*
X92720Y11129D01*
X92887Y11619D01*
X93008Y12121D01*
X93080Y12633D01*
X93104Y13150D01*
X93080Y13666D01*
X93008Y14178D01*
X92887Y14681D01*
X92720Y15170D01*
X92508Y15641D01*
X92447Y15743D01*
X92370Y15833D01*
X92280Y15911D01*
X92179Y15973D01*
X92069Y16018D01*
X92010Y16033D01*
Y23920D01*
X92441Y23941D01*
X92871Y24003D01*
X93292Y24107D01*
X93702Y24250D01*
X93808Y24303D01*
X93904Y24372D01*
X93989Y24455D01*
X94059Y24551D01*
X94114Y24656D01*
X94151Y24768D01*
X94171Y24885D01*
X94171Y25004D01*
X94154Y25121D01*
X94118Y25234D01*
X94065Y25340D01*
X93996Y25437D01*
X93913Y25521D01*
X93817Y25592D01*
X93712Y25646D01*
X93599Y25684D01*
X93482Y25703D01*
X93364Y25704D01*
X93247Y25686D01*
X93134Y25648D01*
X92863Y25550D01*
X92582Y25481D01*
X92296Y25439D01*
X92010Y25425D01*
Y31425D01*
X92296Y31411D01*
X92582Y31370D01*
X92863Y31301D01*
X93136Y31205D01*
X93247Y31167D01*
X93364Y31150D01*
X93482Y31151D01*
X93599Y31170D01*
X93711Y31207D01*
X93815Y31262D01*
X93910Y31332D01*
X93993Y31416D01*
X94062Y31512D01*
X94115Y31617D01*
X94150Y31730D01*
X94168Y31847D01*
X94167Y31965D01*
X94148Y32081D01*
X94111Y32193D01*
X94056Y32298D01*
X93986Y32393D01*
X93902Y32476D01*
X93806Y32544D01*
X93700Y32595D01*
X93292Y32744D01*
X92871Y32847D01*
X92441Y32910D01*
X92010Y32930D01*
Y33911D01*
X92714Y33967D01*
X93403Y34132D01*
X94057Y34403D01*
X94661Y34773D01*
X95200Y35233D01*
X95621Y35727D01*
Y30576D01*
X95548Y30588D01*
X95429Y30589D01*
X95312Y30571D01*
X95199Y30535D01*
X95093Y30482D01*
X94996Y30413D01*
X94912Y30330D01*
X94841Y30235D01*
X94787Y30129D01*
X94749Y30017D01*
X94730Y29900D01*
X94729Y29781D01*
X94747Y29664D01*
X94785Y29552D01*
X94883Y29280D01*
X94952Y29000D01*
X94994Y28714D01*
X95008Y28425D01*
X94994Y28137D01*
X94952Y27851D01*
X94883Y27570D01*
X94788Y27297D01*
X94750Y27186D01*
X94732Y27069D01*
X94733Y26951D01*
X94753Y26835D01*
X94790Y26723D01*
X94844Y26618D01*
X94914Y26523D01*
X94998Y26440D01*
X95094Y26371D01*
X95200Y26318D01*
X95313Y26283D01*
X95429Y26265D01*
X95547Y26266D01*
X95621Y26278D01*
Y7244D01*
G37*
G36*
X88395Y45727D02*X88816Y45233D01*
X89355Y44773D01*
X89959Y44403D01*
X90613Y44132D01*
X91302Y43967D01*
X92008Y43911D01*
X92010Y43911D01*
Y42939D01*
X92008Y42939D01*
X91302Y42884D01*
X90613Y42718D01*
X89959Y42447D01*
X89355Y42077D01*
X88816Y41617D01*
X88395Y41124D01*
Y45727D01*
G37*
G36*
Y55727D02*X88816Y55233D01*
X89355Y54773D01*
X89959Y54403D01*
X90613Y54132D01*
X91302Y53967D01*
X92008Y53911D01*
X92010Y53911D01*
Y52939D01*
X92008Y52939D01*
X91302Y52884D01*
X90613Y52718D01*
X89959Y52447D01*
X89355Y52077D01*
X88816Y51617D01*
X88395Y51124D01*
Y55727D01*
G37*
G36*
Y70236D02*X92010D01*
Y62939D01*
X92008Y62939D01*
X91302Y62884D01*
X90613Y62718D01*
X89959Y62447D01*
X89355Y62077D01*
X88816Y61617D01*
X88395Y61124D01*
Y70236D01*
G37*
G36*
X92010Y7244D02*X88395D01*
Y7708D01*
X88627Y7740D01*
X89129Y7861D01*
X89619Y8028D01*
X90090Y8240D01*
X90192Y8301D01*
X90282Y8378D01*
X90359Y8468D01*
X90422Y8569D01*
X90467Y8679D01*
X90495Y8794D01*
X90505Y8913D01*
X90496Y9031D01*
X90468Y9146D01*
X90423Y9256D01*
X90361Y9358D01*
X90284Y9448D01*
X90194Y9525D01*
X90093Y9588D01*
X89983Y9633D01*
X89868Y9661D01*
X89749Y9671D01*
X89631Y9661D01*
X89515Y9634D01*
X89407Y9587D01*
X89066Y9429D01*
X88711Y9307D01*
X88395Y9232D01*
Y17067D01*
X88711Y16992D01*
X89066Y16871D01*
X89409Y16717D01*
X89517Y16670D01*
X89632Y16642D01*
X89749Y16633D01*
X89867Y16643D01*
X89982Y16670D01*
X90091Y16716D01*
X90191Y16777D01*
X90281Y16854D01*
X90357Y16944D01*
X90419Y17045D01*
X90464Y17154D01*
X90491Y17269D01*
X90500Y17387D01*
X90491Y17504D01*
X90463Y17619D01*
X90418Y17728D01*
X90356Y17829D01*
X90279Y17918D01*
X90189Y17995D01*
X90087Y18054D01*
X89619Y18272D01*
X89129Y18439D01*
X88627Y18559D01*
X88395Y18592D01*
Y26275D01*
X88468Y26262D01*
X88587Y26262D01*
X88704Y26279D01*
X88817Y26315D01*
X88923Y26368D01*
X89020Y26437D01*
X89104Y26520D01*
X89174Y26616D01*
X89229Y26721D01*
X89267Y26834D01*
X89286Y26951D01*
X89287Y27069D01*
X89269Y27187D01*
X89231Y27299D01*
X89132Y27570D01*
X89063Y27851D01*
X89022Y28137D01*
X89008Y28425D01*
X89022Y28714D01*
X89063Y29000D01*
X89132Y29280D01*
X89228Y29553D01*
X89266Y29665D01*
X89283Y29781D01*
X89282Y29899D01*
X89263Y30016D01*
X89226Y30128D01*
X89171Y30233D01*
X89101Y30328D01*
X89017Y30411D01*
X88921Y30479D01*
X88816Y30532D01*
X88703Y30568D01*
X88586Y30585D01*
X88468Y30584D01*
X88395Y30572D01*
Y35727D01*
X88816Y35233D01*
X89355Y34773D01*
X89959Y34403D01*
X90613Y34132D01*
X91302Y33967D01*
X92008Y33911D01*
X92010Y33911D01*
Y32930D01*
X92008Y32930D01*
X91574Y32910D01*
X91145Y32847D01*
X90724Y32744D01*
X90314Y32600D01*
X90208Y32547D01*
X90111Y32478D01*
X90027Y32395D01*
X89957Y32300D01*
X89902Y32194D01*
X89865Y32082D01*
X89845Y31965D01*
X89844Y31846D01*
X89862Y31729D01*
X89898Y31616D01*
X89951Y31510D01*
X90020Y31413D01*
X90103Y31329D01*
X90199Y31259D01*
X90304Y31204D01*
X90416Y31167D01*
X90533Y31147D01*
X90652Y31146D01*
X90769Y31164D01*
X90881Y31202D01*
X91153Y31301D01*
X91433Y31370D01*
X91719Y31411D01*
X92008Y31425D01*
X92010Y31425D01*
Y25425D01*
X92008Y25425D01*
X91719Y25439D01*
X91433Y25481D01*
X91153Y25550D01*
X90880Y25645D01*
X90768Y25683D01*
X90652Y25701D01*
X90534Y25700D01*
X90417Y25680D01*
X90305Y25643D01*
X90200Y25589D01*
X90105Y25519D01*
X90023Y25435D01*
X89954Y25339D01*
X89901Y25233D01*
X89865Y25121D01*
X89848Y25004D01*
X89849Y24886D01*
X89868Y24769D01*
X89905Y24657D01*
X89960Y24553D01*
X90030Y24458D01*
X90114Y24375D01*
X90210Y24306D01*
X90316Y24255D01*
X90724Y24107D01*
X91145Y24003D01*
X91574Y23941D01*
X92008Y23920D01*
X92010Y23920D01*
Y16033D01*
X91954Y16046D01*
X91835Y16056D01*
X91717Y16047D01*
X91602Y16019D01*
X91492Y15974D01*
X91390Y15912D01*
X91300Y15835D01*
X91223Y15745D01*
X91161Y15644D01*
X91115Y15534D01*
X91087Y15419D01*
X91077Y15300D01*
X91087Y15182D01*
X91114Y15066D01*
X91161Y14958D01*
X91319Y14617D01*
X91441Y14262D01*
X91528Y13897D01*
X91581Y13525D01*
X91598Y13150D01*
X91581Y12774D01*
X91528Y12403D01*
X91441Y12037D01*
X91319Y11682D01*
X91165Y11339D01*
X91118Y11231D01*
X91091Y11117D01*
X91082Y10999D01*
X91091Y10881D01*
X91119Y10766D01*
X91164Y10657D01*
X91226Y10557D01*
X91303Y10467D01*
X91393Y10391D01*
X91494Y10329D01*
X91603Y10284D01*
X91718Y10257D01*
X91835Y10248D01*
X91953Y10257D01*
X92010Y10271D01*
Y7244D01*
G37*
G36*
X88395D02*X83106D01*
Y10290D01*
X83128Y10281D01*
X83243Y10253D01*
X83361Y10243D01*
X83480Y10252D01*
X83595Y10280D01*
X83705Y10325D01*
X83806Y10387D01*
X83897Y10464D01*
X83974Y10554D01*
X84036Y10655D01*
X84082Y10765D01*
X84110Y10880D01*
X84119Y10999D01*
X84110Y11117D01*
X84083Y11233D01*
X84035Y11341D01*
X83877Y11682D01*
X83756Y12037D01*
X83669Y12403D01*
X83616Y12774D01*
X83598Y13150D01*
X83616Y13525D01*
X83669Y13897D01*
X83756Y14262D01*
X83877Y14617D01*
X84031Y14960D01*
X84078Y15068D01*
X84106Y15183D01*
X84115Y15300D01*
X84105Y15418D01*
X84078Y15533D01*
X84032Y15642D01*
X83971Y15742D01*
X83894Y15832D01*
X83804Y15909D01*
X83703Y15970D01*
X83594Y16015D01*
X83479Y16042D01*
X83361Y16051D01*
X83244Y16042D01*
X83129Y16014D01*
X83106Y16005D01*
Y70236D01*
X88395D01*
Y61124D01*
X88356Y61078D01*
X87986Y60474D01*
X87715Y59820D01*
X87550Y59131D01*
X87494Y58425D01*
X87550Y57719D01*
X87715Y57030D01*
X87986Y56376D01*
X88356Y55772D01*
X88395Y55727D01*
Y51124D01*
X88356Y51078D01*
X87986Y50474D01*
X87715Y49820D01*
X87550Y49131D01*
X87494Y48425D01*
X87550Y47719D01*
X87715Y47030D01*
X87986Y46376D01*
X88356Y45772D01*
X88395Y45727D01*
Y41124D01*
X88356Y41078D01*
X87986Y40474D01*
X87715Y39820D01*
X87550Y39131D01*
X87494Y38425D01*
X87550Y37719D01*
X87715Y37030D01*
X87986Y36376D01*
X88356Y35772D01*
X88395Y35727D01*
Y30572D01*
X88352Y30565D01*
X88240Y30528D01*
X88135Y30473D01*
X88040Y30403D01*
X87957Y30319D01*
X87889Y30223D01*
X87838Y30117D01*
X87690Y29709D01*
X87586Y29288D01*
X87524Y28859D01*
X87503Y28425D01*
X87524Y27992D01*
X87586Y27562D01*
X87690Y27141D01*
X87833Y26732D01*
X87886Y26625D01*
X87955Y26529D01*
X88038Y26444D01*
X88133Y26374D01*
X88239Y26319D01*
X88351Y26282D01*
X88395Y26275D01*
Y18592D01*
X88115Y18631D01*
X87598Y18656D01*
X87082Y18631D01*
X86570Y18559D01*
X86067Y18439D01*
X85578Y18272D01*
X85107Y18060D01*
X85005Y17998D01*
X84915Y17921D01*
X84837Y17831D01*
X84775Y17730D01*
X84730Y17620D01*
X84702Y17505D01*
X84692Y17387D01*
X84701Y17268D01*
X84729Y17153D01*
X84774Y17043D01*
X84836Y16942D01*
X84913Y16851D01*
X85003Y16774D01*
X85104Y16712D01*
X85214Y16666D01*
X85329Y16638D01*
X85448Y16629D01*
X85566Y16638D01*
X85682Y16665D01*
X85790Y16713D01*
X86131Y16871D01*
X86486Y16992D01*
X86851Y17079D01*
X87223Y17132D01*
X87598Y17150D01*
X87974Y17132D01*
X88345Y17079D01*
X88395Y17067D01*
Y9232D01*
X88345Y9220D01*
X87974Y9167D01*
X87598Y9150D01*
X87223Y9167D01*
X86851Y9220D01*
X86486Y9307D01*
X86131Y9429D01*
X85788Y9583D01*
X85680Y9630D01*
X85565Y9657D01*
X85448Y9666D01*
X85330Y9657D01*
X85215Y9629D01*
X85106Y9584D01*
X85006Y9522D01*
X84916Y9445D01*
X84840Y9355D01*
X84778Y9254D01*
X84733Y9145D01*
X84706Y9030D01*
X84697Y8913D01*
X84706Y8795D01*
X84734Y8680D01*
X84779Y8571D01*
X84841Y8471D01*
X84918Y8381D01*
X85008Y8304D01*
X85109Y8245D01*
X85578Y8028D01*
X86067Y7861D01*
X86570Y7740D01*
X87082Y7668D01*
X87598Y7644D01*
X88115Y7668D01*
X88395Y7708D01*
Y7244D01*
G37*
G36*
X83106D02*X67590D01*
Y7633D01*
X67598Y7633D01*
X68461Y7701D01*
X69303Y7903D01*
X70103Y8234D01*
X70841Y8686D01*
X71500Y9249D01*
X72062Y9907D01*
X72514Y10645D01*
X72845Y11445D01*
X73047Y12287D01*
X73098Y13150D01*
X73047Y14013D01*
X72845Y14854D01*
X72514Y15654D01*
X72062Y16392D01*
X71500Y17051D01*
X70841Y17613D01*
X70103Y18065D01*
X69303Y18397D01*
X68461Y18599D01*
X67598Y18667D01*
X67590Y18666D01*
Y70236D01*
X83106D01*
Y16005D01*
X83020Y15969D01*
X82919Y15907D01*
X82830Y15830D01*
X82753Y15740D01*
X82694Y15639D01*
X82476Y15170D01*
X82309Y14681D01*
X82189Y14178D01*
X82117Y13666D01*
X82092Y13150D01*
X82117Y12633D01*
X82189Y12121D01*
X82309Y11619D01*
X82476Y11129D01*
X82688Y10658D01*
X82750Y10556D01*
X82827Y10466D01*
X82917Y10389D01*
X83018Y10326D01*
X83106Y10290D01*
Y7244D01*
G37*
G36*
X67590D02*X62008D01*
Y23911D01*
X62714Y23967D01*
X63403Y24132D01*
X64057Y24403D01*
X64661Y24773D01*
X65200Y25233D01*
X65660Y25772D01*
X66030Y26376D01*
X66301Y27030D01*
X66466Y27719D01*
X66508Y28425D01*
X66466Y29131D01*
X66301Y29820D01*
X66030Y30474D01*
X65660Y31078D01*
X65200Y31617D01*
X64661Y32077D01*
X64057Y32447D01*
X63403Y32718D01*
X62714Y32884D01*
X62008Y32939D01*
Y33911D01*
X62714Y33967D01*
X63403Y34132D01*
X64057Y34403D01*
X64661Y34773D01*
X65200Y35233D01*
X65660Y35772D01*
X66030Y36376D01*
X66301Y37030D01*
X66466Y37719D01*
X66508Y38425D01*
X66466Y39131D01*
X66301Y39820D01*
X66030Y40474D01*
X65660Y41078D01*
X65200Y41617D01*
X64661Y42077D01*
X64057Y42447D01*
X63403Y42718D01*
X62714Y42884D01*
X62008Y42939D01*
Y43911D01*
X62714Y43967D01*
X63403Y44132D01*
X64057Y44403D01*
X64661Y44773D01*
X65200Y45233D01*
X65660Y45772D01*
X66030Y46376D01*
X66301Y47030D01*
X66466Y47719D01*
X66508Y48425D01*
X66466Y49131D01*
X66301Y49820D01*
X66030Y50474D01*
X65660Y51078D01*
X65200Y51617D01*
X64661Y52077D01*
X64057Y52447D01*
X63403Y52718D01*
X62714Y52884D01*
X62008Y52939D01*
Y53932D01*
X65243Y53939D01*
X65473Y53994D01*
X65691Y54085D01*
X65892Y54208D01*
X66072Y54361D01*
X66225Y54541D01*
X66349Y54742D01*
X66439Y54960D01*
X66494Y55190D01*
X66508Y55425D01*
X66494Y61661D01*
X66439Y61890D01*
X66349Y62108D01*
X66225Y62310D01*
X66072Y62489D01*
X65892Y62642D01*
X65691Y62766D01*
X65473Y62856D01*
X65243Y62911D01*
X65008Y62925D01*
X62008Y62919D01*
Y70236D01*
X67590D01*
Y18666D01*
X66735Y18599D01*
X65894Y18397D01*
X65094Y18065D01*
X64356Y17613D01*
X63697Y17051D01*
X63135Y16392D01*
X62683Y15654D01*
X62351Y14854D01*
X62149Y14013D01*
X62081Y13150D01*
X62149Y12287D01*
X62351Y11445D01*
X62683Y10645D01*
X63135Y9907D01*
X63697Y9249D01*
X64356Y8686D01*
X65094Y8234D01*
X65894Y7903D01*
X66735Y7701D01*
X67590Y7633D01*
Y7244D01*
G37*
G36*
X62008D02*X44283D01*
Y26334D01*
X44291Y26333D01*
X45154Y26401D01*
X45996Y26603D01*
X46796Y26935D01*
X47534Y27387D01*
X48192Y27949D01*
X48755Y28608D01*
X49207Y29346D01*
X49538Y30146D01*
X49740Y30987D01*
X49791Y31850D01*
X49740Y32713D01*
X49538Y33555D01*
X49207Y34355D01*
X48755Y35093D01*
X48192Y35751D01*
X47534Y36314D01*
X46796Y36766D01*
X45996Y37097D01*
X45154Y37299D01*
X44291Y37367D01*
X44283Y37367D01*
Y46334D01*
X44291Y46333D01*
X45154Y46401D01*
X45996Y46603D01*
X46796Y46935D01*
X47534Y47387D01*
X48192Y47949D01*
X48755Y48608D01*
X49207Y49346D01*
X49538Y50146D01*
X49740Y50987D01*
X49791Y51850D01*
X49740Y52713D01*
X49538Y53555D01*
X49207Y54355D01*
X48755Y55093D01*
X48192Y55751D01*
X47534Y56314D01*
X46796Y56766D01*
X45996Y57097D01*
X45154Y57299D01*
X44291Y57367D01*
X44283Y57367D01*
Y70236D01*
X62008D01*
Y62919D01*
X58772Y62911D01*
X58543Y62856D01*
X58325Y62766D01*
X58123Y62642D01*
X57944Y62489D01*
X57791Y62310D01*
X57667Y62108D01*
X57577Y61890D01*
X57522Y61661D01*
X57508Y61425D01*
X57522Y55190D01*
X57577Y54960D01*
X57667Y54742D01*
X57791Y54541D01*
X57944Y54361D01*
X58123Y54208D01*
X58325Y54085D01*
X58543Y53994D01*
X58772Y53939D01*
X59008Y53925D01*
X62008Y53932D01*
Y52939D01*
X61302Y52884D01*
X60613Y52718D01*
X59959Y52447D01*
X59355Y52077D01*
X58816Y51617D01*
X58356Y51078D01*
X57986Y50474D01*
X57715Y49820D01*
X57550Y49131D01*
X57494Y48425D01*
X57550Y47719D01*
X57715Y47030D01*
X57986Y46376D01*
X58356Y45772D01*
X58816Y45233D01*
X59355Y44773D01*
X59959Y44403D01*
X60613Y44132D01*
X61302Y43967D01*
X62008Y43911D01*
Y42939D01*
X61302Y42884D01*
X60613Y42718D01*
X59959Y42447D01*
X59355Y42077D01*
X58816Y41617D01*
X58356Y41078D01*
X57986Y40474D01*
X57715Y39820D01*
X57550Y39131D01*
X57494Y38425D01*
X57550Y37719D01*
X57715Y37030D01*
X57986Y36376D01*
X58356Y35772D01*
X58816Y35233D01*
X59355Y34773D01*
X59959Y34403D01*
X60613Y34132D01*
X61302Y33967D01*
X62008Y33911D01*
Y32939D01*
X61302Y32884D01*
X60613Y32718D01*
X59959Y32447D01*
X59355Y32077D01*
X58816Y31617D01*
X58356Y31078D01*
X57986Y30474D01*
X57715Y29820D01*
X57550Y29131D01*
X57494Y28425D01*
X57550Y27719D01*
X57715Y27030D01*
X57986Y26376D01*
X58356Y25772D01*
X58816Y25233D01*
X59355Y24773D01*
X59959Y24403D01*
X60613Y24132D01*
X61302Y23967D01*
X62008Y23911D01*
Y7244D01*
G37*
G36*
X44283D02*X33438D01*
Y62001D01*
X33550Y62035D01*
X33656Y62087D01*
X33753Y62154D01*
X33837Y62236D01*
X33909Y62330D01*
X33962Y62436D01*
X34121Y62839D01*
X34238Y63256D01*
X34317Y63682D01*
X34356Y64114D01*
Y64547D01*
X34317Y64979D01*
X34238Y65405D01*
X34121Y65823D01*
X33966Y66228D01*
X33911Y66333D01*
X33840Y66427D01*
X33755Y66510D01*
X33658Y66578D01*
X33551Y66630D01*
X33438Y66664D01*
Y70236D01*
X44283D01*
Y57367D01*
X43428Y57299D01*
X42587Y57097D01*
X41787Y56766D01*
X41049Y56314D01*
X40390Y55751D01*
X39828Y55093D01*
X39376Y54355D01*
X39044Y53555D01*
X38842Y52713D01*
X38774Y51850D01*
X38842Y50987D01*
X39044Y50146D01*
X39376Y49346D01*
X39828Y48608D01*
X40390Y47949D01*
X41049Y47387D01*
X41787Y46935D01*
X42587Y46603D01*
X43428Y46401D01*
X44283Y46334D01*
Y37367D01*
X43428Y37299D01*
X42587Y37097D01*
X41787Y36766D01*
X41049Y36314D01*
X40390Y35751D01*
X39828Y35093D01*
X39376Y34355D01*
X39044Y33555D01*
X38842Y32713D01*
X38774Y31850D01*
X38842Y30987D01*
X39044Y30146D01*
X39376Y29346D01*
X39828Y28608D01*
X40390Y27949D01*
X41049Y27387D01*
X41787Y26935D01*
X42587Y26603D01*
X43428Y26401D01*
X44283Y26334D01*
Y7244D01*
G37*
G36*
X33438D02*X29608D01*
Y59581D01*
X29823D01*
X30255Y59620D01*
X30681Y59699D01*
X31098Y59816D01*
X31503Y59971D01*
X31608Y60026D01*
X31703Y60097D01*
X31785Y60182D01*
X31853Y60279D01*
X31905Y60386D01*
X31940Y60499D01*
X31957Y60617D01*
X31954Y60735D01*
X31934Y60852D01*
X31895Y60964D01*
X31839Y61069D01*
X31768Y61164D01*
X31683Y61246D01*
X31586Y61314D01*
X31479Y61366D01*
X31366Y61401D01*
X31248Y61417D01*
X31130Y61415D01*
X31013Y61394D01*
X30902Y61354D01*
X30626Y61245D01*
X30341Y61165D01*
X30050Y61111D01*
X29754Y61084D01*
X29608D01*
Y67577D01*
X29754D01*
X30050Y67550D01*
X30341Y67497D01*
X30626Y67417D01*
X30903Y67311D01*
X31014Y67270D01*
X31130Y67250D01*
X31248Y67248D01*
X31365Y67264D01*
X31478Y67299D01*
X31584Y67350D01*
X31681Y67418D01*
X31766Y67500D01*
X31837Y67594D01*
X31892Y67698D01*
X31930Y67810D01*
X31951Y67926D01*
X31953Y68044D01*
X31937Y68161D01*
X31902Y68274D01*
X31850Y68380D01*
X31783Y68477D01*
X31701Y68562D01*
X31607Y68633D01*
X31501Y68686D01*
X31098Y68845D01*
X30681Y68963D01*
X30255Y69041D01*
X29823Y69081D01*
X29608D01*
Y70236D01*
X33438D01*
Y66664D01*
X33438Y66664D01*
X33320Y66681D01*
X33202Y66679D01*
X33085Y66658D01*
X32973Y66620D01*
X32868Y66564D01*
X32773Y66492D01*
X32691Y66407D01*
X32623Y66310D01*
X32571Y66203D01*
X32536Y66090D01*
X32520Y65973D01*
X32522Y65854D01*
X32543Y65737D01*
X32583Y65626D01*
X32692Y65351D01*
X32772Y65065D01*
X32826Y64774D01*
X32853Y64479D01*
Y64183D01*
X32826Y63887D01*
X32772Y63596D01*
X32692Y63311D01*
X32586Y63034D01*
X32546Y62923D01*
X32525Y62807D01*
X32523Y62689D01*
X32540Y62572D01*
X32574Y62459D01*
X32626Y62353D01*
X32694Y62256D01*
X32776Y62171D01*
X32870Y62100D01*
X32974Y62045D01*
X33086Y62007D01*
X33202Y61986D01*
X33320Y61984D01*
X33437Y62000D01*
X33438Y62001D01*
Y7244D01*
G37*
G36*
X29608D02*X25775D01*
Y61997D01*
X25775Y61997D01*
X25893Y61981D01*
X26011Y61983D01*
X26128Y62003D01*
X26240Y62042D01*
X26345Y62098D01*
X26439Y62169D01*
X26522Y62254D01*
X26590Y62351D01*
X26642Y62458D01*
X26676Y62571D01*
X26693Y62689D01*
X26691Y62807D01*
X26670Y62924D01*
X26629Y63035D01*
X26520Y63311D01*
X26440Y63596D01*
X26387Y63887D01*
X26360Y64183D01*
Y64479D01*
X26387Y64774D01*
X26440Y65065D01*
X26520Y65351D01*
X26626Y65627D01*
X26667Y65738D01*
X26687Y65854D01*
X26689Y65972D01*
X26673Y66089D01*
X26638Y66202D01*
X26587Y66308D01*
X26519Y66405D01*
X26437Y66490D01*
X26343Y66561D01*
X26239Y66616D01*
X26127Y66655D01*
X26011Y66675D01*
X25893Y66678D01*
X25776Y66661D01*
X25775Y66661D01*
Y70236D01*
X29608D01*
Y69081D01*
X29390D01*
X28958Y69041D01*
X28532Y68963D01*
X28114Y68845D01*
X27709Y68691D01*
X27604Y68636D01*
X27510Y68564D01*
X27427Y68479D01*
X27359Y68382D01*
X27307Y68275D01*
X27273Y68162D01*
X27256Y68045D01*
X27258Y67926D01*
X27279Y67809D01*
X27317Y67697D01*
X27373Y67592D01*
X27445Y67498D01*
X27530Y67415D01*
X27627Y67347D01*
X27734Y67295D01*
X27847Y67261D01*
X27964Y67244D01*
X28083Y67246D01*
X28200Y67267D01*
X28311Y67308D01*
X28586Y67417D01*
X28872Y67497D01*
X29163Y67550D01*
X29458Y67577D01*
X29608D01*
Y61084D01*
X29458D01*
X29163Y61111D01*
X28872Y61165D01*
X28586Y61245D01*
X28310Y61351D01*
X28199Y61391D01*
X28083Y61412D01*
X27965Y61414D01*
X27848Y61397D01*
X27735Y61363D01*
X27629Y61311D01*
X27532Y61243D01*
X27447Y61161D01*
X27376Y61067D01*
X27321Y60963D01*
X27282Y60851D01*
X27262Y60735D01*
X27259Y60617D01*
X27276Y60500D01*
X27310Y60387D01*
X27362Y60281D01*
X27430Y60184D01*
X27512Y60100D01*
X27606Y60028D01*
X27711Y59975D01*
X28114Y59816D01*
X28532Y59699D01*
X28958Y59620D01*
X29390Y59581D01*
X29608D01*
Y7244D01*
G37*
G36*
X25775D02*X19606D01*
Y59587D01*
X23092Y59595D01*
X23321Y59650D01*
X23539Y59740D01*
X23741Y59863D01*
X23920Y60017D01*
X24074Y60196D01*
X24197Y60398D01*
X24287Y60616D01*
X24342Y60845D01*
X24356Y61081D01*
X24342Y67816D01*
X24287Y68046D01*
X24197Y68264D01*
X24074Y68465D01*
X23920Y68645D01*
X23741Y68798D01*
X23539Y68921D01*
X23321Y69012D01*
X23092Y69067D01*
X22856Y69081D01*
X19606Y69074D01*
Y70236D01*
X25775D01*
Y66661D01*
X25663Y66627D01*
X25557Y66575D01*
X25460Y66507D01*
X25375Y66425D01*
X25304Y66331D01*
X25251Y66226D01*
X25092Y65823D01*
X24974Y65405D01*
X24896Y64979D01*
X24856Y64547D01*
Y64114D01*
X24896Y63682D01*
X24974Y63256D01*
X25092Y62839D01*
X25246Y62434D01*
X25301Y62329D01*
X25373Y62234D01*
X25458Y62152D01*
X25555Y62084D01*
X25662Y62032D01*
X25775Y61997D01*
Y7244D01*
G37*
G36*
X19606D02*X13121D01*
Y36948D01*
X13164Y36955D01*
X13276Y36992D01*
X13381Y37047D01*
X13476Y37117D01*
X13558Y37201D01*
X13627Y37297D01*
X13678Y37403D01*
X13826Y37811D01*
X13930Y38232D01*
X13992Y38661D01*
X14013Y39095D01*
X13992Y39528D01*
X13930Y39958D01*
X13826Y40379D01*
X13683Y40789D01*
X13630Y40895D01*
X13561Y40991D01*
X13478Y41076D01*
X13382Y41146D01*
X13277Y41201D01*
X13165Y41238D01*
X13121Y41245D01*
Y44725D01*
X13191Y44754D01*
X13392Y44878D01*
X13572Y45031D01*
X13725Y45210D01*
X13849Y45412D01*
X13939Y45630D01*
X13994Y45860D01*
X14008Y46095D01*
X13994Y52330D01*
X13939Y52560D01*
X13849Y52778D01*
X13725Y52979D01*
X13572Y53159D01*
X13392Y53312D01*
X13191Y53436D01*
X13121Y53464D01*
Y70236D01*
X19606D01*
Y69074D01*
X16121Y69067D01*
X15891Y69012D01*
X15673Y68921D01*
X15472Y68798D01*
X15292Y68645D01*
X15139Y68465D01*
X15016Y68264D01*
X14925Y68046D01*
X14870Y67816D01*
X14856Y67581D01*
X14870Y60845D01*
X14925Y60616D01*
X15016Y60398D01*
X15139Y60196D01*
X15292Y60017D01*
X15472Y59863D01*
X15673Y59740D01*
X15891Y59650D01*
X16121Y59595D01*
X16356Y59581D01*
X19606Y59587D01*
Y7244D01*
G37*
G36*
X13121Y53464D02*X12973Y53526D01*
X12743Y53581D01*
X12508Y53595D01*
X9508Y53588D01*
Y70236D01*
X13121D01*
Y53464D01*
G37*
G36*
Y7244D02*X9508D01*
Y34590D01*
X9941Y34611D01*
X10371Y34673D01*
X10792Y34777D01*
X11202Y34920D01*
X11308Y34973D01*
X11404Y35042D01*
X11489Y35125D01*
X11559Y35220D01*
X11614Y35326D01*
X11651Y35438D01*
X11671Y35555D01*
X11671Y35674D01*
X11654Y35791D01*
X11618Y35904D01*
X11565Y36010D01*
X11496Y36107D01*
X11413Y36191D01*
X11317Y36261D01*
X11212Y36316D01*
X11099Y36354D01*
X10982Y36373D01*
X10864Y36374D01*
X10747Y36356D01*
X10634Y36318D01*
X10363Y36219D01*
X10082Y36150D01*
X9796Y36109D01*
X9508Y36095D01*
Y42095D01*
X9796Y42081D01*
X10082Y42039D01*
X10363Y41970D01*
X10636Y41875D01*
X10747Y41837D01*
X10864Y41819D01*
X10982Y41820D01*
X11099Y41840D01*
X11211Y41877D01*
X11315Y41931D01*
X11410Y42001D01*
X11493Y42085D01*
X11562Y42181D01*
X11615Y42287D01*
X11650Y42400D01*
X11668Y42516D01*
X11667Y42634D01*
X11648Y42751D01*
X11611Y42863D01*
X11556Y42968D01*
X11486Y43063D01*
X11402Y43145D01*
X11306Y43214D01*
X11200Y43265D01*
X10792Y43413D01*
X10371Y43517D01*
X9941Y43579D01*
X9508Y43600D01*
Y44602D01*
X12743Y44609D01*
X12973Y44664D01*
X13121Y44725D01*
Y41245D01*
X13048Y41258D01*
X12929Y41259D01*
X12812Y41241D01*
X12699Y41205D01*
X12593Y41152D01*
X12496Y41083D01*
X12412Y41000D01*
X12341Y40904D01*
X12287Y40799D01*
X12249Y40686D01*
X12230Y40569D01*
X12229Y40451D01*
X12247Y40334D01*
X12285Y40221D01*
X12383Y39950D01*
X12452Y39669D01*
X12494Y39383D01*
X12508Y39095D01*
X12494Y38806D01*
X12452Y38520D01*
X12383Y38240D01*
X12288Y37967D01*
X12250Y37855D01*
X12232Y37739D01*
X12233Y37621D01*
X12253Y37504D01*
X12290Y37392D01*
X12344Y37287D01*
X12414Y37192D01*
X12498Y37110D01*
X12594Y37041D01*
X12700Y36988D01*
X12813Y36952D01*
X12929Y36935D01*
X13047Y36936D01*
X13121Y36948D01*
Y7244D01*
G37*
G36*
X5895Y70236D02*X9508D01*
Y53588D01*
X6272Y53581D01*
X6043Y53526D01*
X5895Y53464D01*
Y70236D01*
G37*
G36*
X9508Y7244D02*X5895D01*
Y36944D01*
X5968Y36932D01*
X6087Y36931D01*
X6204Y36949D01*
X6317Y36985D01*
X6423Y37038D01*
X6520Y37107D01*
X6604Y37190D01*
X6674Y37286D01*
X6729Y37391D01*
X6767Y37503D01*
X6786Y37620D01*
X6787Y37739D01*
X6769Y37856D01*
X6731Y37968D01*
X6632Y38240D01*
X6563Y38520D01*
X6522Y38806D01*
X6508Y39095D01*
X6522Y39383D01*
X6563Y39669D01*
X6632Y39950D01*
X6728Y40223D01*
X6766Y40334D01*
X6783Y40451D01*
X6782Y40569D01*
X6763Y40686D01*
X6726Y40798D01*
X6671Y40902D01*
X6601Y40997D01*
X6517Y41080D01*
X6421Y41149D01*
X6316Y41202D01*
X6203Y41237D01*
X6086Y41255D01*
X5968Y41254D01*
X5895Y41242D01*
Y44725D01*
X6043Y44664D01*
X6272Y44609D01*
X6508Y44595D01*
X9508Y44602D01*
Y43600D01*
X9074Y43579D01*
X8645Y43517D01*
X8224Y43413D01*
X7814Y43270D01*
X7708Y43217D01*
X7611Y43148D01*
X7527Y43065D01*
X7457Y42969D01*
X7402Y42864D01*
X7365Y42752D01*
X7345Y42635D01*
X7344Y42516D01*
X7362Y42399D01*
X7398Y42286D01*
X7451Y42180D01*
X7520Y42083D01*
X7603Y41999D01*
X7699Y41928D01*
X7804Y41874D01*
X7916Y41836D01*
X8033Y41817D01*
X8152Y41816D01*
X8269Y41834D01*
X8381Y41872D01*
X8653Y41970D01*
X8933Y42039D01*
X9219Y42081D01*
X9508Y42095D01*
Y36095D01*
X9219Y36109D01*
X8933Y36150D01*
X8653Y36219D01*
X8380Y36315D01*
X8268Y36353D01*
X8152Y36370D01*
X8034Y36369D01*
X7917Y36350D01*
X7805Y36313D01*
X7700Y36259D01*
X7605Y36188D01*
X7523Y36104D01*
X7454Y36008D01*
X7401Y35903D01*
X7365Y35790D01*
X7348Y35674D01*
X7349Y35555D01*
X7368Y35439D01*
X7405Y35327D01*
X7460Y35222D01*
X7530Y35127D01*
X7614Y35044D01*
X7710Y34976D01*
X7816Y34925D01*
X8224Y34777D01*
X8645Y34673D01*
X9074Y34611D01*
X9508Y34590D01*
X9508D01*
Y7244D01*
G37*
G36*
X5895D02*X3937D01*
Y70236D01*
X5895D01*
Y53464D01*
X5825Y53436D01*
X5623Y53312D01*
X5444Y53159D01*
X5291Y52979D01*
X5167Y52778D01*
X5077Y52560D01*
X5022Y52330D01*
X5008Y52095D01*
X5022Y45860D01*
X5077Y45630D01*
X5167Y45412D01*
X5291Y45210D01*
X5444Y45031D01*
X5623Y44878D01*
X5825Y44754D01*
X5895Y44725D01*
Y41242D01*
X5852Y41235D01*
X5740Y41198D01*
X5635Y41143D01*
X5540Y41073D01*
X5457Y40989D01*
X5389Y40893D01*
X5338Y40787D01*
X5190Y40379D01*
X5086Y39958D01*
X5024Y39528D01*
X5003Y39095D01*
X5024Y38661D01*
X5086Y38232D01*
X5190Y37811D01*
X5333Y37401D01*
X5386Y37295D01*
X5455Y37199D01*
X5538Y37114D01*
X5633Y37044D01*
X5739Y36989D01*
X5851Y36952D01*
X5895Y36944D01*
Y7244D01*
G37*
G54D86*X144685Y25945D02*X114843D01*
X109252Y31535D01*
X155039Y16102D02*Y16575D01*
Y16102D02*X154528D01*
X144685Y25945D01*
X166339Y40709D02*X158465Y32835D01*
X151575D01*
X144685Y25945D01*
G54D85*G36*
X59008Y61425D02*Y55425D01*
X65008D01*
Y61425D01*
X59008D01*
G37*
G54D87*X62008Y48425D03*
Y38425D03*
Y28425D03*
X92008D03*
Y38425D03*
Y48425D03*
G54D88*X87598Y13150D03*
X67598D03*
X44291Y31850D03*
Y51850D03*
G54D85*G36*
X6508Y52095D02*Y46095D01*
X12508D01*
Y52095D01*
X6508D01*
G37*
G54D87*X9508Y39095D03*
G54D85*G36*
X7093Y78892D02*Y73392D01*
X12593D01*
Y78892D01*
X7093D01*
G37*
G54D89*X39843Y76142D03*
G54D88*X87598D03*
X67598D03*
G54D85*G36*
X16356Y67581D02*Y61081D01*
X22856D01*
Y67581D01*
X16356D01*
G37*
G54D90*X29606Y64331D03*
G54D85*G36*
X214520Y54535D02*Y48535D01*
X220520D01*
Y54535D01*
X214520D01*
G37*
G54D87*X217520Y61535D03*
X92008Y58425D03*
G54D88*X109252Y51535D03*
G54D91*X125190Y66235D03*
X144875D03*
X135033Y76078D03*
G54D89*X156496Y70709D03*
G54D85*G36*
X163589Y73459D02*Y67959D01*
X169089D01*
Y73459D01*
X163589D01*
G37*
G54D88*X109252Y31535D03*
G54D85*G36*
X121243Y40372D02*Y33172D01*
X128443D01*
Y40372D01*
X121243D01*
G37*
G36*
X141243Y18718D02*Y11518D01*
X148443D01*
Y18718D01*
X141243D01*
G37*
G36*
X182289Y18852D02*Y13352D01*
X187789D01*
Y18852D01*
X182289D01*
G37*
G54D89*X155039Y16102D03*
G54D92*X134843Y15118D03*
X124843D03*
X134843Y36772D03*
X144843D03*
G54D85*G36*
X153746Y43459D02*Y37959D01*
X159246D01*
Y43459D01*
X153746D01*
G37*
G54D89*X166339Y40709D03*
G54D85*G36*
X152762Y28695D02*Y23195D01*
X158262D01*
Y28695D01*
X152762D01*
G37*
G54D89*X185512Y25945D03*
G54D93*G54D94*G54D95*G54D96*G54D94*G54D97*G54D95*G54D93*G54D94*G54D98*G54D96*G54D94*G54D99*G54D96*G54D99*G54D96*M02*
