M48
INCH
T107C0.042
T106C0.020
T105C0.043
T104C0.030
T103C0.038
T102C0.035
T101C0.028
%
T106
X0012520Y0006620
X0013500Y0007610
X0014490Y0006620
T101
X0006200Y0005840
X0006200Y0004840
X0006200Y0003840
X0006200Y0002840
X0009200Y0005840
X0009200Y0004840
X0009200Y0003840
X0009200Y0002840
T104
X0000980Y0007610
X0003980Y0007610
X0015500Y0001610
X0015550Y0002590
X0015650Y0007070
X0015650Y0004070
X0016630Y0007070
X0016630Y0004070
X0018500Y0001610
X0018550Y0002590
T102
X0004430Y0005190
X0004430Y0003190
X0006760Y0007610
X0006760Y0001310
X0008760Y0007610
X0008760Y0001310
X0010930Y0005150
X0010930Y0003150
T103
X0000950Y0004910
X0000950Y0003910
X0021750Y0006150
X0021750Y0005150
T107
X0012480Y0003680
X0012480Y0001510
X0013480Y0003680
X0013480Y0001510
X0014480Y0003680
X0014480Y0001510
T105
X0001960Y0006430
X0002960Y0006430
M30
