G04 start of page 2 for group 0 idx 0 *
G04 Title: OpenTDCS, v4, component *
G04 Creator: pcb 1.99z *
G04 CreationDate: Thu 18 Oct 2012 01:14:54 AM GMT UTC *
G04 For: nock *
G04 Format: Gerber/RS-274X *
G04 PCB-Dimensions (mil): 2250.00 850.00 *
G04 PCB-Coordinate-Origin: lower left *
%MOIN*%
%FSLAX25Y25*%
%LNTOP*%
%ADD154C,0.0280*%
%ADD153C,0.0200*%
%ADD152C,0.0420*%
%ADD151C,0.0430*%
%ADD150C,0.0300*%
%ADD149C,0.0380*%
%ADD148C,0.0350*%
%ADD147C,0.0360*%
%ADD146C,0.0720*%
%ADD145C,0.0550*%
%ADD144C,0.0650*%
%ADD143C,0.0600*%
%ADD142C,0.0001*%
%ADD141C,0.0800*%
%ADD140C,0.0250*%
G54D140*X177165Y40709D02*Y21952D01*
X165354Y40709D02*Y30922D01*
X216535Y51378D02*X200787D01*
X177165Y21952D02*X134843D01*
Y16102D01*
X221785Y16102D02*X144843D01*
X165354Y30922D02*X134843D01*
X135033Y76078D02*Y73459D01*
X134843Y36772D02*Y30922D01*
X144875Y66235D02*X144843D01*
Y36772D01*
X221785Y61378D02*Y16102D01*
X62008Y51850D02*X44291D01*
X35106Y52095D02*X12508D01*
Y49095D01*
X12508Y49095D02*X9508D01*
X62008Y51850D02*Y48425D01*
X92008Y58425D02*Y53675D01*
X67598Y58425D02*X62008D01*
X109252Y51535D02*Y40372D01*
X109252Y53675D02*X92008D01*
X109252D02*Y51535D01*
X92008Y38425D02*X81348D01*
X92008Y48425D02*X86758D01*
X39843Y82392D02*Y76142D01*
X39843Y76142D02*X35106D01*
Y52095D01*
X81348Y82392D02*X39843D01*
X16356Y76142D02*X9843D01*
X16356D02*Y67581D01*
X19606Y67581D02*X16356D01*
X19606D02*Y64331D01*
X67598Y76142D02*Y58425D01*
X81348Y82392D02*Y38425D01*
X86758Y72142D02*Y48425D01*
X87598Y72142D02*X86758D01*
X87598Y76142D02*Y72142D01*
X62008Y38425D02*Y33675D01*
X62008Y33675D02*X44291D01*
Y31850D01*
X66614Y19400D02*Y13150D01*
X66614Y28425D02*X62008D01*
X66614D02*Y13150D01*
X124843Y19400D02*Y16102D01*
X123390Y40372D02*X109252D01*
X123390D02*Y37785D01*
X124843Y37785D02*X123390D01*
X124843D02*Y36772D01*
X124843Y19400D02*X66614D01*
X221785Y61378D02*X216535D01*
Y75236D02*Y61378D01*
X188976Y70709D02*X177165D01*
X165354Y73459D02*X135033D01*
X165354D02*Y70709D01*
X144875Y66235D02*Y65236D01*
X200787Y65236D02*X144875D01*
X188976Y75236D02*Y70236D01*
X216535Y75236D02*X188976D01*
Y70709D02*Y70236D01*
X200787Y67736D02*Y51378D01*
Y70236D02*Y65236D01*
G54D141*X44291Y31850D03*
G54D142*G36*
X6508Y52095D02*Y46095D01*
X12508D01*
Y52095D01*
X6508D01*
G37*
G54D143*X9508Y39095D03*
G54D142*G36*
X7093Y78892D02*Y73392D01*
X12593D01*
Y78892D01*
X7093D01*
G37*
G36*
X16356Y67581D02*Y61081D01*
X22856D01*
Y67581D01*
X16356D01*
G37*
G54D144*X29606Y64331D03*
G54D145*X39843Y76142D03*
G54D141*X109252Y31535D03*
G54D142*G36*
X174415Y43459D02*Y37959D01*
X179915D01*
Y43459D01*
X174415D01*
G37*
G36*
X162604D02*Y37959D01*
X168104D01*
Y43459D01*
X162604D01*
G37*
G36*
X121243Y40372D02*Y33172D01*
X128443D01*
Y40372D01*
X121243D01*
G37*
G54D146*X134843Y36772D03*
X144843D03*
G54D142*G36*
X121243Y19702D02*Y12502D01*
X128443D01*
Y19702D01*
X121243D01*
G37*
G54D146*X134843Y16102D03*
X144843D03*
G54D141*X109252Y51535D03*
G54D145*X177165Y70709D03*
X165354D03*
G54D142*G36*
X198037Y72986D02*Y67486D01*
X203537D01*
Y72986D01*
X198037D01*
G37*
G54D145*X200787Y40236D03*
G54D142*G36*
X186226Y72986D02*Y67486D01*
X191726D01*
Y72986D01*
X186226D01*
G37*
G54D145*X188976Y40236D03*
G54D142*G36*
X213535Y64378D02*Y58378D01*
X219535D01*
Y64378D01*
X213535D01*
G37*
G54D143*X216535Y51378D03*
G54D147*X125190Y66235D03*
X144875D03*
X135033Y76078D03*
G54D142*G36*
X59008Y61425D02*Y55425D01*
X65008D01*
Y61425D01*
X59008D01*
G37*
G54D143*X92008Y58425D03*
G54D141*X44291Y51850D03*
G54D143*X62008Y48425D03*
Y38425D03*
Y28425D03*
X92008D03*
Y38425D03*
Y48425D03*
G54D141*X87598Y76142D03*
X67598D03*
X87598Y13150D03*
X67598D03*
G54D148*G54D149*G54D150*G54D151*G54D150*G54D148*G54D150*G54D152*G54D148*G54D150*G54D149*G54D153*G54D154*G54D148*G54D154*G54D148*M02*
