G04 start of page 8 for group -4079 idx -4079 *
G04 Title: OpenTDCS, v4, topsilk *
G04 Creator: pcb 1.99z *
G04 CreationDate: Thu 16 May 2013 08:09:45 PM GMT UTC *
G04 For: nock *
G04 Format: Gerber/RS-274X *
G04 PCB-Dimensions (mil): 2250.00 850.00 *
G04 PCB-Coordinate-Origin: lower left *
%MOIN*%
%FSLAX25Y25*%
%LNTOPSILK*%
%ADD66C,0.0100*%
%ADD65C,0.0080*%
%ADD64C,0.0250*%
%ADD63C,0.0001*%
G54D63*G36*
X208935Y27761D02*X211512D01*
X211595Y27729D01*
X211642Y27653D01*
X211691Y27413D01*
X211735Y27192D01*
X212126Y25059D01*
X212173Y24972D01*
X212256Y24913D01*
X212359Y24870D01*
X213149Y24598D01*
X213899Y24241D01*
X213905D01*
X213992Y24203D01*
X214089Y24189D01*
X214187Y24220D01*
X215960Y25439D01*
X216151Y25563D01*
X216352Y25700D01*
X216438Y25724D01*
X216520Y25689D01*
X216851Y25359D01*
X217355Y24859D01*
X217513Y24696D01*
X218012Y24198D01*
X218174Y24041D01*
X218342Y23867D01*
X218381Y23781D01*
X218359Y23693D01*
X218223Y23492D01*
X218094Y23302D01*
X216905Y21566D01*
X216873Y21474D01*
X216888Y21376D01*
X216933Y21278D01*
X217616Y19672D01*
X217653Y19581D01*
X217716Y19503D01*
X217806Y19456D01*
X219845Y19074D01*
X220069Y19031D01*
X220312Y18989D01*
X220387Y18942D01*
X220416Y18859D01*
Y16281D01*
X220387Y16193D01*
X220312Y16146D01*
X220069Y16103D01*
X219845Y16059D01*
X217866Y15691D01*
X217778Y15643D01*
X217724Y15559D01*
X217696Y15500D01*
Y15489D01*
X216981Y13716D01*
X216976Y13704D01*
X216959Y13661D01*
X216942Y13559D01*
X216970Y13466D01*
X218099Y11833D01*
X218223Y11643D01*
X218364Y11442D01*
X218383Y11356D01*
X218342Y11274D01*
X218174Y11094D01*
X218012Y10937D01*
X216694Y9620D01*
X216520Y9452D01*
X216438Y9411D01*
X216352Y9429D01*
X216151Y9570D01*
X215960Y9694D01*
X214366Y10792D01*
X214267Y10820D01*
X214170Y10802D01*
X213839Y10618D01*
X213645Y10509D01*
X213298Y10331D01*
X213213Y10324D01*
X213151Y10385D01*
X213005Y10742D01*
X212917Y10948D01*
X211534Y14307D01*
X211446Y14513D01*
X211349Y14746D01*
X211345Y14841D01*
X211398Y14913D01*
X211621Y15044D01*
X211762Y15153D01*
X212298Y15598D01*
X212713Y16163D01*
X212980Y16822D01*
X213074Y17552D01*
X213016Y18126D01*
X212851Y18661D01*
X212588Y19146D01*
X212239Y19568D01*
X211819Y19917D01*
X211335Y20181D01*
X210801Y20346D01*
X210227Y20404D01*
X209652Y20346D01*
X209117Y20181D01*
X208634Y19917D01*
X208212Y19568D01*
X207864Y19146D01*
X207602Y18661D01*
X207437Y18126D01*
X207378Y17552D01*
X207471Y16822D01*
X207738Y16163D01*
X208152Y15598D01*
X208691Y15153D01*
X208827Y15044D01*
X209049Y14913D01*
X209103Y14841D01*
X209098Y14746D01*
X209001Y14513D01*
X208913Y14307D01*
X207530Y10948D01*
X207444Y10742D01*
X207296Y10385D01*
X207235Y10324D01*
X207151Y10331D01*
X206809Y10509D01*
X206608Y10618D01*
X206277Y10802D01*
X206178Y10820D01*
X206081Y10792D01*
X204487Y9694D01*
X204302Y9570D01*
X204096Y9429D01*
X204009Y9411D01*
X203927Y9452D01*
X203753Y9620D01*
X203596Y9781D01*
X203098Y10281D01*
X202935Y10439D01*
X202435Y10937D01*
X202273Y11094D01*
X202105Y11274D01*
X202066Y11356D01*
X202088Y11442D01*
X202224Y11643D01*
X202355Y11833D01*
X203477Y13466D01*
X203505Y13559D01*
X203488Y13661D01*
X203466Y13720D01*
X202756Y15494D01*
X202723Y15559D01*
X202669Y15643D01*
X202583Y15691D01*
X200602Y16059D01*
X200380Y16103D01*
X200141Y16146D01*
X200062Y16196D01*
X200033Y16281D01*
Y18859D01*
X200062Y18942D01*
X200141Y18989D01*
X200380Y19037D01*
X200602Y19074D01*
X202642Y19456D01*
X202731Y19503D01*
X202794Y19585D01*
X202831Y19672D01*
X203520Y21278D01*
X203559Y21376D01*
X203576Y21474D01*
X203548Y21566D01*
X202355Y23307D01*
X202224Y23492D01*
X202088Y23693D01*
X202066Y23781D01*
X202105Y23867D01*
X202273Y24041D01*
X202435Y24198D01*
X203927Y25689D01*
X204009Y25724D01*
X204096Y25706D01*
X204302Y25570D01*
X204487Y25439D01*
X206260Y24220D01*
X206358Y24191D01*
X206456Y24209D01*
X206542Y24241D01*
X206553Y24246D01*
X207299Y24600D01*
X208089Y24874D01*
X208192Y24913D01*
X208276Y24972D01*
X208321Y25059D01*
X208719Y27192D01*
X208756Y27413D01*
X208805Y27653D01*
X208852Y27729D01*
X208935Y27761D01*
G37*
G54D64*X984Y18071D02*X49213D01*
X54134Y13150D01*
Y354D01*
X0Y17087D02*X984Y18071D01*
G54D65*X8858Y31803D02*X10858D01*
X8858Y57394D02*X10858D01*
X9858Y58394D02*Y56394D01*
X3203Y5713D02*Y4213D01*
Y5713D02*X3703Y6213D01*
X4203D01*
X4703Y5713D01*
Y4213D01*
Y5713D02*X5203Y6213D01*
X5703D01*
X6203Y5713D01*
Y4213D01*
X2703Y6213D02*X3203Y5713D01*
X7903Y4213D02*X9403D01*
X7403Y4713D02*X7903Y4213D01*
X7403Y5713D02*Y4713D01*
Y5713D02*X7903Y6213D01*
X8903D01*
X9403Y5713D01*
X7403Y5213D02*X9403D01*
Y5713D02*Y5213D01*
X12103Y6213D02*X12603Y5713D01*
X11103Y6213D02*X12103D01*
X10603Y5713D02*X11103Y6213D01*
X10603Y5713D02*Y4713D01*
X11103Y4213D01*
X12603Y6213D02*Y4713D01*
X13103Y4213D01*
X11103D02*X12103D01*
X12603Y4713D01*
X14803Y8213D02*Y4713D01*
X15303Y4213D01*
X14303Y6713D02*X15303D01*
X16303Y8213D02*Y5213D01*
X17303Y4213D01*
X20303D01*
X21303Y8213D02*Y5713D01*
Y8213D02*X20303Y9213D01*
X17303D02*X20303D01*
X17303D02*X16303Y8213D01*
X17803Y7213D02*Y6213D01*
X18303Y5713D01*
X19303D01*
X19803Y6213D01*
X20303Y5713D01*
X19803Y7713D02*Y6213D01*
Y7213D02*X19303Y7713D01*
X18303D02*X19303D01*
X18303D02*X17803Y7213D01*
X20303Y5713D02*X21303D01*
X22503Y8213D02*Y4213D01*
Y5713D02*X23003Y6213D01*
X24003D01*
X24503Y5713D01*
Y4213D01*
X27203Y6213D02*X27703Y5713D01*
X26203Y6213D02*X27203D01*
X25703Y5713D02*X26203Y6213D01*
X25703Y5713D02*Y4713D01*
X26203Y4213D01*
X27703Y6213D02*Y4713D01*
X28203Y4213D01*
X26203D02*X27203D01*
X27703Y4713D01*
X29903Y6213D02*X31403D01*
X29403Y5713D02*X29903Y6213D01*
X29403Y5713D02*Y4713D01*
X29903Y4213D01*
X31403D01*
X34603Y8213D02*Y4213D01*
X34103D02*X34603Y4713D01*
X33103Y4213D02*X34103D01*
X32603Y4713D02*X33103Y4213D01*
X32603Y5713D02*Y4713D01*
Y5713D02*X33103Y6213D01*
X34103D01*
X34603Y5713D01*
X36303Y6213D02*X37803D01*
X35803Y5713D02*X36303Y6213D01*
X35803Y5713D02*Y4713D01*
X36303Y4213D01*
X37803D01*
X39003D02*X39503D01*
X40703Y5713D02*Y4713D01*
Y5713D02*X41203Y6213D01*
X42203D01*
X42703Y5713D01*
Y4713D01*
X42203Y4213D02*X42703Y4713D01*
X41203Y4213D02*X42203D01*
X40703Y4713D02*X41203Y4213D01*
X44403Y5713D02*Y4213D01*
Y5713D02*X44903Y6213D01*
X45903D01*
X43903D02*X44403Y5713D01*
X48603Y6213D02*X49103Y5713D01*
X47603Y6213D02*X48603D01*
X47103Y5713D02*X47603Y6213D01*
X47103Y5713D02*Y4713D01*
X47603Y4213D01*
X48603D01*
X49103Y4713D01*
X47103Y3213D02*X47603Y2713D01*
X48603D01*
X49103Y3213D01*
Y6213D02*Y3213D01*
X2814Y14287D02*Y11287D01*
Y14287D02*X3314Y14787D01*
X4314D01*
X4814Y14287D01*
Y11287D01*
X4314Y10787D02*X4814Y11287D01*
X3314Y10787D02*X4314D01*
X2814Y11287D02*X3314Y10787D01*
X6514Y12287D02*Y9287D01*
X6014Y12787D02*X6514Y12287D01*
X7014Y12787D01*
X8014D01*
X8514Y12287D01*
Y11287D01*
X8014Y10787D02*X8514Y11287D01*
X7014Y10787D02*X8014D01*
X6514Y11287D02*X7014Y10787D01*
X10214D02*X11714D01*
X9714Y11287D02*X10214Y10787D01*
X9714Y12287D02*Y11287D01*
Y12287D02*X10214Y12787D01*
X11214D01*
X11714Y12287D01*
X9714Y11787D02*X11714D01*
Y12287D02*Y11787D01*
X13414Y12287D02*Y10787D01*
Y12287D02*X13914Y12787D01*
X14414D01*
X14914Y12287D01*
Y10787D01*
X12914Y12787D02*X13414Y12287D01*
X16114Y14787D02*X18114D01*
X17114D02*Y10787D01*
X19814Y14787D02*Y10787D01*
X21114Y14787D02*X21814Y14087D01*
Y11487D01*
X21114Y10787D02*X21814Y11487D01*
X19314Y10787D02*X21114D01*
X19314Y14787D02*X21114D01*
X23714Y10787D02*X25014D01*
X23014Y11487D02*X23714Y10787D01*
X23014Y14087D02*Y11487D01*
Y14087D02*X23714Y14787D01*
X25014D01*
X28214D02*X28714Y14287D01*
X26714Y14787D02*X28214D01*
X26214Y14287D02*X26714Y14787D01*
X26214Y14287D02*Y13287D01*
X26714Y12787D01*
X28214D01*
X28714Y12287D01*
Y11287D01*
X28214Y10787D02*X28714Y11287D01*
X26714Y10787D02*X28214D01*
X26214Y11287D02*X26714Y10787D01*
X29914Y9787D02*X30914Y10787D01*
X33914Y12787D02*X34914Y10787D01*
X35914Y12787D02*X34914Y10787D01*
X37114Y12287D02*X39114Y14787D01*
X37114Y12287D02*X39614D01*
X39114Y14787D02*Y10787D01*
X217520Y43614D02*X219520D01*
X215551Y69205D02*X217551D01*
X216551Y70205D02*Y68205D01*
X203567Y3858D02*X204867D01*
X202867Y4558D02*X203567Y3858D01*
X202867Y7158D02*Y4558D01*
Y7158D02*X203567Y7858D01*
X204867D01*
X206767Y3858D02*X208067D01*
X206067Y4558D02*X206767Y3858D01*
X206067Y7158D02*Y4558D01*
Y7158D02*X206767Y7858D01*
X208067D01*
X209267Y5858D02*X211267D01*
X212467Y3858D02*X214467D01*
X214967Y4358D01*
Y5558D02*Y4358D01*
X214467Y6058D02*X214967Y5558D01*
X212967Y6058D02*X214467D01*
X212967Y7858D02*Y3858D01*
X212467Y7858D02*X214467D01*
X214967Y7358D01*
Y6558D01*
X214467Y6058D02*X214967Y6558D01*
X216167Y7858D02*X217167Y5858D01*
X218167Y7858D01*
X217167Y5858D02*Y3858D01*
G54D66*X57008Y63425D02*Y23425D01*
X97008D01*
Y63425D01*
X57008D02*X72008D01*
X82008D02*X97008D01*
X72008D02*G75*G03X82008Y63425I5000J0D01*G01*
X104252Y56535D02*X114252D01*
X104252D02*Y26535D01*
X114252D01*
Y56535D02*Y26535D01*
X39291Y26850D02*X49291D01*
Y56850D02*Y26850D01*
X39291Y56850D02*X49291D01*
X39291D02*Y26850D01*
X4508Y54095D02*X14508D01*
X4508D02*Y34095D01*
X14508D01*
Y54095D02*Y34095D01*
X4508Y54095D02*Y44095D01*
X14508D01*
X212520Y46535D02*X222520D01*
Y66535D02*Y46535D01*
X212520Y66535D02*X222520D01*
X212520D02*Y46535D01*
X222520Y56535D02*Y46535D01*
X212520Y56535D02*X222520D01*
X121343Y79799D02*X148902D01*
Y52240D01*
X121343D01*
Y79799D02*Y52240D01*
X127843Y29772D02*X141843D01*
X141914Y29701D02*G75*G03X127771Y29701I-7071J7071D01*G01*
X156496Y48209D02*Y40709D01*
Y70709D02*Y63209D01*
X153996D02*Y48209D01*
Y63209D02*X158996D01*
Y48209D01*
X153996D02*X158996D01*
X166339Y70709D02*Y63209D01*
Y48209D02*Y40709D01*
X168839Y63209D02*Y48209D01*
X163839D02*X168839D01*
X163839Y63209D02*Y48209D01*
Y63209D02*X168839D01*
X155512Y25945D02*X163012D01*
X178012D02*X185512D01*
X163012Y28445D02*X178012D01*
Y23445D01*
X163012D02*X178012D01*
X163012Y28445D02*Y23445D01*
X9843Y76142D02*X17343D01*
X32343D02*X39843D01*
X17343Y78642D02*X32343D01*
Y73642D01*
X17343D02*X32343D01*
X17343Y78642D02*Y73642D01*
X22485Y62209D02*G75*G03X26728Y62209I2121J2121D01*G01*
X26728Y66452D02*G75*G03X22485Y66452I-2121J-2121D01*G01*
X21071Y60795D02*G75*G03X28142Y60795I3536J3536D01*G01*
X28142Y67866D02*G75*G03X21071Y67866I-3536J-3536D01*G01*
X92598Y71142D02*Y81142D01*
X62598D01*
Y71142D01*
X92598D01*
Y18150D02*Y8150D01*
X62598Y18150D02*X92598D01*
X62598D02*Y8150D01*
X92598D01*
X127843Y22118D02*X141843D01*
X127771Y22189D02*G75*G03X141914Y22189I7071J-7071D01*G01*
X177539Y16102D02*X185039D01*
X155039D02*X162539D01*
Y13602D02*X177539D01*
X162539Y18602D02*Y13602D01*
Y18602D02*X177539D01*
Y13602D01*
G54D65*X74882Y53756D02*Y50256D01*
X75382Y49756D01*
X76382D01*
X76882Y50256D01*
Y53756D02*Y50256D01*
X78082Y53256D02*X78582Y53756D01*
X80082D01*
X80582Y53256D01*
Y52256D01*
X78082Y49756D02*X80582Y52256D01*
X78082Y49756D02*X80582D01*
X106767Y38750D02*X108717D01*
X105717Y39800D02*X106767Y38750D01*
X105717Y43700D02*Y39800D01*
Y43700D02*X106767Y44750D01*
X108717D01*
X110517Y44000D02*X111267Y44750D01*
X113517D01*
X114267Y44000D01*
Y42500D01*
X110517Y38750D02*X114267Y42500D01*
X110517Y38750D02*X114267D01*
X40822D02*X42772D01*
X39772Y39800D02*X40822Y38750D01*
X39772Y43700D02*Y39800D01*
Y43700D02*X40822Y44750D01*
X42772D01*
X44572Y44000D02*X45322Y44750D01*
X46822D01*
X47572Y44000D01*
X46822Y38750D02*X47572Y39500D01*
X45322Y38750D02*X46822D01*
X44572Y39500D02*X45322Y38750D01*
Y42050D02*X46822D01*
X47572Y44000D02*Y42800D01*
Y41300D02*Y39500D01*
Y41300D02*X46822Y42050D01*
X47572Y42800D02*X46822Y42050D01*
X17303Y41473D02*X19303D01*
X19803Y41973D01*
Y43173D02*Y41973D01*
X19303Y43673D02*X19803Y43173D01*
X17803Y43673D02*X19303D01*
X17803Y45473D02*Y41473D01*
X17303Y45473D02*X19303D01*
X19803Y44973D01*
Y44173D01*
X19303Y43673D02*X19803Y44173D01*
X21003Y44673D02*X21803Y45473D01*
Y41473D01*
X21003D02*X22503D01*
X209283Y54740D02*X210583D01*
X208583Y55440D02*X209283Y54740D01*
X208583Y58040D02*Y55440D01*
Y58040D02*X209283Y58740D01*
X210583D01*
X211783Y58240D02*Y55240D01*
Y58240D02*X212283Y58740D01*
X213283D01*
X213783Y58240D01*
Y55240D01*
X213283Y54740D02*X213783Y55240D01*
X212283Y54740D02*X213283D01*
X211783Y55240D02*X212283Y54740D01*
X214983Y58740D02*Y54740D01*
Y58740D02*X217483Y54740D01*
Y58740D02*Y54740D01*
X218683Y58740D02*Y54740D01*
Y58740D02*X221183Y54740D01*
Y58740D02*Y54740D01*
X222383Y57940D02*X223183Y58740D01*
Y54740D01*
X222383D02*X223883D01*
X131890Y59394D02*X133890D01*
X134390Y58894D01*
Y57894D01*
X133890Y57394D02*X134390Y57894D01*
X132390Y57394D02*X133890D01*
X132390Y59394D02*Y55394D01*
X133190Y57394D02*X134390Y55394D01*
X135590Y58594D02*X136390Y59394D01*
Y55394D01*
X135590D02*X137090D01*
X132732Y45504D02*Y42004D01*
X133232Y41504D01*
X134232D01*
X134732Y42004D01*
Y45504D02*Y42004D01*
X135932Y44704D02*X136732Y45504D01*
Y41504D01*
X135932D02*X137432D01*
X21547Y83437D02*X23547D01*
X24047Y82937D01*
Y81937D01*
X23547Y81437D02*X24047Y81937D01*
X22047Y81437D02*X23547D01*
X22047Y83437D02*Y79437D01*
X22847Y81437D02*X24047Y79437D01*
X25247Y82937D02*X25747Y83437D01*
X26747D01*
X27247Y82937D01*
X26747Y79437D02*X27247Y79937D01*
X25747Y79437D02*X26747D01*
X25247Y79937D02*X25747Y79437D01*
Y81637D02*X26747D01*
X27247Y82937D02*Y82137D01*
Y81137D02*Y79937D01*
Y81137D02*X26747Y81637D01*
X27247Y82137D02*X26747Y81637D01*
X22896Y58012D02*Y54012D01*
X24196Y58012D02*X24896Y57312D01*
Y54712D01*
X24196Y54012D02*X24896Y54712D01*
X22396Y54012D02*X24196D01*
X22396Y58012D02*X24196D01*
X26096Y57212D02*X26896Y58012D01*
Y54012D01*
X26096D02*X27596D01*
X75270Y73199D02*X77220D01*
X74220Y74249D02*X75270Y73199D01*
X74220Y78149D02*Y74249D01*
Y78149D02*X75270Y79199D01*
X77220D01*
X79020Y77999D02*X80220Y79199D01*
Y73199D01*
X79020D02*X81270D01*
X153437Y79500D02*X155437D01*
X155937Y79000D01*
Y78000D01*
X155437Y77500D02*X155937Y78000D01*
X153937Y77500D02*X155437D01*
X153937Y79500D02*Y75500D01*
X154737Y77500D02*X155937Y75500D01*
X157137Y79000D02*X157637Y79500D01*
X159137D01*
X159637Y79000D01*
Y78000D01*
X157137Y75500D02*X159637Y78000D01*
X157137Y75500D02*X159637D01*
X164264Y79972D02*X165264Y75972D01*
X166264Y79972D01*
X167464Y79172D02*X168264Y79972D01*
Y75972D01*
X167464D02*X168964D01*
X74286Y10207D02*X76236D01*
X73236Y11257D02*X74286Y10207D01*
X73236Y15157D02*Y11257D01*
Y15157D02*X74286Y16207D01*
X76236D01*
X78036Y12457D02*X81036Y16207D01*
X78036Y12457D02*X81786D01*
X81036Y16207D02*Y10207D01*
X132063Y9886D02*Y6886D01*
Y9886D02*X132563Y10386D01*
X133563D01*
X134063Y9886D01*
Y7386D01*
X133063Y6386D02*X134063Y7386D01*
X132563Y6386D02*X133063D01*
X132063Y6886D02*X132563Y6386D01*
X133063Y7886D02*X134063Y6386D01*
X135263Y9586D02*X136063Y10386D01*
Y6386D01*
X135263D02*X136763D01*
X189854Y18476D02*X190854Y14476D01*
X191854Y18476D01*
X193054Y17976D02*X193554Y18476D01*
X195054D01*
X195554Y17976D01*
Y16976D01*
X193054Y14476D02*X195554Y16976D01*
X193054Y14476D02*X195554D01*
X189854Y27335D02*X191854D01*
X192354Y26835D01*
Y25835D01*
X191854Y25335D02*X192354Y25835D01*
X190354Y25335D02*X191854D01*
X190354Y27335D02*Y23335D01*
X191154Y25335D02*X192354Y23335D01*
X193554Y24835D02*X195554Y27335D01*
X193554Y24835D02*X196054D01*
X195554Y27335D02*Y23335D01*
M02*
