G04 start of page 12 for group -3984 idx -3984 *
G04 Title: OpenTDCS, v4, fab *
G04 Creator: pcb 1.99z *
G04 CreationDate: Thu 16 May 2013 08:09:45 PM GMT UTC *
G04 For: nock *
G04 Format: Gerber/RS-274X *
G04 PCB-Dimensions (mil): 2250.00 850.00 *
G04 PCB-Coordinate-Origin: lower left *
%MOIN*%
%FSLAX25Y25*%
%LNFAB*%
%ADD70C,0.0100*%
%ADD69C,0.0075*%
%ADD68C,0.0060*%
%ADD67C,0.0080*%
G54D67*X19606Y67531D02*Y61131D01*
X16406Y64331D02*X22806D01*
X18006Y65931D02*X21206D01*
X18006D02*Y62731D01*
X21206D01*
Y65931D02*Y62731D01*
X29606Y67531D02*Y61131D01*
X26406Y64331D02*X32806D01*
X28006Y65931D02*X31206D01*
X28006D02*Y62731D01*
X31206D01*
Y65931D02*Y62731D01*
X15000Y99450D02*Y93050D01*
X11800Y96250D02*X18200D01*
X13400Y97850D02*X16600D01*
X13400D02*Y94650D01*
X16600D01*
Y97850D02*Y94650D01*
G54D68*X135000Y98500D02*X136500Y95500D01*
X138000Y98500D01*
X136500Y95500D02*Y92500D01*
X139800Y95800D02*X142050D01*
X139800Y92500D02*X142800D01*
X139800Y98500D02*Y92500D01*
Y98500D02*X142800D01*
X147600D02*X148350Y97750D01*
X145350Y98500D02*X147600D01*
X144600Y97750D02*X145350Y98500D01*
X144600Y97750D02*Y96250D01*
X145350Y95500D01*
X147600D01*
X148350Y94750D01*
Y93250D01*
X147600Y92500D02*X148350Y93250D01*
X145350Y92500D02*X147600D01*
X144600Y93250D02*X145350Y92500D01*
X98000Y97750D02*X98750Y98500D01*
X101000D01*
X101750Y97750D01*
Y96250D01*
X98000Y92500D02*X101750Y96250D01*
X98000Y92500D02*X101750D01*
X45000Y93250D02*X45750Y92500D01*
X45000Y97750D02*Y93250D01*
Y97750D02*X45750Y98500D01*
X47250D01*
X48000Y97750D01*
Y93250D01*
X47250Y92500D02*X48000Y93250D01*
X45750Y92500D02*X47250D01*
X45000Y94000D02*X48000Y97000D01*
X49800Y92500D02*X50550D01*
X52350Y93250D02*X53100Y92500D01*
X52350Y97750D02*Y93250D01*
Y97750D02*X53100Y98500D01*
X54600D01*
X55350Y97750D01*
Y93250D01*
X54600Y92500D02*X55350Y93250D01*
X53100Y92500D02*X54600D01*
X52350Y94000D02*X55350Y97000D01*
X57150Y94750D02*X60150Y98500D01*
X57150Y94750D02*X60900D01*
X60150Y98500D02*Y92500D01*
X62700Y97750D02*X63450Y98500D01*
X64950D01*
X65700Y97750D01*
X64950Y92500D02*X65700Y93250D01*
X63450Y92500D02*X64950D01*
X62700Y93250D02*X63450Y92500D01*
Y95800D02*X64950D01*
X65700Y97750D02*Y96550D01*
Y95050D02*Y93250D01*
Y95050D02*X64950Y95800D01*
X65700Y96550D02*X64950Y95800D01*
X124843Y36772D02*Y33572D01*
Y36772D02*X127616Y38372D01*
X124843Y36772D02*X122069Y38372D01*
X123243Y36772D02*G75*G03X126443Y36772I1600J0D01*G01*
G75*G03X123243Y36772I-1600J0D01*G01*
X134843D02*Y33572D01*
Y36772D02*X137616Y38372D01*
X134843Y36772D02*X132069Y38372D01*
X133243Y36772D02*G75*G03X136443Y36772I1600J0D01*G01*
G75*G03X133243Y36772I-1600J0D01*G01*
X144843D02*Y33572D01*
Y36772D02*X147616Y38372D01*
X144843Y36772D02*X142069Y38372D01*
X143243Y36772D02*G75*G03X146443Y36772I1600J0D01*G01*
G75*G03X143243Y36772I-1600J0D01*G01*
X144843Y15118D02*Y11918D01*
Y15118D02*X147616Y16718D01*
X144843Y15118D02*X142069Y16718D01*
X143243Y15118D02*G75*G03X146443Y15118I1600J0D01*G01*
G75*G03X143243Y15118I-1600J0D01*G01*
X134843D02*Y11918D01*
Y15118D02*X137616Y16718D01*
X134843Y15118D02*X132069Y16718D01*
X133243Y15118D02*G75*G03X136443Y15118I1600J0D01*G01*
G75*G03X133243Y15118I-1600J0D01*G01*
X124843D02*Y11918D01*
Y15118D02*X127616Y16718D01*
X124843Y15118D02*X122069Y16718D01*
X123243Y15118D02*G75*G03X126443Y15118I1600J0D01*G01*
G75*G03X123243Y15118I-1600J0D01*G01*
X15000Y111250D02*Y108050D01*
Y111250D02*X17773Y112850D01*
X15000Y111250D02*X12227Y112850D01*
X13400Y111250D02*G75*G03X16600Y111250I1600J0D01*G01*
G75*G03X13400Y111250I-1600J0D01*G01*
X135000Y113500D02*X136500Y110500D01*
X138000Y113500D01*
X136500Y110500D02*Y107500D01*
X139800Y110800D02*X142050D01*
X139800Y107500D02*X142800D01*
X139800Y113500D02*Y107500D01*
Y113500D02*X142800D01*
X147600D02*X148350Y112750D01*
X145350Y113500D02*X147600D01*
X144600Y112750D02*X145350Y113500D01*
X144600Y112750D02*Y111250D01*
X145350Y110500D01*
X147600D01*
X148350Y109750D01*
Y108250D01*
X147600Y107500D02*X148350Y108250D01*
X145350Y107500D02*X147600D01*
X144600Y108250D02*X145350Y107500D01*
X100250Y113500D02*X101000Y112750D01*
X98750Y113500D02*X100250D01*
X98000Y112750D02*X98750Y113500D01*
X98000Y112750D02*Y108250D01*
X98750Y107500D01*
X100250Y110800D02*X101000Y110050D01*
X98000Y110800D02*X100250D01*
X98750Y107500D02*X100250D01*
X101000Y108250D01*
Y110050D02*Y108250D01*
X45000D02*X45750Y107500D01*
X45000Y112750D02*Y108250D01*
Y112750D02*X45750Y113500D01*
X47250D01*
X48000Y112750D01*
Y108250D01*
X47250Y107500D02*X48000Y108250D01*
X45750Y107500D02*X47250D01*
X45000Y109000D02*X48000Y112000D01*
X49800Y107500D02*X50550D01*
X52350Y108250D02*X53100Y107500D01*
X52350Y112750D02*Y108250D01*
Y112750D02*X53100Y113500D01*
X54600D01*
X55350Y112750D01*
Y108250D01*
X54600Y107500D02*X55350Y108250D01*
X53100Y107500D02*X54600D01*
X52350Y109000D02*X55350Y112000D01*
X57150Y109750D02*X60150Y113500D01*
X57150Y109750D02*X60900D01*
X60150Y113500D02*Y107500D01*
X62700Y112750D02*X63450Y113500D01*
X65700D01*
X66450Y112750D01*
Y111250D01*
X62700Y107500D02*X66450Y111250D01*
X62700Y107500D02*X66450D01*
X215920Y53135D02*X219120D01*
X215920D02*Y49935D01*
X219120D01*
Y53135D02*Y49935D01*
X215920Y63135D02*X219120D01*
X215920D02*Y59935D01*
X219120D01*
Y63135D02*Y59935D01*
X7908Y50695D02*X11108D01*
X7908D02*Y47495D01*
X11108D01*
Y50695D02*Y47495D01*
X7908Y40695D02*X11108D01*
X7908D02*Y37495D01*
X11108D01*
Y40695D02*Y37495D01*
X13400Y127850D02*X16600D01*
X13400D02*Y124650D01*
X16600D01*
Y127850D02*Y124650D01*
X135000Y128500D02*X136500Y125500D01*
X138000Y128500D01*
X136500Y125500D02*Y122500D01*
X139800Y125800D02*X142050D01*
X139800Y122500D02*X142800D01*
X139800Y128500D02*Y122500D01*
Y128500D02*X142800D01*
X147600D02*X148350Y127750D01*
X145350Y128500D02*X147600D01*
X144600Y127750D02*X145350Y128500D01*
X144600Y127750D02*Y126250D01*
X145350Y125500D01*
X147600D01*
X148350Y124750D01*
Y123250D01*
X147600Y122500D02*X148350Y123250D01*
X145350Y122500D02*X147600D01*
X144600Y123250D02*X145350Y122500D01*
X98000Y124750D02*X101000Y128500D01*
X98000Y124750D02*X101750D01*
X101000Y128500D02*Y122500D01*
X45000Y123250D02*X45750Y122500D01*
X45000Y127750D02*Y123250D01*
Y127750D02*X45750Y128500D01*
X47250D01*
X48000Y127750D01*
Y123250D01*
X47250Y122500D02*X48000Y123250D01*
X45750Y122500D02*X47250D01*
X45000Y124000D02*X48000Y127000D01*
X49800Y122500D02*X50550D01*
X52350Y123250D02*X53100Y122500D01*
X52350Y127750D02*Y123250D01*
Y127750D02*X53100Y128500D01*
X54600D01*
X55350Y127750D01*
Y123250D01*
X54600Y122500D02*X55350Y123250D01*
X53100Y122500D02*X54600D01*
X52350Y124000D02*X55350Y127000D01*
X57150Y127750D02*X57900Y128500D01*
X59400D01*
X60150Y127750D01*
X59400Y122500D02*X60150Y123250D01*
X57900Y122500D02*X59400D01*
X57150Y123250D02*X57900Y122500D01*
Y125800D02*X59400D01*
X60150Y127750D02*Y126550D01*
Y125050D02*Y123250D01*
Y125050D02*X59400Y125800D01*
X60150Y126550D02*X59400Y125800D01*
X61950Y123250D02*X62700Y122500D01*
X61950Y124450D02*Y123250D01*
Y124450D02*X63000Y125500D01*
X63900D01*
X64950Y124450D01*
Y123250D01*
X64200Y122500D02*X64950Y123250D01*
X62700Y122500D02*X64200D01*
X61950Y126550D02*X63000Y125500D01*
X61950Y127750D02*Y126550D01*
Y127750D02*X62700Y128500D01*
X64200D01*
X64950Y127750D01*
Y126550D01*
X63900Y125500D02*X64950Y126550D01*
X108452Y51535D02*G75*G03X110052Y51535I800J0D01*G01*
G75*G03X108452Y51535I-800J0D01*G01*
Y31535D02*G75*G03X110052Y31535I800J0D01*G01*
G75*G03X108452Y31535I-800J0D01*G01*
X43491Y31850D02*G75*G03X45091Y31850I800J0D01*G01*
G75*G03X43491Y31850I-800J0D01*G01*
Y51850D02*G75*G03X45091Y51850I800J0D01*G01*
G75*G03X43491Y51850I-800J0D01*G01*
X86798Y76142D02*G75*G03X88398Y76142I800J0D01*G01*
G75*G03X86798Y76142I-800J0D01*G01*
X66798D02*G75*G03X68398Y76142I800J0D01*G01*
G75*G03X66798Y76142I-800J0D01*G01*
X86798Y13150D02*G75*G03X88398Y13150I800J0D01*G01*
G75*G03X86798Y13150I-800J0D01*G01*
X66798D02*G75*G03X68398Y13150I800J0D01*G01*
G75*G03X66798Y13150I-800J0D01*G01*
X14200Y141250D02*G75*G03X15800Y141250I800J0D01*G01*
G75*G03X14200Y141250I-800J0D01*G01*
X135000Y143500D02*X136500Y140500D01*
X138000Y143500D01*
X136500Y140500D02*Y137500D01*
X139800Y140800D02*X142050D01*
X139800Y137500D02*X142800D01*
X139800Y143500D02*Y137500D01*
Y143500D02*X142800D01*
X147600D02*X148350Y142750D01*
X145350Y143500D02*X147600D01*
X144600Y142750D02*X145350Y143500D01*
X144600Y142750D02*Y141250D01*
X145350Y140500D01*
X147600D01*
X148350Y139750D01*
Y138250D01*
X147600Y137500D02*X148350Y138250D01*
X145350Y137500D02*X147600D01*
X144600Y138250D02*X145350Y137500D01*
X98000Y138250D02*X98750Y137500D01*
X98000Y139450D02*Y138250D01*
Y139450D02*X99050Y140500D01*
X99950D01*
X101000Y139450D01*
Y138250D01*
X100250Y137500D02*X101000Y138250D01*
X98750Y137500D02*X100250D01*
X98000Y141550D02*X99050Y140500D01*
X98000Y142750D02*Y141550D01*
Y142750D02*X98750Y143500D01*
X100250D01*
X101000Y142750D01*
Y141550D01*
X99950Y140500D02*X101000Y141550D01*
X45000Y138250D02*X45750Y137500D01*
X45000Y142750D02*Y138250D01*
Y142750D02*X45750Y143500D01*
X47250D01*
X48000Y142750D01*
Y138250D01*
X47250Y137500D02*X48000Y138250D01*
X45750Y137500D02*X47250D01*
X45000Y139000D02*X48000Y142000D01*
X49800Y137500D02*X50550D01*
X52350Y138250D02*X53100Y137500D01*
X52350Y142750D02*Y138250D01*
Y142750D02*X53100Y143500D01*
X54600D01*
X55350Y142750D01*
Y138250D01*
X54600Y137500D02*X55350Y138250D01*
X53100Y137500D02*X54600D01*
X52350Y139000D02*X55350Y142000D01*
X57150Y142750D02*X57900Y143500D01*
X59400D01*
X60150Y142750D01*
X59400Y137500D02*X60150Y138250D01*
X57900Y137500D02*X59400D01*
X57150Y138250D02*X57900Y137500D01*
Y140800D02*X59400D01*
X60150Y142750D02*Y141550D01*
Y140050D02*Y138250D01*
Y140050D02*X59400Y140800D01*
X60150Y141550D02*X59400Y140800D01*
X61950Y143500D02*X64950D01*
X61950D02*Y140500D01*
X62700Y141250D01*
X64200D01*
X64950Y140500D01*
Y138250D01*
X64200Y137500D02*X64950Y138250D01*
X62700Y137500D02*X64200D01*
X61950Y138250D02*X62700Y137500D01*
X8643Y77342D02*X11043Y74942D01*
X8643D02*X11043Y77342D01*
X38643D02*X41043Y74942D01*
X38643D02*X41043Y77342D01*
X155296Y41909D02*X157696Y39509D01*
X155296D02*X157696Y41909D01*
X155296Y71909D02*X157696Y69509D01*
X155296D02*X157696Y71909D01*
X165139D02*X167539Y69509D01*
X165139D02*X167539Y71909D01*
X165139Y41909D02*X167539Y39509D01*
X165139D02*X167539Y41909D01*
X183839Y17302D02*X186239Y14902D01*
X183839D02*X186239Y17302D01*
X153839D02*X156239Y14902D01*
X153839D02*X156239Y17302D01*
X154312Y27145D02*X156712Y24745D01*
X154312D02*X156712Y27145D01*
X184312D02*X186712Y24745D01*
X184312D02*X186712Y27145D01*
X13800Y157450D02*X16200Y155050D01*
X13800D02*X16200Y157450D01*
X135000Y158500D02*X136500Y155500D01*
X138000Y158500D01*
X136500Y155500D02*Y152500D01*
X139800Y155800D02*X142050D01*
X139800Y152500D02*X142800D01*
X139800Y158500D02*Y152500D01*
Y158500D02*X142800D01*
X147600D02*X148350Y157750D01*
X145350Y158500D02*X147600D01*
X144600Y157750D02*X145350Y158500D01*
X144600Y157750D02*Y156250D01*
X145350Y155500D01*
X147600D01*
X148350Y154750D01*
Y153250D01*
X147600Y152500D02*X148350Y153250D01*
X145350Y152500D02*X147600D01*
X144600Y153250D02*X145350Y152500D01*
X98000Y157300D02*X99200Y158500D01*
Y152500D01*
X98000D02*X100250D01*
X102050Y153250D02*X102800Y152500D01*
X102050Y157750D02*Y153250D01*
Y157750D02*X102800Y158500D01*
X104300D01*
X105050Y157750D01*
Y153250D01*
X104300Y152500D02*X105050Y153250D01*
X102800Y152500D02*X104300D01*
X102050Y154000D02*X105050Y157000D01*
X45000Y153250D02*X45750Y152500D01*
X45000Y157750D02*Y153250D01*
Y157750D02*X45750Y158500D01*
X47250D01*
X48000Y157750D01*
Y153250D01*
X47250Y152500D02*X48000Y153250D01*
X45750Y152500D02*X47250D01*
X45000Y154000D02*X48000Y157000D01*
X49800Y152500D02*X50550D01*
X52350Y153250D02*X53100Y152500D01*
X52350Y157750D02*Y153250D01*
Y157750D02*X53100Y158500D01*
X54600D01*
X55350Y157750D01*
Y153250D01*
X54600Y152500D02*X55350Y153250D01*
X53100Y152500D02*X54600D01*
X52350Y154000D02*X55350Y157000D01*
X57150Y157750D02*X57900Y158500D01*
X59400D01*
X60150Y157750D01*
X59400Y152500D02*X60150Y153250D01*
X57900Y152500D02*X59400D01*
X57150Y153250D02*X57900Y152500D01*
Y155800D02*X59400D01*
X60150Y157750D02*Y156550D01*
Y155050D02*Y153250D01*
Y155050D02*X59400Y155800D01*
X60150Y156550D02*X59400Y155800D01*
X61950Y153250D02*X62700Y152500D01*
X61950Y157750D02*Y153250D01*
Y157750D02*X62700Y158500D01*
X64200D01*
X64950Y157750D01*
Y153250D01*
X64200Y152500D02*X64950Y153250D01*
X62700Y152500D02*X64200D01*
X61950Y154000D02*X64950Y157000D01*
X62008Y60025D02*Y56825D01*
X60408Y58425D02*X63608D01*
X62008Y50025D02*Y46825D01*
X60408Y48425D02*X63608D01*
X62008Y40025D02*Y36825D01*
X60408Y38425D02*X63608D01*
X62008Y30025D02*Y26825D01*
X60408Y28425D02*X63608D01*
X92008Y30025D02*Y26825D01*
X90408Y28425D02*X93608D01*
X92008Y40025D02*Y36825D01*
X90408Y38425D02*X93608D01*
X92008Y50025D02*Y46825D01*
X90408Y48425D02*X93608D01*
X92008Y60025D02*Y56825D01*
X90408Y58425D02*X93608D01*
X15000Y172850D02*Y169650D01*
X13400Y171250D02*X16600D01*
X135000Y173500D02*X136500Y170500D01*
X138000Y173500D01*
X136500Y170500D02*Y167500D01*
X139800Y170800D02*X142050D01*
X139800Y167500D02*X142800D01*
X139800Y173500D02*Y167500D01*
Y173500D02*X142800D01*
X147600D02*X148350Y172750D01*
X145350Y173500D02*X147600D01*
X144600Y172750D02*X145350Y173500D01*
X144600Y172750D02*Y171250D01*
X145350Y170500D01*
X147600D01*
X148350Y169750D01*
Y168250D01*
X147600Y167500D02*X148350Y168250D01*
X145350Y167500D02*X147600D01*
X144600Y168250D02*X145350Y167500D01*
X98000Y168250D02*X98750Y167500D01*
X98000Y169450D02*Y168250D01*
Y169450D02*X99050Y170500D01*
X99950D01*
X101000Y169450D01*
Y168250D01*
X100250Y167500D02*X101000Y168250D01*
X98750Y167500D02*X100250D01*
X98000Y171550D02*X99050Y170500D01*
X98000Y172750D02*Y171550D01*
Y172750D02*X98750Y173500D01*
X100250D01*
X101000Y172750D01*
Y171550D01*
X99950Y170500D02*X101000Y171550D01*
X45000Y168250D02*X45750Y167500D01*
X45000Y172750D02*Y168250D01*
Y172750D02*X45750Y173500D01*
X47250D01*
X48000Y172750D01*
Y168250D01*
X47250Y167500D02*X48000Y168250D01*
X45750Y167500D02*X47250D01*
X45000Y169000D02*X48000Y172000D01*
X49800Y167500D02*X50550D01*
X52350Y168250D02*X53100Y167500D01*
X52350Y172750D02*Y168250D01*
Y172750D02*X53100Y173500D01*
X54600D01*
X55350Y172750D01*
Y168250D01*
X54600Y167500D02*X55350Y168250D01*
X53100Y167500D02*X54600D01*
X52350Y169000D02*X55350Y172000D01*
X57150Y172750D02*X57900Y173500D01*
X60150D01*
X60900Y172750D01*
Y171250D01*
X57150Y167500D02*X60900Y171250D01*
X57150Y167500D02*X60900D01*
X62700Y168250D02*X63450Y167500D01*
X62700Y169450D02*Y168250D01*
Y169450D02*X63750Y170500D01*
X64650D01*
X65700Y169450D01*
Y168250D01*
X64950Y167500D02*X65700Y168250D01*
X63450Y167500D02*X64950D01*
X62700Y171550D02*X63750Y170500D01*
X62700Y172750D02*Y171550D01*
Y172750D02*X63450Y173500D01*
X64950D01*
X65700Y172750D01*
Y171550D01*
X64650Y170500D02*X65700Y171550D01*
X125190Y66235D02*Y64635D01*
Y66235D02*X126577Y67035D01*
X125190Y66235D02*X123803Y67035D01*
X144875Y66235D02*Y64635D01*
Y66235D02*X146262Y67035D01*
X144875Y66235D02*X143489Y67035D01*
X135033Y76078D02*Y74478D01*
Y76078D02*X136419Y76878D01*
X135033Y76078D02*X133646Y76878D01*
X15000Y186250D02*Y184650D01*
Y186250D02*X16387Y187050D01*
X15000Y186250D02*X13613Y187050D01*
X135000Y188500D02*X136500Y185500D01*
X138000Y188500D01*
X136500Y185500D02*Y182500D01*
X139800Y185800D02*X142050D01*
X139800Y182500D02*X142800D01*
X139800Y188500D02*Y182500D01*
Y188500D02*X142800D01*
X147600D02*X148350Y187750D01*
X145350Y188500D02*X147600D01*
X144600Y187750D02*X145350Y188500D01*
X144600Y187750D02*Y186250D01*
X145350Y185500D01*
X147600D01*
X148350Y184750D01*
Y183250D01*
X147600Y182500D02*X148350Y183250D01*
X145350Y182500D02*X147600D01*
X144600Y183250D02*X145350Y182500D01*
X98000Y187750D02*X98750Y188500D01*
X100250D01*
X101000Y187750D01*
X100250Y182500D02*X101000Y183250D01*
X98750Y182500D02*X100250D01*
X98000Y183250D02*X98750Y182500D01*
Y185800D02*X100250D01*
X101000Y187750D02*Y186550D01*
Y185050D02*Y183250D01*
Y185050D02*X100250Y185800D01*
X101000Y186550D02*X100250Y185800D01*
X45000Y183250D02*X45750Y182500D01*
X45000Y187750D02*Y183250D01*
Y187750D02*X45750Y188500D01*
X47250D01*
X48000Y187750D01*
Y183250D01*
X47250Y182500D02*X48000Y183250D01*
X45750Y182500D02*X47250D01*
X45000Y184000D02*X48000Y187000D01*
X49800Y182500D02*X50550D01*
X52350Y183250D02*X53100Y182500D01*
X52350Y187750D02*Y183250D01*
Y187750D02*X53100Y188500D01*
X54600D01*
X55350Y187750D01*
Y183250D01*
X54600Y182500D02*X55350Y183250D01*
X53100Y182500D02*X54600D01*
X52350Y184000D02*X55350Y187000D01*
X57150Y187750D02*X57900Y188500D01*
X60150D01*
X60900Y187750D01*
Y186250D01*
X57150Y182500D02*X60900Y186250D01*
X57150Y182500D02*X60900D01*
X62700Y183250D02*X63450Y182500D01*
X62700Y187750D02*Y183250D01*
Y187750D02*X63450Y188500D01*
X64950D01*
X65700Y187750D01*
Y183250D01*
X64950Y182500D02*X65700Y183250D01*
X63450Y182500D02*X64950D01*
X62700Y184000D02*X65700Y187000D01*
X3000Y203500D02*X3750Y202750D01*
X750Y203500D02*X3000D01*
X0Y202750D02*X750Y203500D01*
X0Y202750D02*Y201250D01*
X750Y200500D01*
X3000D01*
X3750Y199750D01*
Y198250D01*
X3000Y197500D02*X3750Y198250D01*
X750Y197500D02*X3000D01*
X0Y198250D02*X750Y197500D01*
X5550Y200500D02*Y198250D01*
X6300Y197500D01*
X8550Y200500D02*Y196000D01*
X7800Y195250D02*X8550Y196000D01*
X6300Y195250D02*X7800D01*
X5550Y196000D02*X6300Y195250D01*
Y197500D02*X7800D01*
X8550Y198250D01*
X11100Y199750D02*Y197500D01*
Y199750D02*X11850Y200500D01*
X12600D01*
X13350Y199750D01*
Y197500D01*
Y199750D02*X14100Y200500D01*
X14850D01*
X15600Y199750D01*
Y197500D01*
X10350Y200500D02*X11100Y199750D01*
X17400Y203500D02*Y197500D01*
Y198250D02*X18150Y197500D01*
X19650D01*
X20400Y198250D01*
Y199750D02*Y198250D01*
X19650Y200500D02*X20400Y199750D01*
X18150Y200500D02*X19650D01*
X17400Y199750D02*X18150Y200500D01*
X22200Y199750D02*Y198250D01*
Y199750D02*X22950Y200500D01*
X24450D01*
X25200Y199750D01*
Y198250D01*
X24450Y197500D02*X25200Y198250D01*
X22950Y197500D02*X24450D01*
X22200Y198250D02*X22950Y197500D01*
X27000Y203500D02*Y198250D01*
X27750Y197500D01*
X0Y194250D02*X29250D01*
X41750Y203500D02*Y197500D01*
X43700Y203500D02*X44750Y202450D01*
Y198550D01*
X43700Y197500D02*X44750Y198550D01*
X41000Y197500D02*X43700D01*
X41000Y203500D02*X43700D01*
G54D69*X46550Y202000D02*Y201850D01*
G54D68*Y199750D02*Y197500D01*
X50300Y200500D02*X51050Y199750D01*
X48800Y200500D02*X50300D01*
X48050Y199750D02*X48800Y200500D01*
X48050Y199750D02*Y198250D01*
X48800Y197500D01*
X51050Y200500D02*Y198250D01*
X51800Y197500D01*
X48800D02*X50300D01*
X51050Y198250D01*
X54350Y199750D02*Y197500D01*
Y199750D02*X55100Y200500D01*
X55850D01*
X56600Y199750D01*
Y197500D01*
Y199750D02*X57350Y200500D01*
X58100D01*
X58850Y199750D01*
Y197500D01*
X53600Y200500D02*X54350Y199750D01*
X60650Y197500D02*X61400D01*
X65900Y198250D02*X66650Y197500D01*
X65900Y202750D02*X66650Y203500D01*
X65900Y202750D02*Y198250D01*
X68450Y203500D02*X69950D01*
X69200D02*Y197500D01*
X68450D02*X69950D01*
X72500Y199750D02*Y197500D01*
Y199750D02*X73250Y200500D01*
X74000D01*
X74750Y199750D01*
Y197500D01*
X71750Y200500D02*X72500Y199750D01*
X77300Y200500D02*X79550D01*
X76550Y199750D02*X77300Y200500D01*
X76550Y199750D02*Y198250D01*
X77300Y197500D01*
X79550D01*
X81350Y203500D02*Y197500D01*
Y199750D02*X82100Y200500D01*
X83600D01*
X84350Y199750D01*
Y197500D01*
X86150Y203500D02*X86900Y202750D01*
Y198250D01*
X86150Y197500D02*X86900Y198250D01*
X41000Y194250D02*X88700D01*
X96050Y197500D02*X98000D01*
X95000Y198550D02*X96050Y197500D01*
X95000Y202450D02*Y198550D01*
Y202450D02*X96050Y203500D01*
X98000D01*
X99800Y199750D02*Y198250D01*
Y199750D02*X100550Y200500D01*
X102050D01*
X102800Y199750D01*
Y198250D01*
X102050Y197500D02*X102800Y198250D01*
X100550Y197500D02*X102050D01*
X99800Y198250D02*X100550Y197500D01*
X104600Y200500D02*Y198250D01*
X105350Y197500D01*
X106850D01*
X107600Y198250D01*
Y200500D02*Y198250D01*
X110150Y199750D02*Y197500D01*
Y199750D02*X110900Y200500D01*
X111650D01*
X112400Y199750D01*
Y197500D01*
X109400Y200500D02*X110150Y199750D01*
X114950Y203500D02*Y198250D01*
X115700Y197500D01*
X114200Y201250D02*X115700D01*
X95000Y194250D02*X117200D01*
X130750Y203500D02*Y197500D01*
X130000Y203500D02*X133000D01*
X133750Y202750D01*
Y201250D01*
X133000Y200500D02*X133750Y201250D01*
X130750Y200500D02*X133000D01*
X135550Y203500D02*Y198250D01*
X136300Y197500D01*
X140050Y200500D02*X140800Y199750D01*
X138550Y200500D02*X140050D01*
X137800Y199750D02*X138550Y200500D01*
X137800Y199750D02*Y198250D01*
X138550Y197500D01*
X140800Y200500D02*Y198250D01*
X141550Y197500D01*
X138550D02*X140050D01*
X140800Y198250D01*
X144100Y203500D02*Y198250D01*
X144850Y197500D01*
X143350Y201250D02*X144850D01*
X147100Y197500D02*X149350D01*
X146350Y198250D02*X147100Y197500D01*
X146350Y199750D02*Y198250D01*
Y199750D02*X147100Y200500D01*
X148600D01*
X149350Y199750D01*
X146350Y199000D02*X149350D01*
Y199750D02*Y199000D01*
X154150Y203500D02*Y197500D01*
X153400D02*X154150Y198250D01*
X151900Y197500D02*X153400D01*
X151150Y198250D02*X151900Y197500D01*
X151150Y199750D02*Y198250D01*
Y199750D02*X151900Y200500D01*
X153400D01*
X154150Y199750D01*
X157450Y200500D02*Y199750D01*
Y198250D02*Y197500D01*
X155950Y202750D02*Y202000D01*
Y202750D02*X156700Y203500D01*
X158200D01*
X158950Y202750D01*
Y202000D01*
X157450Y200500D02*X158950Y202000D01*
X130000Y194250D02*X160750D01*
X0Y218500D02*X3000D01*
X1500D02*Y212500D01*
X4800Y218500D02*Y212500D01*
Y214750D02*X5550Y215500D01*
X7050D01*
X7800Y214750D01*
Y212500D01*
X10350D02*X12600D01*
X9600Y213250D02*X10350Y212500D01*
X9600Y214750D02*Y213250D01*
Y214750D02*X10350Y215500D01*
X11850D01*
X12600Y214750D01*
X9600Y214000D02*X12600D01*
Y214750D02*Y214000D01*
X15150Y214750D02*Y212500D01*
Y214750D02*X15900Y215500D01*
X17400D01*
X14400D02*X15150Y214750D01*
X19950Y212500D02*X22200D01*
X19200Y213250D02*X19950Y212500D01*
X19200Y214750D02*Y213250D01*
Y214750D02*X19950Y215500D01*
X21450D01*
X22200Y214750D01*
X19200Y214000D02*X22200D01*
Y214750D02*Y214000D01*
X28950Y215500D02*X29700Y214750D01*
X27450Y215500D02*X28950D01*
X26700Y214750D02*X27450Y215500D01*
X26700Y214750D02*Y213250D01*
X27450Y212500D01*
X29700Y215500D02*Y213250D01*
X30450Y212500D01*
X27450D02*X28950D01*
X29700Y213250D01*
X33000Y214750D02*Y212500D01*
Y214750D02*X33750Y215500D01*
X35250D01*
X32250D02*X33000Y214750D01*
X37800Y212500D02*X40050D01*
X37050Y213250D02*X37800Y212500D01*
X37050Y214750D02*Y213250D01*
Y214750D02*X37800Y215500D01*
X39300D01*
X40050Y214750D01*
X37050Y214000D02*X40050D01*
Y214750D02*Y214000D01*
X45300Y212500D02*X48300Y218500D01*
X44550D02*X48300D01*
X55800D02*Y212500D01*
X55050D02*X55800Y213250D01*
X53550Y212500D02*X55050D01*
X52800Y213250D02*X53550Y212500D01*
X52800Y214750D02*Y213250D01*
Y214750D02*X53550Y215500D01*
X55050D01*
X55800Y214750D01*
G54D69*X57600Y217000D02*Y216850D01*
G54D68*Y214750D02*Y212500D01*
X59850Y217750D02*Y212500D01*
Y217750D02*X60600Y218500D01*
X61350D01*
X59100Y215500D02*X60600D01*
X63600Y217750D02*Y212500D01*
Y217750D02*X64350Y218500D01*
X65100D01*
X62850Y215500D02*X64350D01*
X67350Y212500D02*X69600D01*
X66600Y213250D02*X67350Y212500D01*
X66600Y214750D02*Y213250D01*
Y214750D02*X67350Y215500D01*
X68850D01*
X69600Y214750D01*
X66600Y214000D02*X69600D01*
Y214750D02*Y214000D01*
X72150Y214750D02*Y212500D01*
Y214750D02*X72900Y215500D01*
X74400D01*
X71400D02*X72150Y214750D01*
X76950Y212500D02*X79200D01*
X76200Y213250D02*X76950Y212500D01*
X76200Y214750D02*Y213250D01*
Y214750D02*X76950Y215500D01*
X78450D01*
X79200Y214750D01*
X76200Y214000D02*X79200D01*
Y214750D02*Y214000D01*
X81750Y214750D02*Y212500D01*
Y214750D02*X82500Y215500D01*
X83250D01*
X84000Y214750D01*
Y212500D01*
X81000Y215500D02*X81750Y214750D01*
X86550Y218500D02*Y213250D01*
X87300Y212500D01*
X85800Y216250D02*X87300D01*
X94500Y218500D02*Y212500D01*
X93750D02*X94500Y213250D01*
X92250Y212500D02*X93750D01*
X91500Y213250D02*X92250Y212500D01*
X91500Y214750D02*Y213250D01*
Y214750D02*X92250Y215500D01*
X93750D01*
X94500Y214750D01*
X97050D02*Y212500D01*
Y214750D02*X97800Y215500D01*
X99300D01*
X96300D02*X97050Y214750D01*
G54D69*X101100Y217000D02*Y216850D01*
G54D68*Y214750D02*Y212500D01*
X102600Y218500D02*Y213250D01*
X103350Y212500D01*
X104850Y218500D02*Y213250D01*
X105600Y212500D01*
X110550D02*X112800D01*
X113550Y213250D01*
X112800Y214000D02*X113550Y213250D01*
X110550Y214000D02*X112800D01*
X109800Y214750D02*X110550Y214000D01*
X109800Y214750D02*X110550Y215500D01*
X112800D01*
X113550Y214750D01*
X109800Y213250D02*X110550Y212500D01*
G54D69*X115350Y217000D02*Y216850D01*
G54D68*Y214750D02*Y212500D01*
X116850Y215500D02*X119850D01*
X116850Y212500D02*X119850Y215500D01*
X116850Y212500D02*X119850D01*
X122400D02*X124650D01*
X121650Y213250D02*X122400Y212500D01*
X121650Y214750D02*Y213250D01*
Y214750D02*X122400Y215500D01*
X123900D01*
X124650Y214750D01*
X121650Y214000D02*X124650D01*
Y214750D02*Y214000D01*
X127200Y212500D02*X129450D01*
X130200Y213250D01*
X129450Y214000D02*X130200Y213250D01*
X127200Y214000D02*X129450D01*
X126450Y214750D02*X127200Y214000D01*
X126450Y214750D02*X127200Y215500D01*
X129450D01*
X130200Y214750D01*
X126450Y213250D02*X127200Y212500D01*
X134700Y215500D02*Y213250D01*
X135450Y212500D01*
X136950D01*
X137700Y213250D01*
Y215500D02*Y213250D01*
X140250Y212500D02*X142500D01*
X143250Y213250D01*
X142500Y214000D02*X143250Y213250D01*
X140250Y214000D02*X142500D01*
X139500Y214750D02*X140250Y214000D01*
X139500Y214750D02*X140250Y215500D01*
X142500D01*
X143250Y214750D01*
X139500Y213250D02*X140250Y212500D01*
X145800D02*X148050D01*
X145050Y213250D02*X145800Y212500D01*
X145050Y214750D02*Y213250D01*
Y214750D02*X145800Y215500D01*
X147300D01*
X148050Y214750D01*
X145050Y214000D02*X148050D01*
Y214750D02*Y214000D01*
X152850Y218500D02*Y212500D01*
X152100D02*X152850Y213250D01*
X150600Y212500D02*X152100D01*
X149850Y213250D02*X150600Y212500D01*
X149850Y214750D02*Y213250D01*
Y214750D02*X150600Y215500D01*
X152100D01*
X152850Y214750D01*
G54D69*X157350Y217000D02*Y216850D01*
G54D68*Y214750D02*Y212500D01*
X159600Y214750D02*Y212500D01*
Y214750D02*X160350Y215500D01*
X161100D01*
X161850Y214750D01*
Y212500D01*
X158850Y215500D02*X159600Y214750D01*
X167100Y218500D02*Y213250D01*
X167850Y212500D01*
X166350Y216250D02*X167850D01*
X169350Y218500D02*Y212500D01*
Y214750D02*X170100Y215500D01*
X171600D01*
X172350Y214750D01*
Y212500D01*
G54D69*X174150Y217000D02*Y216850D01*
G54D68*Y214750D02*Y212500D01*
X176400D02*X178650D01*
X179400Y213250D01*
X178650Y214000D02*X179400Y213250D01*
X176400Y214000D02*X178650D01*
X175650Y214750D02*X176400Y214000D01*
X175650Y214750D02*X176400Y215500D01*
X178650D01*
X179400Y214750D01*
X175650Y213250D02*X176400Y212500D01*
X183900Y218500D02*Y213250D01*
X184650Y212500D01*
X188400Y215500D02*X189150Y214750D01*
X186900Y215500D02*X188400D01*
X186150Y214750D02*X186900Y215500D01*
X186150Y214750D02*Y213250D01*
X186900Y212500D01*
X189150Y215500D02*Y213250D01*
X189900Y212500D01*
X186900D02*X188400D01*
X189150Y213250D01*
X191700Y215500D02*Y213250D01*
X192450Y212500D01*
X194700Y215500D02*Y211000D01*
X193950Y210250D02*X194700Y211000D01*
X192450Y210250D02*X193950D01*
X191700Y211000D02*X192450Y210250D01*
Y212500D02*X193950D01*
X194700Y213250D01*
X196500Y214750D02*Y213250D01*
Y214750D02*X197250Y215500D01*
X198750D01*
X199500Y214750D01*
Y213250D01*
X198750Y212500D02*X199500Y213250D01*
X197250Y212500D02*X198750D01*
X196500Y213250D02*X197250Y212500D01*
X201300Y215500D02*Y213250D01*
X202050Y212500D01*
X203550D01*
X204300Y213250D01*
Y215500D02*Y213250D01*
X206850Y218500D02*Y213250D01*
X207600Y212500D01*
X206100Y216250D02*X207600D01*
X209100Y211000D02*X210600Y212500D01*
X215100Y214750D02*X218100Y218500D01*
X215100Y214750D02*X218850D01*
X218100Y218500D02*Y212500D01*
X220650Y217300D02*X221850Y218500D01*
Y212500D01*
X220650D02*X222900D01*
X227400Y218500D02*Y212500D01*
Y214750D02*X228150Y215500D01*
X229650D01*
X230400Y214750D01*
Y212500D01*
X232200Y214750D02*Y213250D01*
Y214750D02*X232950Y215500D01*
X234450D01*
X235200Y214750D01*
Y213250D01*
X234450Y212500D02*X235200Y213250D01*
X232950Y212500D02*X234450D01*
X232200Y213250D02*X232950Y212500D01*
X237000Y218500D02*Y213250D01*
X237750Y212500D01*
X240000D02*X242250D01*
X239250Y213250D02*X240000Y212500D01*
X239250Y214750D02*Y213250D01*
Y214750D02*X240000Y215500D01*
X241500D01*
X242250Y214750D01*
X239250Y214000D02*X242250D01*
Y214750D02*Y214000D01*
X244800Y212500D02*X247050D01*
X247800Y213250D01*
X247050Y214000D02*X247800Y213250D01*
X244800Y214000D02*X247050D01*
X244050Y214750D02*X244800Y214000D01*
X244050Y214750D02*X244800Y215500D01*
X247050D01*
X247800Y214750D01*
X244050Y213250D02*X244800Y212500D01*
X253050Y218500D02*Y213250D01*
X253800Y212500D01*
X252300Y216250D02*X253800D01*
X255300Y214750D02*Y213250D01*
Y214750D02*X256050Y215500D01*
X257550D01*
X258300Y214750D01*
Y213250D01*
X257550Y212500D02*X258300Y213250D01*
X256050Y212500D02*X257550D01*
X255300Y213250D02*X256050Y212500D01*
X260850Y218500D02*Y213250D01*
X261600Y212500D01*
X260100Y216250D02*X261600D01*
X265350Y215500D02*X266100Y214750D01*
X263850Y215500D02*X265350D01*
X263100Y214750D02*X263850Y215500D01*
X263100Y214750D02*Y213250D01*
X263850Y212500D01*
X266100Y215500D02*Y213250D01*
X266850Y212500D01*
X263850D02*X265350D01*
X266100Y213250D01*
X268650Y218500D02*Y213250D01*
X269400Y212500D01*
G54D70*X0Y85000D02*X225000D01*
X0D02*Y0D01*
X225000Y85000D02*Y0D01*
X0D02*X225000D01*
G54D68*X200000Y98500D02*Y92500D01*
Y98500D02*X202250Y95500D01*
X204500Y98500D01*
Y92500D01*
X208550Y95500D02*X209300Y94750D01*
X207050Y95500D02*X208550D01*
X206300Y94750D02*X207050Y95500D01*
X206300Y94750D02*Y93250D01*
X207050Y92500D01*
X209300Y95500D02*Y93250D01*
X210050Y92500D01*
X207050D02*X208550D01*
X209300Y93250D01*
X211850Y95500D02*X214850Y92500D01*
X211850D02*X214850Y95500D01*
G54D69*X216650Y97000D02*Y96850D01*
G54D68*Y94750D02*Y92500D01*
X218900Y94750D02*Y92500D01*
Y94750D02*X219650Y95500D01*
X220400D01*
X221150Y94750D01*
Y92500D01*
Y94750D02*X221900Y95500D01*
X222650D01*
X223400Y94750D01*
Y92500D01*
X218150Y95500D02*X218900Y94750D01*
X225200Y95500D02*Y93250D01*
X225950Y92500D01*
X227450D01*
X228200Y93250D01*
Y95500D02*Y93250D01*
X230750Y94750D02*Y92500D01*
Y94750D02*X231500Y95500D01*
X232250D01*
X233000Y94750D01*
Y92500D01*
Y94750D02*X233750Y95500D01*
X234500D01*
X235250Y94750D01*
Y92500D01*
X230000Y95500D02*X230750Y94750D01*
X240500Y98500D02*Y92500D01*
X242450Y98500D02*X243500Y97450D01*
Y93550D01*
X242450Y92500D02*X243500Y93550D01*
X239750Y92500D02*X242450D01*
X239750Y98500D02*X242450D01*
G54D69*X245300Y97000D02*Y96850D01*
G54D68*Y94750D02*Y92500D01*
X247550Y94750D02*Y92500D01*
Y94750D02*X248300Y95500D01*
X249050D01*
X249800Y94750D01*
Y92500D01*
Y94750D02*X250550Y95500D01*
X251300D01*
X252050Y94750D01*
Y92500D01*
X246800Y95500D02*X247550Y94750D01*
X254600Y92500D02*X256850D01*
X253850Y93250D02*X254600Y92500D01*
X253850Y94750D02*Y93250D01*
Y94750D02*X254600Y95500D01*
X256100D01*
X256850Y94750D01*
X253850Y94000D02*X256850D01*
Y94750D02*Y94000D01*
X259400Y94750D02*Y92500D01*
Y94750D02*X260150Y95500D01*
X260900D01*
X261650Y94750D01*
Y92500D01*
X258650Y95500D02*X259400Y94750D01*
X264200Y92500D02*X266450D01*
X267200Y93250D01*
X266450Y94000D02*X267200Y93250D01*
X264200Y94000D02*X266450D01*
X263450Y94750D02*X264200Y94000D01*
X263450Y94750D02*X264200Y95500D01*
X266450D01*
X267200Y94750D01*
X263450Y93250D02*X264200Y92500D01*
G54D69*X269000Y97000D02*Y96850D01*
G54D68*Y94750D02*Y92500D01*
X270500Y94750D02*Y93250D01*
Y94750D02*X271250Y95500D01*
X272750D01*
X273500Y94750D01*
Y93250D01*
X272750Y92500D02*X273500Y93250D01*
X271250Y92500D02*X272750D01*
X270500Y93250D02*X271250Y92500D01*
X276050Y94750D02*Y92500D01*
Y94750D02*X276800Y95500D01*
X277550D01*
X278300Y94750D01*
Y92500D01*
X275300Y95500D02*X276050Y94750D01*
X280850Y92500D02*X283100D01*
X283850Y93250D01*
X283100Y94000D02*X283850Y93250D01*
X280850Y94000D02*X283100D01*
X280100Y94750D02*X280850Y94000D01*
X280100Y94750D02*X280850Y95500D01*
X283100D01*
X283850Y94750D01*
X280100Y93250D02*X280850Y92500D01*
X285650Y96250D02*X286400D01*
X285650Y94750D02*X286400D01*
X290900Y97750D02*X291650Y98500D01*
X293900D01*
X294650Y97750D01*
Y96250D01*
X290900Y92500D02*X294650Y96250D01*
X290900Y92500D02*X294650D01*
X296450Y97750D02*X297200Y98500D01*
X299450D01*
X300200Y97750D01*
Y96250D01*
X296450Y92500D02*X300200Y96250D01*
X296450Y92500D02*X300200D01*
X302000Y98500D02*X305000D01*
X302000D02*Y95500D01*
X302750Y96250D01*
X304250D01*
X305000Y95500D01*
Y93250D01*
X304250Y92500D02*X305000Y93250D01*
X302750Y92500D02*X304250D01*
X302000Y93250D02*X302750Y92500D01*
X306800Y93250D02*X307550Y92500D01*
X306800Y97750D02*Y93250D01*
Y97750D02*X307550Y98500D01*
X309050D01*
X309800Y97750D01*
Y93250D01*
X309050Y92500D02*X309800Y93250D01*
X307550Y92500D02*X309050D01*
X306800Y94000D02*X309800Y97000D01*
X311600Y92500D02*X312350D01*
X314150Y93250D02*X314900Y92500D01*
X314150Y97750D02*Y93250D01*
Y97750D02*X314900Y98500D01*
X316400D01*
X317150Y97750D01*
Y93250D01*
X316400Y92500D02*X317150Y93250D01*
X314900Y92500D02*X316400D01*
X314150Y94000D02*X317150Y97000D01*
X318950Y93250D02*X319700Y92500D01*
X318950Y97750D02*Y93250D01*
Y97750D02*X319700Y98500D01*
X321200D01*
X321950Y97750D01*
Y93250D01*
X321200Y92500D02*X321950Y93250D01*
X319700Y92500D02*X321200D01*
X318950Y94000D02*X321950Y97000D01*
X323750Y93250D02*X324500Y92500D01*
X323750Y97750D02*Y93250D01*
Y97750D02*X324500Y98500D01*
X326000D01*
X326750Y97750D01*
Y93250D01*
X326000Y92500D02*X326750Y93250D01*
X324500Y92500D02*X326000D01*
X323750Y94000D02*X326750Y97000D01*
X328550Y93250D02*X329300Y92500D01*
X328550Y97750D02*Y93250D01*
Y97750D02*X329300Y98500D01*
X330800D01*
X331550Y97750D01*
Y93250D01*
X330800Y92500D02*X331550Y93250D01*
X329300Y92500D02*X330800D01*
X328550Y94000D02*X331550Y97000D01*
X333350Y93250D02*X334100Y92500D01*
X333350Y97750D02*Y93250D01*
Y97750D02*X334100Y98500D01*
X335600D01*
X336350Y97750D01*
Y93250D01*
X335600Y92500D02*X336350Y93250D01*
X334100Y92500D02*X335600D01*
X333350Y94000D02*X336350Y97000D01*
X338150Y93250D02*X338900Y92500D01*
X338150Y97750D02*Y93250D01*
Y97750D02*X338900Y98500D01*
X340400D01*
X341150Y97750D01*
Y93250D01*
X340400Y92500D02*X341150Y93250D01*
X338900Y92500D02*X340400D01*
X338150Y94000D02*X341150Y97000D01*
X346400Y94750D02*Y92500D01*
Y94750D02*X347150Y95500D01*
X347900D01*
X348650Y94750D01*
Y92500D01*
Y94750D02*X349400Y95500D01*
X350150D01*
X350900Y94750D01*
Y92500D01*
X345650Y95500D02*X346400Y94750D01*
G54D69*X352700Y97000D02*Y96850D01*
G54D68*Y94750D02*Y92500D01*
X354200Y98500D02*Y93250D01*
X354950Y92500D01*
X357200D02*X359450D01*
X360200Y93250D01*
X359450Y94000D02*X360200Y93250D01*
X357200Y94000D02*X359450D01*
X356450Y94750D02*X357200Y94000D01*
X356450Y94750D02*X357200Y95500D01*
X359450D01*
X360200Y94750D01*
X356450Y93250D02*X357200Y92500D01*
X364700Y95500D02*Y93250D01*
X365450Y92500D01*
X366200D01*
X366950Y93250D01*
Y95500D02*Y93250D01*
X367700Y92500D01*
X368450D01*
X369200Y93250D01*
Y95500D02*Y93250D01*
G54D69*X371000Y97000D02*Y96850D01*
G54D68*Y94750D02*Y92500D01*
X375500Y98500D02*Y92500D01*
X374750D02*X375500Y93250D01*
X373250Y92500D02*X374750D01*
X372500Y93250D02*X373250Y92500D01*
X372500Y94750D02*Y93250D01*
Y94750D02*X373250Y95500D01*
X374750D01*
X375500Y94750D01*
X378050Y92500D02*X380300D01*
X377300Y93250D02*X378050Y92500D01*
X377300Y94750D02*Y93250D01*
Y94750D02*X378050Y95500D01*
X379550D01*
X380300Y94750D01*
X377300Y94000D02*X380300D01*
Y94750D02*Y94000D01*
X382100Y91000D02*X383600Y92500D01*
X388100Y93250D02*X388850Y92500D01*
X388100Y94450D02*Y93250D01*
Y94450D02*X389150Y95500D01*
X390050D01*
X391100Y94450D01*
Y93250D01*
X390350Y92500D02*X391100Y93250D01*
X388850Y92500D02*X390350D01*
X388100Y96550D02*X389150Y95500D01*
X388100Y97750D02*Y96550D01*
Y97750D02*X388850Y98500D01*
X390350D01*
X391100Y97750D01*
Y96550D01*
X390050Y95500D02*X391100Y96550D01*
X392900Y98500D02*X395900D01*
X392900D02*Y95500D01*
X393650Y96250D01*
X395150D01*
X395900Y95500D01*
Y93250D01*
X395150Y92500D02*X395900Y93250D01*
X393650Y92500D02*X395150D01*
X392900Y93250D02*X393650Y92500D01*
X397700Y93250D02*X398450Y92500D01*
X397700Y97750D02*Y93250D01*
Y97750D02*X398450Y98500D01*
X399950D01*
X400700Y97750D01*
Y93250D01*
X399950Y92500D02*X400700Y93250D01*
X398450Y92500D02*X399950D01*
X397700Y94000D02*X400700Y97000D01*
X402500Y92500D02*X403250D01*
X405050Y93250D02*X405800Y92500D01*
X405050Y97750D02*Y93250D01*
Y97750D02*X405800Y98500D01*
X407300D01*
X408050Y97750D01*
Y93250D01*
X407300Y92500D02*X408050Y93250D01*
X405800Y92500D02*X407300D01*
X405050Y94000D02*X408050Y97000D01*
X409850Y93250D02*X410600Y92500D01*
X409850Y97750D02*Y93250D01*
Y97750D02*X410600Y98500D01*
X412100D01*
X412850Y97750D01*
Y93250D01*
X412100Y92500D02*X412850Y93250D01*
X410600Y92500D02*X412100D01*
X409850Y94000D02*X412850Y97000D01*
X414650Y93250D02*X415400Y92500D01*
X414650Y97750D02*Y93250D01*
Y97750D02*X415400Y98500D01*
X416900D01*
X417650Y97750D01*
Y93250D01*
X416900Y92500D02*X417650Y93250D01*
X415400Y92500D02*X416900D01*
X414650Y94000D02*X417650Y97000D01*
X419450Y93250D02*X420200Y92500D01*
X419450Y97750D02*Y93250D01*
Y97750D02*X420200Y98500D01*
X421700D01*
X422450Y97750D01*
Y93250D01*
X421700Y92500D02*X422450Y93250D01*
X420200Y92500D02*X421700D01*
X419450Y94000D02*X422450Y97000D01*
X424250Y93250D02*X425000Y92500D01*
X424250Y97750D02*Y93250D01*
Y97750D02*X425000Y98500D01*
X426500D01*
X427250Y97750D01*
Y93250D01*
X426500Y92500D02*X427250Y93250D01*
X425000Y92500D02*X426500D01*
X424250Y94000D02*X427250Y97000D01*
X429050Y93250D02*X429800Y92500D01*
X429050Y97750D02*Y93250D01*
Y97750D02*X429800Y98500D01*
X431300D01*
X432050Y97750D01*
Y93250D01*
X431300Y92500D02*X432050Y93250D01*
X429800Y92500D02*X431300D01*
X429050Y94000D02*X432050Y97000D01*
X437300Y94750D02*Y92500D01*
Y94750D02*X438050Y95500D01*
X438800D01*
X439550Y94750D01*
Y92500D01*
Y94750D02*X440300Y95500D01*
X441050D01*
X441800Y94750D01*
Y92500D01*
X436550Y95500D02*X437300Y94750D01*
G54D69*X443600Y97000D02*Y96850D01*
G54D68*Y94750D02*Y92500D01*
X445100Y98500D02*Y93250D01*
X445850Y92500D01*
X448100D02*X450350D01*
X451100Y93250D01*
X450350Y94000D02*X451100Y93250D01*
X448100Y94000D02*X450350D01*
X447350Y94750D02*X448100Y94000D01*
X447350Y94750D02*X448100Y95500D01*
X450350D01*
X451100Y94750D01*
X447350Y93250D02*X448100Y92500D01*
X455600Y98500D02*Y92500D01*
Y94750D02*X456350Y95500D01*
X457850D01*
X458600Y94750D01*
Y92500D01*
G54D69*X460400Y97000D02*Y96850D01*
G54D68*Y94750D02*Y92500D01*
X464150Y95500D02*X464900Y94750D01*
X462650Y95500D02*X464150D01*
X461900Y94750D02*X462650Y95500D01*
X461900Y94750D02*Y93250D01*
X462650Y92500D01*
X464150D01*
X464900Y93250D01*
X461900Y91000D02*X462650Y90250D01*
X464150D01*
X464900Y91000D01*
Y95500D02*Y91000D01*
X466700Y98500D02*Y92500D01*
Y94750D02*X467450Y95500D01*
X468950D01*
X469700Y94750D01*
Y92500D01*
X0Y-9500D02*X3000D01*
X3750Y-8750D01*
Y-6950D02*Y-8750D01*
X3000Y-6200D02*X3750Y-6950D01*
X750Y-6200D02*X3000D01*
X750Y-3500D02*Y-9500D01*
X0Y-3500D02*X3000D01*
X3750Y-4250D01*
Y-5450D01*
X3000Y-6200D02*X3750Y-5450D01*
X5550Y-7250D02*Y-8750D01*
Y-7250D02*X6300Y-6500D01*
X7800D01*
X8550Y-7250D01*
Y-8750D01*
X7800Y-9500D02*X8550Y-8750D01*
X6300Y-9500D02*X7800D01*
X5550Y-8750D02*X6300Y-9500D01*
X12600Y-6500D02*X13350Y-7250D01*
X11100Y-6500D02*X12600D01*
X10350Y-7250D02*X11100Y-6500D01*
X10350Y-7250D02*Y-8750D01*
X11100Y-9500D01*
X13350Y-6500D02*Y-8750D01*
X14100Y-9500D01*
X11100D02*X12600D01*
X13350Y-8750D01*
X16650Y-7250D02*Y-9500D01*
Y-7250D02*X17400Y-6500D01*
X18900D01*
X15900D02*X16650Y-7250D01*
X23700Y-3500D02*Y-9500D01*
X22950D02*X23700Y-8750D01*
X21450Y-9500D02*X22950D01*
X20700Y-8750D02*X21450Y-9500D01*
X20700Y-7250D02*Y-8750D01*
Y-7250D02*X21450Y-6500D01*
X22950D01*
X23700Y-7250D01*
X28200D02*Y-8750D01*
Y-7250D02*X28950Y-6500D01*
X30450D01*
X31200Y-7250D01*
Y-8750D01*
X30450Y-9500D02*X31200Y-8750D01*
X28950Y-9500D02*X30450D01*
X28200Y-8750D02*X28950Y-9500D01*
X33000Y-6500D02*Y-8750D01*
X33750Y-9500D01*
X35250D01*
X36000Y-8750D01*
Y-6500D02*Y-8750D01*
X38550Y-3500D02*Y-8750D01*
X39300Y-9500D01*
X37800Y-5750D02*X39300D01*
X40800Y-3500D02*Y-8750D01*
X41550Y-9500D01*
G54D69*X43050Y-5000D02*Y-5150D01*
G54D68*Y-7250D02*Y-9500D01*
X45300Y-7250D02*Y-9500D01*
Y-7250D02*X46050Y-6500D01*
X46800D01*
X47550Y-7250D01*
Y-9500D01*
X44550Y-6500D02*X45300Y-7250D01*
X50100Y-9500D02*X52350D01*
X49350Y-8750D02*X50100Y-9500D01*
X49350Y-7250D02*Y-8750D01*
Y-7250D02*X50100Y-6500D01*
X51600D01*
X52350Y-7250D01*
X49350Y-8000D02*X52350D01*
Y-7250D02*Y-8000D01*
G54D69*X56850Y-5000D02*Y-5150D01*
G54D68*Y-7250D02*Y-9500D01*
X59100D02*X61350D01*
X62100Y-8750D01*
X61350Y-8000D02*X62100Y-8750D01*
X59100Y-8000D02*X61350D01*
X58350Y-7250D02*X59100Y-8000D01*
X58350Y-7250D02*X59100Y-6500D01*
X61350D01*
X62100Y-7250D01*
X58350Y-8750D02*X59100Y-9500D01*
X67350Y-3500D02*Y-8750D01*
X68100Y-9500D01*
X66600Y-5750D02*X68100D01*
X69600Y-3500D02*Y-9500D01*
Y-7250D02*X70350Y-6500D01*
X71850D01*
X72600Y-7250D01*
Y-9500D01*
X75150D02*X77400D01*
X74400Y-8750D02*X75150Y-9500D01*
X74400Y-7250D02*Y-8750D01*
Y-7250D02*X75150Y-6500D01*
X76650D01*
X77400Y-7250D01*
X74400Y-8000D02*X77400D01*
Y-7250D02*Y-8000D01*
X82650Y-6500D02*X84900D01*
X81900Y-7250D02*X82650Y-6500D01*
X81900Y-7250D02*Y-8750D01*
X82650Y-9500D01*
X84900D01*
X87450D02*X89700D01*
X86700Y-8750D02*X87450Y-9500D01*
X86700Y-7250D02*Y-8750D01*
Y-7250D02*X87450Y-6500D01*
X88950D01*
X89700Y-7250D01*
X86700Y-8000D02*X89700D01*
Y-7250D02*Y-8000D01*
X92250Y-7250D02*Y-9500D01*
Y-7250D02*X93000Y-6500D01*
X93750D01*
X94500Y-7250D01*
Y-9500D01*
X91500Y-6500D02*X92250Y-7250D01*
X97050Y-3500D02*Y-8750D01*
X97800Y-9500D01*
X96300Y-5750D02*X97800D01*
X100050Y-9500D02*X102300D01*
X99300Y-8750D02*X100050Y-9500D01*
X99300Y-7250D02*Y-8750D01*
Y-7250D02*X100050Y-6500D01*
X101550D01*
X102300Y-7250D01*
X99300Y-8000D02*X102300D01*
Y-7250D02*Y-8000D01*
X104850Y-7250D02*Y-9500D01*
Y-7250D02*X105600Y-6500D01*
X107100D01*
X104100D02*X104850Y-7250D01*
X108900Y-3500D02*Y-8750D01*
X109650Y-9500D01*
G54D69*X111150Y-5000D02*Y-5150D01*
G54D68*Y-7250D02*Y-9500D01*
X113400Y-7250D02*Y-9500D01*
Y-7250D02*X114150Y-6500D01*
X114900D01*
X115650Y-7250D01*
Y-9500D01*
X112650Y-6500D02*X113400Y-7250D01*
X118200Y-9500D02*X120450D01*
X117450Y-8750D02*X118200Y-9500D01*
X117450Y-7250D02*Y-8750D01*
Y-7250D02*X118200Y-6500D01*
X119700D01*
X120450Y-7250D01*
X117450Y-8000D02*X120450D01*
Y-7250D02*Y-8000D01*
X124950Y-7250D02*Y-8750D01*
Y-7250D02*X125700Y-6500D01*
X127200D01*
X127950Y-7250D01*
Y-8750D01*
X127200Y-9500D02*X127950Y-8750D01*
X125700Y-9500D02*X127200D01*
X124950Y-8750D02*X125700Y-9500D01*
X130500Y-4250D02*Y-9500D01*
Y-4250D02*X131250Y-3500D01*
X132000D01*
X129750Y-6500D02*X131250D01*
X136950Y-3500D02*Y-8750D01*
X137700Y-9500D01*
X136200Y-5750D02*X137700D01*
X139200Y-3500D02*Y-9500D01*
Y-7250D02*X139950Y-6500D01*
X141450D01*
X142200Y-7250D01*
Y-9500D01*
G54D69*X144000Y-5000D02*Y-5150D01*
G54D68*Y-7250D02*Y-9500D01*
X146250D02*X148500D01*
X149250Y-8750D01*
X148500Y-8000D02*X149250Y-8750D01*
X146250Y-8000D02*X148500D01*
X145500Y-7250D02*X146250Y-8000D01*
X145500Y-7250D02*X146250Y-6500D01*
X148500D01*
X149250Y-7250D01*
X145500Y-8750D02*X146250Y-9500D01*
X153750Y-8750D02*X154500Y-9500D01*
X153750Y-7550D02*Y-8750D01*
Y-7550D02*X154800Y-6500D01*
X155700D01*
X156750Y-7550D01*
Y-8750D01*
X156000Y-9500D02*X156750Y-8750D01*
X154500Y-9500D02*X156000D01*
X153750Y-5450D02*X154800Y-6500D01*
X153750Y-4250D02*Y-5450D01*
Y-4250D02*X154500Y-3500D01*
X156000D01*
X156750Y-4250D01*
Y-5450D01*
X155700Y-6500D02*X156750Y-5450D01*
X158550Y-9500D02*X159300D01*
X161100Y-8750D02*X161850Y-9500D01*
X161100Y-4250D02*Y-8750D01*
Y-4250D02*X161850Y-3500D01*
X163350D01*
X164100Y-4250D01*
Y-8750D01*
X163350Y-9500D02*X164100Y-8750D01*
X161850Y-9500D02*X163350D01*
X161100Y-8000D02*X164100Y-5000D01*
X165900Y-8750D02*X166650Y-9500D01*
X165900Y-4250D02*Y-8750D01*
Y-4250D02*X166650Y-3500D01*
X168150D01*
X168900Y-4250D01*
Y-8750D01*
X168150Y-9500D02*X168900Y-8750D01*
X166650Y-9500D02*X168150D01*
X165900Y-8000D02*X168900Y-5000D01*
X170700Y-8750D02*X171450Y-9500D01*
X170700Y-4250D02*Y-8750D01*
Y-4250D02*X171450Y-3500D01*
X172950D01*
X173700Y-4250D01*
Y-8750D01*
X172950Y-9500D02*X173700Y-8750D01*
X171450Y-9500D02*X172950D01*
X170700Y-8000D02*X173700Y-5000D01*
X175500Y-8750D02*X176250Y-9500D01*
X175500Y-4250D02*Y-8750D01*
Y-4250D02*X176250Y-3500D01*
X177750D01*
X178500Y-4250D01*
Y-8750D01*
X177750Y-9500D02*X178500Y-8750D01*
X176250Y-9500D02*X177750D01*
X175500Y-8000D02*X178500Y-5000D01*
X180300Y-8750D02*X181050Y-9500D01*
X180300Y-4250D02*Y-8750D01*
Y-4250D02*X181050Y-3500D01*
X182550D01*
X183300Y-4250D01*
Y-8750D01*
X182550Y-9500D02*X183300Y-8750D01*
X181050Y-9500D02*X182550D01*
X180300Y-8000D02*X183300Y-5000D01*
X185100Y-8750D02*X185850Y-9500D01*
X185100Y-4250D02*Y-8750D01*
Y-4250D02*X185850Y-3500D01*
X187350D01*
X188100Y-4250D01*
Y-8750D01*
X187350Y-9500D02*X188100Y-8750D01*
X185850Y-9500D02*X187350D01*
X185100Y-8000D02*X188100Y-5000D01*
X193350Y-7250D02*Y-9500D01*
Y-7250D02*X194100Y-6500D01*
X194850D01*
X195600Y-7250D01*
Y-9500D01*
Y-7250D02*X196350Y-6500D01*
X197100D01*
X197850Y-7250D01*
Y-9500D01*
X192600Y-6500D02*X193350Y-7250D01*
G54D69*X199650Y-5000D02*Y-5150D01*
G54D68*Y-7250D02*Y-9500D01*
X201150Y-3500D02*Y-8750D01*
X201900Y-9500D01*
X206850Y-7250D02*Y-9500D01*
Y-7250D02*X207600Y-6500D01*
X209100D01*
X206100D02*X206850Y-7250D01*
X211650Y-9500D02*X213900D01*
X210900Y-8750D02*X211650Y-9500D01*
X210900Y-7250D02*Y-8750D01*
Y-7250D02*X211650Y-6500D01*
X213150D01*
X213900Y-7250D01*
X210900Y-8000D02*X213900D01*
Y-7250D02*Y-8000D01*
X216450Y-6500D02*X218700D01*
X215700Y-7250D02*X216450Y-6500D01*
X215700Y-7250D02*Y-8750D01*
X216450Y-9500D01*
X218700D01*
X221250Y-3500D02*Y-8750D01*
X222000Y-9500D01*
X220500Y-5750D02*X222000D01*
X225750Y-6500D02*X226500Y-7250D01*
X224250Y-6500D02*X225750D01*
X223500Y-7250D02*X224250Y-6500D01*
X223500Y-7250D02*Y-8750D01*
X224250Y-9500D01*
X226500Y-6500D02*Y-8750D01*
X227250Y-9500D01*
X224250D02*X225750D01*
X226500Y-8750D01*
X229800Y-7250D02*Y-9500D01*
Y-7250D02*X230550Y-6500D01*
X231300D01*
X232050Y-7250D01*
Y-9500D01*
X229050Y-6500D02*X229800Y-7250D01*
X236100Y-6500D02*X236850Y-7250D01*
X234600Y-6500D02*X236100D01*
X233850Y-7250D02*X234600Y-6500D01*
X233850Y-7250D02*Y-8750D01*
X234600Y-9500D01*
X236100D01*
X236850Y-8750D01*
X233850Y-11000D02*X234600Y-11750D01*
X236100D01*
X236850Y-11000D01*
Y-6500D02*Y-11000D01*
X238650Y-3500D02*Y-8750D01*
X239400Y-9500D01*
X241650D02*X243900D01*
X240900Y-8750D02*X241650Y-9500D01*
X240900Y-7250D02*Y-8750D01*
Y-7250D02*X241650Y-6500D01*
X243150D01*
X243900Y-7250D01*
X240900Y-8000D02*X243900D01*
Y-7250D02*Y-8000D01*
X248400Y-6500D02*X251400D01*
X255900Y-8750D02*X256650Y-9500D01*
X255900Y-4250D02*Y-8750D01*
Y-4250D02*X256650Y-3500D01*
X258150D01*
X258900Y-4250D01*
Y-8750D01*
X258150Y-9500D02*X258900Y-8750D01*
X256650Y-9500D02*X258150D01*
X255900Y-8000D02*X258900Y-5000D01*
X260700Y-11000D02*X262200Y-9500D01*
X264000Y-8750D02*X264750Y-9500D01*
X264000Y-4250D02*Y-8750D01*
Y-4250D02*X264750Y-3500D01*
X266250D01*
X267000Y-4250D01*
Y-8750D01*
X266250Y-9500D02*X267000Y-8750D01*
X264750Y-9500D02*X266250D01*
X264000Y-8000D02*X267000Y-5000D01*
X272250Y-3500D02*Y-8750D01*
X273000Y-9500D01*
X271500Y-5750D02*X273000D01*
X274500Y-7250D02*Y-8750D01*
Y-7250D02*X275250Y-6500D01*
X276750D01*
X277500Y-7250D01*
Y-8750D01*
X276750Y-9500D02*X277500Y-8750D01*
X275250Y-9500D02*X276750D01*
X274500Y-8750D02*X275250Y-9500D01*
X282000Y-4250D02*X282750Y-3500D01*
X285000D01*
X285750Y-4250D01*
Y-5750D01*
X282000Y-9500D02*X285750Y-5750D01*
X282000Y-9500D02*X285750D01*
X287550Y-4250D02*X288300Y-3500D01*
X290550D01*
X291300Y-4250D01*
Y-5750D01*
X287550Y-9500D02*X291300Y-5750D01*
X287550Y-9500D02*X291300D01*
X293100Y-3500D02*X296100D01*
X293100D02*Y-6500D01*
X293850Y-5750D01*
X295350D01*
X296100Y-6500D01*
Y-8750D01*
X295350Y-9500D02*X296100Y-8750D01*
X293850Y-9500D02*X295350D01*
X293100Y-8750D02*X293850Y-9500D01*
X297900Y-8750D02*X298650Y-9500D01*
X297900Y-4250D02*Y-8750D01*
Y-4250D02*X298650Y-3500D01*
X300150D01*
X300900Y-4250D01*
Y-8750D01*
X300150Y-9500D02*X300900Y-8750D01*
X298650Y-9500D02*X300150D01*
X297900Y-8000D02*X300900Y-5000D01*
X302700Y-9500D02*X303450D01*
X305250Y-8750D02*X306000Y-9500D01*
X305250Y-4250D02*Y-8750D01*
Y-4250D02*X306000Y-3500D01*
X307500D01*
X308250Y-4250D01*
Y-8750D01*
X307500Y-9500D02*X308250Y-8750D01*
X306000Y-9500D02*X307500D01*
X305250Y-8000D02*X308250Y-5000D01*
X310050Y-8750D02*X310800Y-9500D01*
X310050Y-4250D02*Y-8750D01*
Y-4250D02*X310800Y-3500D01*
X312300D01*
X313050Y-4250D01*
Y-8750D01*
X312300Y-9500D02*X313050Y-8750D01*
X310800Y-9500D02*X312300D01*
X310050Y-8000D02*X313050Y-5000D01*
X314850Y-8750D02*X315600Y-9500D01*
X314850Y-4250D02*Y-8750D01*
Y-4250D02*X315600Y-3500D01*
X317100D01*
X317850Y-4250D01*
Y-8750D01*
X317100Y-9500D02*X317850Y-8750D01*
X315600Y-9500D02*X317100D01*
X314850Y-8000D02*X317850Y-5000D01*
X319650Y-8750D02*X320400Y-9500D01*
X319650Y-4250D02*Y-8750D01*
Y-4250D02*X320400Y-3500D01*
X321900D01*
X322650Y-4250D01*
Y-8750D01*
X321900Y-9500D02*X322650Y-8750D01*
X320400Y-9500D02*X321900D01*
X319650Y-8000D02*X322650Y-5000D01*
X324450Y-8750D02*X325200Y-9500D01*
X324450Y-4250D02*Y-8750D01*
Y-4250D02*X325200Y-3500D01*
X326700D01*
X327450Y-4250D01*
Y-8750D01*
X326700Y-9500D02*X327450Y-8750D01*
X325200Y-9500D02*X326700D01*
X324450Y-8000D02*X327450Y-5000D01*
X329250Y-8750D02*X330000Y-9500D01*
X329250Y-4250D02*Y-8750D01*
Y-4250D02*X330000Y-3500D01*
X331500D01*
X332250Y-4250D01*
Y-8750D01*
X331500Y-9500D02*X332250Y-8750D01*
X330000Y-9500D02*X331500D01*
X329250Y-8000D02*X332250Y-5000D01*
X334050Y-11000D02*X335550Y-9500D01*
X337350Y-8750D02*X338100Y-9500D01*
X337350Y-7550D02*Y-8750D01*
Y-7550D02*X338400Y-6500D01*
X339300D01*
X340350Y-7550D01*
Y-8750D01*
X339600Y-9500D02*X340350Y-8750D01*
X338100Y-9500D02*X339600D01*
X337350Y-5450D02*X338400Y-6500D01*
X337350Y-4250D02*Y-5450D01*
Y-4250D02*X338100Y-3500D01*
X339600D01*
X340350Y-4250D01*
Y-5450D01*
X339300Y-6500D02*X340350Y-5450D01*
X342150Y-3500D02*X345150D01*
X342150D02*Y-6500D01*
X342900Y-5750D01*
X344400D01*
X345150Y-6500D01*
Y-8750D01*
X344400Y-9500D02*X345150Y-8750D01*
X342900Y-9500D02*X344400D01*
X342150Y-8750D02*X342900Y-9500D01*
X346950Y-8750D02*X347700Y-9500D01*
X346950Y-4250D02*Y-8750D01*
Y-4250D02*X347700Y-3500D01*
X349200D01*
X349950Y-4250D01*
Y-8750D01*
X349200Y-9500D02*X349950Y-8750D01*
X347700Y-9500D02*X349200D01*
X346950Y-8000D02*X349950Y-5000D01*
X351750Y-9500D02*X352500D01*
X354300Y-8750D02*X355050Y-9500D01*
X354300Y-4250D02*Y-8750D01*
Y-4250D02*X355050Y-3500D01*
X356550D01*
X357300Y-4250D01*
Y-8750D01*
X356550Y-9500D02*X357300Y-8750D01*
X355050Y-9500D02*X356550D01*
X354300Y-8000D02*X357300Y-5000D01*
X359100Y-8750D02*X359850Y-9500D01*
X359100Y-4250D02*Y-8750D01*
Y-4250D02*X359850Y-3500D01*
X361350D01*
X362100Y-4250D01*
Y-8750D01*
X361350Y-9500D02*X362100Y-8750D01*
X359850Y-9500D02*X361350D01*
X359100Y-8000D02*X362100Y-5000D01*
X363900Y-8750D02*X364650Y-9500D01*
X363900Y-4250D02*Y-8750D01*
Y-4250D02*X364650Y-3500D01*
X366150D01*
X366900Y-4250D01*
Y-8750D01*
X366150Y-9500D02*X366900Y-8750D01*
X364650Y-9500D02*X366150D01*
X363900Y-8000D02*X366900Y-5000D01*
X368700Y-8750D02*X369450Y-9500D01*
X368700Y-4250D02*Y-8750D01*
Y-4250D02*X369450Y-3500D01*
X370950D01*
X371700Y-4250D01*
Y-8750D01*
X370950Y-9500D02*X371700Y-8750D01*
X369450Y-9500D02*X370950D01*
X368700Y-8000D02*X371700Y-5000D01*
X373500Y-8750D02*X374250Y-9500D01*
X373500Y-4250D02*Y-8750D01*
Y-4250D02*X374250Y-3500D01*
X375750D01*
X376500Y-4250D01*
Y-8750D01*
X375750Y-9500D02*X376500Y-8750D01*
X374250Y-9500D02*X375750D01*
X373500Y-8000D02*X376500Y-5000D01*
X378300Y-8750D02*X379050Y-9500D01*
X378300Y-4250D02*Y-8750D01*
Y-4250D02*X379050Y-3500D01*
X380550D01*
X381300Y-4250D01*
Y-8750D01*
X380550Y-9500D02*X381300Y-8750D01*
X379050Y-9500D02*X380550D01*
X378300Y-8000D02*X381300Y-5000D01*
X386550Y-7250D02*Y-9500D01*
Y-7250D02*X387300Y-6500D01*
X388050D01*
X388800Y-7250D01*
Y-9500D01*
Y-7250D02*X389550Y-6500D01*
X390300D01*
X391050Y-7250D01*
Y-9500D01*
X385800Y-6500D02*X386550Y-7250D01*
G54D69*X392850Y-5000D02*Y-5150D01*
G54D68*Y-7250D02*Y-9500D01*
X394350Y-3500D02*Y-8750D01*
X395100Y-9500D01*
X397350D02*X399600D01*
X400350Y-8750D01*
X399600Y-8000D02*X400350Y-8750D01*
X397350Y-8000D02*X399600D01*
X396600Y-7250D02*X397350Y-8000D01*
X396600Y-7250D02*X397350Y-6500D01*
X399600D01*
X400350Y-7250D01*
X396600Y-8750D02*X397350Y-9500D01*
X200750Y113500D02*Y107500D01*
X202700Y113500D02*X203750Y112450D01*
Y108550D01*
X202700Y107500D02*X203750Y108550D01*
X200000Y107500D02*X202700D01*
X200000Y113500D02*X202700D01*
X207800Y110500D02*X208550Y109750D01*
X206300Y110500D02*X207800D01*
X205550Y109750D02*X206300Y110500D01*
X205550Y109750D02*Y108250D01*
X206300Y107500D01*
X208550Y110500D02*Y108250D01*
X209300Y107500D01*
X206300D02*X207800D01*
X208550Y108250D01*
X211850Y113500D02*Y108250D01*
X212600Y107500D01*
X211100Y111250D02*X212600D01*
X214850Y107500D02*X217100D01*
X214100Y108250D02*X214850Y107500D01*
X214100Y109750D02*Y108250D01*
Y109750D02*X214850Y110500D01*
X216350D01*
X217100Y109750D01*
X214100Y109000D02*X217100D01*
Y109750D02*Y109000D01*
X218900Y111250D02*X219650D01*
X218900Y109750D02*X219650D01*
X224150Y113500D02*X227150D01*
X225650D02*Y107500D01*
X228950Y113500D02*Y107500D01*
Y109750D02*X229700Y110500D01*
X231200D01*
X231950Y109750D01*
Y107500D01*
X233750Y110500D02*Y108250D01*
X234500Y107500D01*
X236000D01*
X236750Y108250D01*
Y110500D02*Y108250D01*
X241250Y112300D02*X242450Y113500D01*
Y107500D01*
X241250D02*X243500D01*
X247550Y113500D02*X248300Y112750D01*
X246050Y113500D02*X247550D01*
X245300Y112750D02*X246050Y113500D01*
X245300Y112750D02*Y108250D01*
X246050Y107500D01*
X247550Y110800D02*X248300Y110050D01*
X245300Y110800D02*X247550D01*
X246050Y107500D02*X247550D01*
X248300Y108250D01*
Y110050D02*Y108250D01*
X252800Y113500D02*Y107500D01*
Y113500D02*X255050Y110500D01*
X257300Y113500D01*
Y107500D01*
X261350Y110500D02*X262100Y109750D01*
X259850Y110500D02*X261350D01*
X259100Y109750D02*X259850Y110500D01*
X259100Y109750D02*Y108250D01*
X259850Y107500D01*
X262100Y110500D02*Y108250D01*
X262850Y107500D01*
X259850D02*X261350D01*
X262100Y108250D01*
X264650Y110500D02*Y108250D01*
X265400Y107500D01*
X267650Y110500D02*Y106000D01*
X266900Y105250D02*X267650Y106000D01*
X265400Y105250D02*X266900D01*
X264650Y106000D02*X265400Y105250D01*
Y107500D02*X266900D01*
X267650Y108250D01*
X272150Y112750D02*X272900Y113500D01*
X275150D01*
X275900Y112750D01*
Y111250D01*
X272150Y107500D02*X275900Y111250D01*
X272150Y107500D02*X275900D01*
X277700Y108250D02*X278450Y107500D01*
X277700Y112750D02*Y108250D01*
Y112750D02*X278450Y113500D01*
X279950D01*
X280700Y112750D01*
Y108250D01*
X279950Y107500D02*X280700Y108250D01*
X278450Y107500D02*X279950D01*
X277700Y109000D02*X280700Y112000D01*
X282500Y112300D02*X283700Y113500D01*
Y107500D01*
X282500D02*X284750D01*
X286550Y112750D02*X287300Y113500D01*
X288800D01*
X289550Y112750D01*
X288800Y107500D02*X289550Y108250D01*
X287300Y107500D02*X288800D01*
X286550Y108250D02*X287300Y107500D01*
Y110800D02*X288800D01*
X289550Y112750D02*Y111550D01*
Y110050D02*Y108250D01*
Y110050D02*X288800Y110800D01*
X289550Y111550D02*X288800Y110800D01*
X294050Y108250D02*X294800Y107500D01*
X294050Y112750D02*Y108250D01*
Y112750D02*X294800Y113500D01*
X296300D01*
X297050Y112750D01*
Y108250D01*
X296300Y107500D02*X297050Y108250D01*
X294800Y107500D02*X296300D01*
X294050Y109000D02*X297050Y112000D01*
X298850Y108250D02*X299600Y107500D01*
X298850Y109450D02*Y108250D01*
Y109450D02*X299900Y110500D01*
X300800D01*
X301850Y109450D01*
Y108250D01*
X301100Y107500D02*X301850Y108250D01*
X299600Y107500D02*X301100D01*
X298850Y111550D02*X299900Y110500D01*
X298850Y112750D02*Y111550D01*
Y112750D02*X299600Y113500D01*
X301100D01*
X301850Y112750D01*
Y111550D01*
X300800Y110500D02*X301850Y111550D01*
X303650Y111250D02*X304400D01*
X303650Y109750D02*X304400D01*
X306200Y108250D02*X306950Y107500D01*
X306200Y112750D02*Y108250D01*
Y112750D02*X306950Y113500D01*
X308450D01*
X309200Y112750D01*
Y108250D01*
X308450Y107500D02*X309200Y108250D01*
X306950Y107500D02*X308450D01*
X306200Y109000D02*X309200Y112000D01*
X311750Y107500D02*X314000Y110500D01*
Y112750D02*Y110500D01*
X313250Y113500D02*X314000Y112750D01*
X311750Y113500D02*X313250D01*
X311000Y112750D02*X311750Y113500D01*
X311000Y112750D02*Y111250D01*
X311750Y110500D01*
X314000D01*
X315800Y111250D02*X316550D01*
X315800Y109750D02*X316550D01*
X318350D02*X321350Y113500D01*
X318350Y109750D02*X322100D01*
X321350Y113500D02*Y107500D01*
X323900Y113500D02*X326900D01*
X323900D02*Y110500D01*
X324650Y111250D01*
X326150D01*
X326900Y110500D01*
Y108250D01*
X326150Y107500D02*X326900Y108250D01*
X324650Y107500D02*X326150D01*
X323900Y108250D02*X324650Y107500D01*
X332150Y113500D02*Y107500D01*
X331400Y113500D02*X334400D01*
X335150Y112750D01*
Y111250D01*
X334400Y110500D02*X335150Y111250D01*
X332150Y110500D02*X334400D01*
X336950Y113500D02*Y107500D01*
Y113500D02*X339200Y110500D01*
X341450Y113500D01*
Y107500D01*
X348950Y113500D02*X349700Y112750D01*
X346700Y113500D02*X348950D01*
X345950Y112750D02*X346700Y113500D01*
X345950Y112750D02*Y108250D01*
X346700Y107500D01*
X348950D01*
X349700Y108250D01*
Y109750D02*Y108250D01*
X348950Y110500D02*X349700Y109750D01*
X347450Y110500D02*X348950D01*
X351500Y113500D02*Y107500D01*
Y113500D02*X353750Y110500D01*
X356000Y113500D01*
Y107500D01*
X357800Y113500D02*X360800D01*
X359300D02*Y107500D01*
X365300Y113500D02*Y108250D01*
X366050Y107500D01*
X367550D01*
X368300Y108250D01*
Y113500D02*Y108250D01*
X370100Y113500D02*X373100D01*
X371600D02*Y107500D01*
X375950D02*X377900D01*
X374900Y108550D02*X375950Y107500D01*
X374900Y112450D02*Y108550D01*
Y112450D02*X375950Y113500D01*
X377900D01*
X200000Y127000D02*Y122500D01*
Y127000D02*X201050Y128500D01*
X202700D01*
X203750Y127000D01*
Y122500D01*
X200000Y125500D02*X203750D01*
X205550D02*Y123250D01*
X206300Y122500D01*
X207800D01*
X208550Y123250D01*
Y125500D02*Y123250D01*
X211100Y128500D02*Y123250D01*
X211850Y122500D01*
X210350Y126250D02*X211850D01*
X213350Y128500D02*Y122500D01*
Y124750D02*X214100Y125500D01*
X215600D01*
X216350Y124750D01*
Y122500D01*
X218150Y124750D02*Y123250D01*
Y124750D02*X218900Y125500D01*
X220400D01*
X221150Y124750D01*
Y123250D01*
X220400Y122500D02*X221150Y123250D01*
X218900Y122500D02*X220400D01*
X218150Y123250D02*X218900Y122500D01*
X223700Y124750D02*Y122500D01*
Y124750D02*X224450Y125500D01*
X225950D01*
X222950D02*X223700Y124750D01*
X227750Y126250D02*X228500D01*
X227750Y124750D02*X228500D01*
X236000Y128500D02*X236750Y127750D01*
X233750Y128500D02*X236000D01*
X233000Y127750D02*X233750Y128500D01*
X233000Y127750D02*Y126250D01*
X233750Y125500D01*
X236000D01*
X236750Y124750D01*
Y123250D01*
X236000Y122500D02*X236750Y123250D01*
X233750Y122500D02*X236000D01*
X233000Y123250D02*X233750Y122500D01*
X238550Y128500D02*Y122500D01*
Y124750D02*X239300Y125500D01*
X240800D01*
X241550Y124750D01*
Y122500D01*
X245600Y125500D02*X246350Y124750D01*
X244100Y125500D02*X245600D01*
X243350Y124750D02*X244100Y125500D01*
X243350Y124750D02*Y123250D01*
X244100Y122500D01*
X246350Y125500D02*Y123250D01*
X247100Y122500D01*
X244100D02*X245600D01*
X246350Y123250D01*
X248900Y125500D02*Y123250D01*
X249650Y122500D01*
X250400D01*
X251150Y123250D01*
Y125500D02*Y123250D01*
X251900Y122500D01*
X252650D01*
X253400Y123250D01*
Y125500D02*Y123250D01*
X255950Y124750D02*Y122500D01*
Y124750D02*X256700Y125500D01*
X257450D01*
X258200Y124750D01*
Y122500D01*
X255200Y125500D02*X255950Y124750D01*
X262700Y128500D02*Y122500D01*
Y128500D02*X266450Y122500D01*
Y128500D02*Y122500D01*
X268250Y124750D02*Y123250D01*
Y124750D02*X269000Y125500D01*
X270500D01*
X271250Y124750D01*
Y123250D01*
X270500Y122500D02*X271250Y123250D01*
X269000Y122500D02*X270500D01*
X268250Y123250D02*X269000Y122500D01*
X273800Y125500D02*X276050D01*
X273050Y124750D02*X273800Y125500D01*
X273050Y124750D02*Y123250D01*
X273800Y122500D01*
X276050D01*
X277850Y128500D02*Y122500D01*
Y124750D02*X280100Y122500D01*
X277850Y124750D02*X279350Y126250D01*
X200000Y143500D02*X203000D01*
X201500D02*Y137500D01*
G54D69*X204800Y142000D02*Y141850D01*
G54D68*Y139750D02*Y137500D01*
X207050Y143500D02*Y138250D01*
X207800Y137500D01*
X206300Y141250D02*X207800D01*
X209300Y143500D02*Y138250D01*
X210050Y137500D01*
X212300D02*X214550D01*
X211550Y138250D02*X212300Y137500D01*
X211550Y139750D02*Y138250D01*
Y139750D02*X212300Y140500D01*
X213800D01*
X214550Y139750D01*
X211550Y139000D02*X214550D01*
Y139750D02*Y139000D01*
X216350Y141250D02*X217100D01*
X216350Y139750D02*X217100D01*
X221600Y142750D02*Y138250D01*
Y142750D02*X222350Y143500D01*
X223850D01*
X224600Y142750D01*
Y138250D01*
X223850Y137500D02*X224600Y138250D01*
X222350Y137500D02*X223850D01*
X221600Y138250D02*X222350Y137500D01*
X227150Y139750D02*Y135250D01*
X226400Y140500D02*X227150Y139750D01*
X227900Y140500D01*
X229400D01*
X230150Y139750D01*
Y138250D01*
X229400Y137500D02*X230150Y138250D01*
X227900Y137500D02*X229400D01*
X227150Y138250D02*X227900Y137500D01*
X232700D02*X234950D01*
X231950Y138250D02*X232700Y137500D01*
X231950Y139750D02*Y138250D01*
Y139750D02*X232700Y140500D01*
X234200D01*
X234950Y139750D01*
X231950Y139000D02*X234950D01*
Y139750D02*Y139000D01*
X237500Y139750D02*Y137500D01*
Y139750D02*X238250Y140500D01*
X239000D01*
X239750Y139750D01*
Y137500D01*
X236750Y140500D02*X237500Y139750D01*
X241550Y143500D02*X244550D01*
X243050D02*Y137500D01*
X247100Y143500D02*Y137500D01*
X249050Y143500D02*X250100Y142450D01*
Y138550D01*
X249050Y137500D02*X250100Y138550D01*
X246350Y137500D02*X249050D01*
X246350Y143500D02*X249050D01*
X252950Y137500D02*X254900D01*
X251900Y138550D02*X252950Y137500D01*
X251900Y142450D02*Y138550D01*
Y142450D02*X252950Y143500D01*
X254900D01*
X259700D02*X260450Y142750D01*
X257450Y143500D02*X259700D01*
X256700Y142750D02*X257450Y143500D01*
X256700Y142750D02*Y141250D01*
X257450Y140500D01*
X259700D01*
X260450Y139750D01*
Y138250D01*
X259700Y137500D02*X260450Y138250D01*
X257450Y137500D02*X259700D01*
X256700Y138250D02*X257450Y137500D01*
X262250Y136000D02*X263750Y137500D01*
X268250Y140500D02*X269750Y137500D01*
X271250Y140500D02*X269750Y137500D01*
X273050Y139750D02*X276050Y143500D01*
X273050Y139750D02*X276800D01*
X276050Y143500D02*Y137500D01*
X281300Y140500D02*X284300D01*
X288800Y143500D02*Y137500D01*
Y143500D02*X291800D01*
X288800Y140800D02*X291050D01*
X295850Y140500D02*X296600Y139750D01*
X294350Y140500D02*X295850D01*
X293600Y139750D02*X294350Y140500D01*
X293600Y139750D02*Y138250D01*
X294350Y137500D01*
X296600Y140500D02*Y138250D01*
X297350Y137500D01*
X294350D02*X295850D01*
X296600Y138250D01*
X299150Y143500D02*Y137500D01*
Y138250D02*X299900Y137500D01*
X301400D01*
X302150Y138250D01*
Y139750D02*Y138250D01*
X301400Y140500D02*X302150Y139750D01*
X299900Y140500D02*X301400D01*
X299150Y139750D02*X299900Y140500D01*
X304700Y139750D02*Y137500D01*
Y139750D02*X305450Y140500D01*
X306950D01*
X303950D02*X304700Y139750D01*
G54D69*X308750Y142000D02*Y141850D01*
G54D68*Y139750D02*Y137500D01*
X311000Y140500D02*X313250D01*
X310250Y139750D02*X311000Y140500D01*
X310250Y139750D02*Y138250D01*
X311000Y137500D01*
X313250D01*
X317300Y140500D02*X318050Y139750D01*
X315800Y140500D02*X317300D01*
X315050Y139750D02*X315800Y140500D01*
X315050Y139750D02*Y138250D01*
X315800Y137500D01*
X318050Y140500D02*Y138250D01*
X318800Y137500D01*
X315800D02*X317300D01*
X318050Y138250D01*
X321350Y143500D02*Y138250D01*
X322100Y137500D01*
X320600Y141250D02*X322100D01*
G54D69*X323600Y142000D02*Y141850D01*
G54D68*Y139750D02*Y137500D01*
X325100Y139750D02*Y138250D01*
Y139750D02*X325850Y140500D01*
X327350D01*
X328100Y139750D01*
Y138250D01*
X327350Y137500D02*X328100Y138250D01*
X325850Y137500D02*X327350D01*
X325100Y138250D02*X325850Y137500D01*
X330650Y139750D02*Y137500D01*
Y139750D02*X331400Y140500D01*
X332150D01*
X332900Y139750D01*
Y137500D01*
X329900Y140500D02*X330650Y139750D01*
X338150Y143500D02*Y137500D01*
X340100Y143500D02*X341150Y142450D01*
Y138550D01*
X340100Y137500D02*X341150Y138550D01*
X337400Y137500D02*X340100D01*
X337400Y143500D02*X340100D01*
X343700Y139750D02*Y137500D01*
Y139750D02*X344450Y140500D01*
X345950D01*
X342950D02*X343700Y139750D01*
X350000Y140500D02*X350750Y139750D01*
X348500Y140500D02*X350000D01*
X347750Y139750D02*X348500Y140500D01*
X347750Y139750D02*Y138250D01*
X348500Y137500D01*
X350750Y140500D02*Y138250D01*
X351500Y137500D01*
X348500D02*X350000D01*
X350750Y138250D01*
X353300Y140500D02*Y138250D01*
X354050Y137500D01*
X354800D01*
X355550Y138250D01*
Y140500D02*Y138250D01*
X356300Y137500D01*
X357050D01*
X357800Y138250D01*
Y140500D02*Y138250D01*
G54D69*X359600Y142000D02*Y141850D01*
G54D68*Y139750D02*Y137500D01*
X361850Y139750D02*Y137500D01*
Y139750D02*X362600Y140500D01*
X363350D01*
X364100Y139750D01*
Y137500D01*
X361100Y140500D02*X361850Y139750D01*
X368150Y140500D02*X368900Y139750D01*
X366650Y140500D02*X368150D01*
X365900Y139750D02*X366650Y140500D01*
X365900Y139750D02*Y138250D01*
X366650Y137500D01*
X368150D01*
X368900Y138250D01*
X365900Y136000D02*X366650Y135250D01*
X368150D01*
X368900Y136000D01*
Y140500D02*Y136000D01*
M02*
