M48
INCH
T48C0.042
T47C0.020
T46C0.043
T45C0.030
T44C0.038
T43C0.035
T42C0.028
%
T47
X012519Y006624
X013503Y007608
X014488Y006624
T42
X006201Y005843
X006201Y004843
X006201Y003843
X006201Y002843
X009201Y005843
X009201Y004843
X009201Y003843
X009201Y002843
T45
X000984Y007614
X003984Y007614
X015504Y001610
X015551Y002594
X015650Y007071
X015650Y004071
X016634Y007071
X016634Y004071
X018504Y001610
X018551Y002594
T43
X004429Y005185
X004429Y003185
X006760Y007614
X006760Y001315
X008760Y007614
X008760Y001315
X010925Y005154
X010925Y003154
T44
X000951Y004909
X000951Y003909
X021752Y006154
X021752Y005154
T48
X012484Y003677
X012484Y001512
X013484Y003677
X013484Y001512
X014484Y003677
X014484Y001512
T46
X001961Y006433
X002961Y006433
M30
