G04 start of page 2 for group 0 idx 0 *
G04 Title: OpenTDCS, v4, component *
G04 Creator: pcb 1.99z *
G04 CreationDate: Thu 16 May 2013 08:09:45 PM GMT UTC *
G04 For: nock *
G04 Format: Gerber/RS-274X *
G04 PCB-Dimensions (mil): 2250.00 850.00 *
G04 PCB-Coordinate-Origin: lower left *
%MOIN*%
%FSLAX25Y25*%
%LNTOP*%
%ADD25C,0.0420*%
%ADD24C,0.0200*%
%ADD23C,0.0430*%
%ADD22C,0.0300*%
%ADD21C,0.0380*%
%ADD20C,0.0350*%
%ADD19C,0.0280*%
%ADD18C,0.0720*%
%ADD17C,0.0360*%
%ADD16C,0.0650*%
%ADD15C,0.0550*%
%ADD14C,0.0800*%
%ADD13C,0.0600*%
%ADD12C,0.0001*%
%ADD11C,0.0250*%
G54D11*X62008Y51850D02*Y48425D01*
Y51850D02*X44291D01*
X67598Y58425D02*X62008D01*
X39843Y82392D02*Y76142D01*
X81348Y82392D02*X39843D01*
Y76142D02*X35106D01*
Y52095D01*
X12508D01*
Y49095D01*
X9508D01*
X16356Y76142D02*X9843D01*
X16356D02*Y67581D01*
X19606D02*X16356D01*
X19606D02*Y64331D01*
X62008Y38425D02*Y33675D01*
X44291D01*
Y31850D01*
X66614Y19400D02*Y13150D01*
Y28425D02*X62008D01*
X66614D02*Y13150D01*
X67598D02*X73819D01*
X81693Y21024D01*
X109252Y51535D02*Y40372D01*
X92008Y58425D02*Y53675D01*
X109252D02*X92008D01*
X109252D02*Y51535D01*
X92008Y48425D02*X86758D01*
X123390Y40372D02*Y37785D01*
X144875Y66235D02*Y65236D01*
Y66235D02*X144843D01*
Y36772D01*
X81348Y82392D02*Y38425D01*
X67598Y76142D02*Y58425D01*
X86758Y72142D02*Y48425D01*
X87598Y72142D02*X86758D01*
X87598Y76142D02*Y72142D01*
X135033Y76078D02*X151127D01*
X156496Y70709D01*
X154528Y38740D02*X156496Y40709D01*
X144875Y65505D02*X161135D01*
X166339Y70709D01*
X208346D01*
X217520Y61535D01*
X205709Y39724D02*X217520Y51535D01*
X123390Y40372D02*X109252D01*
X92008Y38425D02*X81348D01*
X124843Y37785D02*X123390D01*
X124843D02*Y36772D01*
X134843D02*X141732Y29882D01*
X149606D01*
X154528Y34803D01*
Y38740D01*
X81693Y21024D02*X118937D01*
X130906Y24961D02*X155512D01*
X139764Y21024D02*X180591D01*
X185512Y25945D01*
X118937Y21024D02*X124843Y15118D01*
X134843D02*Y16102D01*
X125413Y14547D02*Y19469D01*
X130906Y24961D01*
X134843Y16102D02*X139764Y21024D01*
X144843Y15118D02*Y13976D01*
X147638Y11181D01*
X180118D01*
X185039Y16102D01*
X198819D01*
X205709Y22992D01*
Y39724D01*
G54D12*G36*
X59008Y61425D02*Y55425D01*
X65008D01*
Y61425D01*
X59008D01*
G37*
G54D13*X62008Y48425D03*
Y38425D03*
Y28425D03*
X92008D03*
Y38425D03*
Y48425D03*
G54D14*X87598Y13150D03*
X67598D03*
X44291Y31850D03*
Y51850D03*
G54D12*G36*
X6508Y52095D02*Y46095D01*
X12508D01*
Y52095D01*
X6508D01*
G37*
G54D13*X9508Y39095D03*
G54D12*G36*
X7093Y78892D02*Y73392D01*
X12593D01*
Y78892D01*
X7093D01*
G37*
G54D15*X39843Y76142D03*
G54D14*X87598D03*
X67598D03*
G54D12*G36*
X16356Y67581D02*Y61081D01*
X22856D01*
Y67581D01*
X16356D01*
G37*
G54D16*X29606Y64331D03*
G54D12*G36*
X214520Y54535D02*Y48535D01*
X220520D01*
Y54535D01*
X214520D01*
G37*
G54D13*X217520Y61535D03*
X92008Y58425D03*
G54D14*X109252Y51535D03*
G54D17*X125190Y66235D03*
X144875D03*
X135033Y76078D03*
G54D15*X156496Y70709D03*
G54D12*G36*
X163589Y73459D02*Y67959D01*
X169089D01*
Y73459D01*
X163589D01*
G37*
G54D14*X109252Y31535D03*
G54D12*G36*
X121243Y40372D02*Y33172D01*
X128443D01*
Y40372D01*
X121243D01*
G37*
G36*
X141243Y18718D02*Y11518D01*
X148443D01*
Y18718D01*
X141243D01*
G37*
G36*
X182289Y18852D02*Y13352D01*
X187789D01*
Y18852D01*
X182289D01*
G37*
G54D15*X155039Y16102D03*
G54D18*X134843Y15118D03*
X124843D03*
X134843Y36772D03*
X144843D03*
G54D12*G36*
X153746Y43459D02*Y37959D01*
X159246D01*
Y43459D01*
X153746D01*
G37*
G54D15*X166339Y40709D03*
G54D12*G36*
X152762Y28695D02*Y23195D01*
X158262D01*
Y28695D01*
X152762D01*
G37*
G54D15*X185512Y25945D03*
G54D19*G54D20*G54D21*G54D22*G54D20*G54D23*G54D21*G54D19*G54D20*G54D24*G54D22*G54D20*G54D25*G54D22*G54D25*G54D22*M02*
